<svg version="1.1" id="Capa_1" xmlns="http://www.w3.org/2000/svg" x="0" y="0" viewBox="0 0 512 512" xml:space="preserve"><style>.st0{fill:#d6a354}</style><path class="st0" d="M426 89C386.9 32.5 324.9 0 256 0S125.1 32.5 86.1 89C47.2 145.3 38.2 216.6 62 279.5c6.4 17.2 16.5 33.9 30 49.5l150.4 176.6c3.4 4 8.4 6.3 13.6 6.3s10.2-2.3 13.6-6.3L420 329.1c13.6-15.7 23.7-32.4 30-49.5 23.8-63 14.8-134.3-24-190.6zm-9.5 178.1c-4.9 13.2-12.8 26.2-23.6 38.7l-.1.1L256 466.5 119.2 305.8c-10.8-12.5-18.7-25.5-23.7-38.8-19.7-52.1-12.2-111 20-157.6C147.8 62.6 199 35.8 256 35.8s108.2 26.8 140.5 73.6c32.2 46.6 39.7 105.5 20 157.7z"/><path class="st0" d="M256 106.2c-55.3 0-100.3 45-100.3 100.3s45 100.3 100.3 100.3 100.3-45 100.3-100.3-45-100.3-100.3-100.3zm0 164.7c-35.5 0-64.4-28.9-64.4-64.4S220.5 142 256 142s64.4 28.9 64.4 64.4-28.9 64.5-64.4 64.5z"/></svg>