<svg xmlns="http://www.w3.org/2000/svg" viewBox="0 0 481.8 500.3"><g opacity=".1"><path d="M360.3 355.4c-3.4-4.3-9.6-5.1-14-1.7l-7.5 5.9-13.3-17.1c9.6-14.4 5.7-33.9-8.7-43.5-8.2-5.5-18.5-6.8-27.9-3.5l-14-18c15-18.7 12.1-46.1-6.6-61.1-12.8-10.3-30.4-12.5-45.4-5.6l-14.1-18c9.6-14.4 5.7-33.9-8.8-43.5-8.2-5.5-18.5-6.7-27.8-3.5l-13.3-17.1 7.5-5.8c4.4-3.4 5.1-9.7 1.7-14.1-3.4-4.4-9.7-5.1-14.1-1.7l-30.8 24c-4.4 3.4-5.1 9.7-1.7 14 3.4 4.4 9.7 5.1 14 1.7l7.5-5.9 13.3 17.1c-9.6 14.4-5.7 33.9 8.7 43.5 8.2 5.5 18.5 6.8 27.9 3.5l14.1 18c-15 18.7-12.1 46.1 6.6 61.1 12.8 10.3 30.4 12.5 45.4 5.6l14 18c-9.6 14.4-5.7 33.9 8.8 43.5 8.2 5.5 18.5 6.7 27.8 3.5l13.4 17.1-7.5 5.9c-4.4 3.3-5.4 9.5-2.1 14 3.3 4.4 9.5 5.4 14 2.1.1-.1.3-.2.4-.3l30.8-24c4.3-3.5 5.1-9.7 1.7-14.1zM173.6 182.3c-3.9-5-3-12.1 2-16 5-3.9 12.1-3 16 2s3 12.1-2 16c-5 3.8-12.2 2.9-16-2zm48.8 82.3c-8-10.2-6.1-25 4.1-33s25-6.1 33 4.1 6.1 25-4.1 33c-10.3 8-25.1 6.2-33-4.1zm67.8 67.5c-3.9-5-3-12.1 2-16 5-3.9 12.1-3 16 2 3.9 5 3 12.1-2 16-4.9 3.9-12.1 3-16-2z"/><path d="M431.7 379.7l-23.6-30.3c-1.8-2-1.6-5.1.5-6.9s5.1-1.6 6.9.5c.1.1.2.3.3.4l11.3 14.5c3.4 4.3 9.6 5.1 14 1.8l29.8-23.2c12.2-9.5 14.4-27.1 4.9-39.3l-223-286.4c-9.5-12.2-27.1-14.4-39.3-4.9l-.1.1-29.8 23.2c-4.3 3.4-5.1 9.6-1.7 14l11.3 14.6c1.8 2 1.6 5.1-.5 6.9-2 1.8-5.1 1.6-6.9-.5-.1-.1-.2-.3-.3-.4L162 33.4c-3.4-4.3-9.6-5.1-14-1.8l-94.9 73.9c-4.3 3.4-5.1 9.6-1.7 14L75 149.9c1.8 2 1.6 5.1-.5 6.9-2 1.8-5.1 1.6-6.9-.5-.1-.1-.2-.3-.3-.4L56 141.4c-3.4-4.3-9.6-5.1-14-1.8l-31.2 24.2c-12.2 9.5-14.4 27.1-4.9 39.3l223 286.4c9.5 12.2 27.1 14.4 39.3 4.9l31.1-24.2c4.3-3.4 5.1-9.6 1.7-14l-11.3-14.5c-1.8-2-1.6-5.1.5-6.9s5.1-1.6 6.9.5c.1.1.2.3.3.4L321 466c3.4 4.3 9.6 5.1 14 1.8l94.9-73.9c4.5-3.5 5.2-9.8 1.8-14.2zm-101 66l-17.5-22.4c-7.9-11.3-23.4-14-34.7-6.1-11.3 7.9-14 23.4-6.1 34.7.5.7 1 1.4 1.6 2l5.2 6.7-5.9 4.6-58.1-74.5c-3.3-4.4-9.5-5.4-14-2.1-4.4 3.3-5.4 9.5-2.1 14 .1.1.2.3.3.4l58.1 74.6-1.6 1.2c-3.5 2.7-8.5 2.1-11.2-1.4L21.7 191c-2.7-3.5-2.1-8.5 1.4-11.2l1.6-1.2L131.9 316c3.4 4.4 9.7 5.1 14 1.7s5.1-9.7 1.7-14L40.4 166.1l5.9-4.6 5.2 6.7c8.4 10.8 24.1 12.8 34.9 4.3 10.8-8.4 12.8-24.1 4.3-34.9l-17.5-22.4 79-61.6L169.8 76c8.6 10.7 24.3 12.4 35 3.7 10.4-8.4 12.3-23.6 4.3-34.3l-5.2-6.7 6.9-5.4 45.8 58.8c3.4 4.4 9.7 5.1 14 1.7 4.4-3.4 5.1-9.7 1.7-14l-45.7-58.7c3.5-2.1 7.9-1.2 10.4 2l223 286.4c2.5 3.2 2.2 7.7-.6 10.6L293.9 107.5c-3.4-4.4-9.7-5.1-14-1.7-4.4 3.4-5.1 9.7-1.7 14l165.6 212.6-6.9 5.4-5.2-6.7c-8.6-10.7-24.3-12.4-35-3.7-10.4 8.4-12.3 23.6-4.3 34.3l17.5 22.5-79.2 61.5z"/><path d="M193.8 362.9l-24.6-31.6c-3.4-4.4-9.7-5.1-14-1.7s-5.1 9.7-1.7 14l24.6 31.6c3.4 4.4 9.7 5.1 14 1.7s5.1-9.6 1.7-14z"/></g></svg>