<svg version="1.1" id="Layer_1" xmlns="http://www.w3.org/2000/svg" x="0" y="0" viewBox="0 0 512 512" xml:space="preserve"><style>.st0{fill:#d6a354}</style><path class="st0" d="M392.9 1.8C386-1.9 377.7.1 373.3 6.5L224.7 207.7 75.2 7.3C70.6 1 62.4-1 55.5 2.7c-7 3.7-9.9 11.8-7 19.1.1.2.2.5.3.7L92.5 108c2.1 4.1 7.2 5.8 11.4 3.7 4.1-2.1 5.8-7.2 3.7-11.4L72.8 32.4l242.8 325.2c1.7 2.2 4.2 3.4 6.8 3.4 1.8 0 3.5-.5 5-1.7 3.7-2.8 4.5-8.1 1.7-11.8L273 272.4 399.6 21.6c.1-.2.2-.5.3-.7 2.9-7.4-.1-15.4-7-19.1zM261.8 257.3l-26.5-35.5L375.6 31.7 261.8 257.3zM393.6 412.9c-5.6-8.1-14-13.5-23.6-15.2-9.7-1.7-19.4.4-27.5 6-16.6 11.5-20.8 34.5-9.2 51.1 7.1 10.3 18.6 15.8 30.2 15.8 7.2 0 14.5-2.1 20.9-6.5 16.6-11.6 20.8-34.5 9.2-51.2zm-18.8 37.3c-9 6.2-21.4 4-27.6-5-6.2-9-4-21.4 5-27.6 3.4-2.3 7.3-3.5 11.3-3.5 1.2 0 2.4.1 3.6.3 5.2.9 9.8 3.9 12.8 8.2 6.1 8.9 3.9 21.3-5.1 27.6zM123.4 427.9c-1.8-9.6-7.2-18-15.3-23.6-8.1-5.5-17.9-7.6-27.5-5.8-9.6 1.8-18 7.2-23.6 15.3-11.5 16.7-7.2 39.6 9.5 51.1 6.2 4.2 13.4 6.5 20.7 6.5 2.3 0 4.5-.2 6.8-.6 9.6-1.8 18-7.2 23.6-15.3 5.5-8.2 7.6-18 5.8-27.6zm-19.7 17.9c-3 4.4-7.5 7.3-12.7 8.3s-10.6-.1-14.9-3.1c-9-6.2-11.3-18.6-5.1-27.6 3.8-5.6 10.1-8.6 16.4-8.6 3.9 0 7.8 1.1 11.2 3.5 4.4 3 7.3 7.5 8.3 12.7.9 5.2-.2 10.4-3.2 14.8z"/><path class="st0" d="M486.3 472.9c-4.4-5.7-11-9.3-18.3-9.6-11.2-.6-26.8-2.1-42.1-6.4 1.3-3.6 2.4-7.4 3.1-11.3 3.2-17.5-.7-35.2-10.8-49.8-17.5-25.3-49.9-35.2-78.6-24.1-4.3 1.7-6.5 6.6-4.8 10.9 1.7 4.3 6.6 6.5 10.9 4.8 21.5-8.3 45.6-.9 58.7 18 7.6 10.9 10.4 24.1 8.1 37.2-.9 5.2-2.7 10.1-5.1 14.7-.3.5-.6.9-.8 1.5-3.6 6.2-8.6 11.6-14.7 15.9-10.9 7.6-24.1 10.4-37.2 8.1s-24.4-9.7-32-20.6c-12.8-18.5-11.6-43.3 3-60.5 2.7-3.2 2.7-7.9-.1-11l-91.9-104.6c-1.7-1.9-4.2-3-6.8-2.9l-2.5.1c-1.3-.2-2.6-.2-3.9.2l-18.4 1-79.1-154c-2.1-4.1-7.2-5.8-11.4-3.7-4.1 2.1-5.8 7.2-3.7 11.4l68.8 134.5-72.1 97.6c-27.1-7.4-56.1 3-72.3 26.6-20.8 30.3-13 71.8 17.2 92.6 11.5 7.9 24.6 11.7 37.6 11.7 21.2 0 42.1-10.1 55-28.9 15.6-22.8 15.4-52.7.1-75.2l82.7-95.2 83.3 94.7c-15.2 22.5-15.3 52.5.5 75.2 10.1 14.6 25.4 24.4 42.9 27.6 4 .7 8 1.1 12 1.1 11 0 21.8-2.7 31.6-8 8.8 7.7 29.2 19.5 71.8 19.6 11.3 0 21.3-8 23.8-19.1 1.5-7.1-.1-14.4-4.5-20.1zm-361.2-81.7c-2.7 3.2-2.8 7.9 0 11 14.7 17.1 16 41.9 3.3 60.5-15.5 22.6-46.5 28.4-69.2 12.9-22.6-15.5-28.4-46.5-12.9-69.1 13-18.9 37.1-26.5 58.6-18.3 3.5 1.3 7.5.2 9.8-2.9l70.7-95.8 4 7.7c1.5 3 4.7 4.8 8 4.6l5.7-.3-78 89.7zm349.1 98.1c-.8 3.4-3.8 5.9-7.3 5.9-32.8 0-49.7-7.7-57.5-13.1 3.2-3 6-6.3 8.5-9.9 17.9 5.4 36.4 7.3 49.3 8 2.3.1 4.3 1.2 5.7 3 .8 1 2 3.1 1.3 6.1z"/></svg>