<svg xmlns="http://www.w3.org/2000/svg" viewBox="0 0 432.8 490.2"><path d="M16.5 389.8c8.6 6.2 19.4 8.7 29.9 6.7 10.7-1.9 20.1-8.1 26.1-17.1 30-44.6 64.6-85.9 103.2-123.3 3.3-3.2 3.4-8.6.2-11.9-3.2-3.3-8.6-3.4-11.9-.2-39.5 38.2-74.8 80.4-105.5 126-3.4 5.2-8.9 8.8-15 9.9-6 1.1-12.1-.3-17.1-3.8-9.4-6.7-12.2-19.4-6.6-29.4C35.8 318.6 72 263 135 206.8s137.4-99.7 221.3-129.7c.3-.1.6-.1.9-.2 13.6-4.9 27.9-9.5 42.3-13.7.3-.1.7-.2 1-.3l6.7-1.9c1.8-.5 3.8-.2 5.4.8 1.7 1.1 2.8 2.8 3.1 4.8.5 3.1-1.2 6.1-4 7.4C376.4 89.7 284 135.4 189 220.6c-3.5 3.1-3.8 8.4-.7 11.9 3.1 3.5 8.4 3.8 11.9.7C237.3 200 277 170 319.1 143.4l-13.6 38.5c-21.6-2.7-44.2 12.8-53 37.7l-68.9 195C174.4 441 185 469 207.5 477l36.2 12.8c4.4 1.5 9.2-.8 10.8-5.2l15.7-44.6c1.6-4.4-.8-9.2-5.2-10.8-4.4-1.6-9.2.8-10.8 5.2L241.4 471l-28.3-10c-13.7-4.8-19.8-23.2-13.5-40.9l68.9-195c6.8-19.4 24.7-30.8 39.8-25.5 4.4 1.5 9.2-.8 10.8-5.2l23-65c8.4-5 16.8-9.7 25.1-14.3L265.6 402.6c-1.7 4.4.5 9.2 4.8 10.9s9.2-.5 10.9-4.8c.1-.1.1-.3.2-.4l107.6-304.7c12.1-6.1 22.1-10.8 29.6-14.1 12-5.3 17.4-19.4 12.1-31.4-3.7-8.2-11.6-13.7-20.6-14.1l3.3-9.3c4.6-13.8-2.9-28.7-16.7-33.3-13.4-4.5-28 2.5-32.9 15.8L348 62.4C138 138 39.3 278.2 5.1 338.3c-9.9 17.6-5 39.8 11.4 51.5zM379.6 22.7c1.7-4.9 7.1-7.5 12.1-5.8s7.5 7.1 5.8 12.1l-6.8 19.2c-7.6 2.3-15.1 4.6-22.5 7.1l11.4-32.6z" opacity=".1"/></svg>