<svg xmlns="http://www.w3.org/2000/svg" viewBox="0 0 430.1 474.2"><path d="M201.8 426.4l60.5-44.3 13.3 18.2c2.4 3.3 7.1 4.1 10.5 1.6l24.2-17.7c3.3-2.4 4.1-7.1 1.6-10.5L185.8 201.4l12.6-9.3c15.2 14.6 38.8 16.2 55.8 3.7l94.4-69.1c17-12.5 22.7-35.4 13.3-54.4l24.3-17.8c7-5.2 9.2-14.7 5.1-22.3L417 13.6c3.3-2.4 4.1-7.1 1.6-10.5s-7.1-4.1-10.5-1.6l-25.6 18.7c-6.1-6.2-15.8-7-22.8-1.9l-24.3 17.8c-15.2-14.6-38.8-16.2-55.8-3.7l-94.4 69.1c-17 12.5-22.6 35.4-13.3 54.3l-12.6 9.3-16.8-23c-2.4-3.3-7.1-4.1-10.5-1.6l-6.1 4.4-8.9-12.1 6.1-4.4c3.3-2.5 4.1-7.1 1.6-10.5L114.5 104c-7.2-10.1-21.3-12.5-31.4-5.2s-12.5 21.3-5.2 31.4c.1.1.2.3.3.4l10.2 13.9c2.4 3.3 7.1 4.1 10.5 1.6l6-4.4 8.9 12.1-6.1 4.4c-3.4 2.4-4.1 7.1-1.7 10.5l25.7 35.1L41 270.3c-3.3 2.5-4.1 7.1-1.6 10.5l139.4 190.4c2.4 3.3 7.1 4.1 10.5 1.6l24.2-17.7c3.3-2.4 4.1-7.1 1.6-10.5l-13.3-18.2zm-99.5-313.5l5.8 7.9-12.1 8.8-5.8-7.9c-2.5-3.3-1.9-8 1.4-10.5s8-1.9 10.5 1.4c.1.1.2.2.2.3zm193 263.6l-12.1 8.9-160.6-219.5 12.1-8.9 160.6 219.5zm-50-192.7c-12.7 9.3-30.5 6.5-39.8-6.2l-17.7-24.2c-9.3-12.7-6.5-30.5 6.2-39.8l94.4-69.1c12.7-9.3 30.5-6.5 39.8 6.2l17.7 24.2c9.3 12.7 6.5 30.5-6.2 39.8l-94.4 69.1zm132-141.3l-23.7 17.4-8.9-12.1 23.8-17.4c1.1-.8 2.7-.6 3.5.5l6 8.1c.8 1.1.5 2.7-.7 3.5zM176.9 189.3l-8.9-12.1 12.1-8.9 8.9 12.1-12.1 8.9zM68 269.1l130.6 178.3-12.1 8.9L55.9 277.9l12.1-8.8zm124.6 17.8l8.9 12.1-60.5 44.3-43.1-58.9 60.5-44.3 25.4 34.7-42.4 31c-3.3 2.4-4.1 7.1-1.6 10.5s7.1 4.1 10.5 1.6l42.3-31zm-52-71l8.9 12.1L89 272.3l-8.9-12.1 60.5-44.3zm52.3 198.4l-43.1-58.9 60.5-44.3 25.4 34.7-42.4 31c-3.4 2.4-4.2 7.1-1.8 10.4 2.4 3.4 7.1 4.2 10.4 1.8.1-.1.2-.1.2-.2l42.4-31 8.9 12.1-60.5 44.4z" opacity=".1"/></svg>