<svg version="1.1" id="Capa_1" xmlns="http://www.w3.org/2000/svg" x="0" y="0" viewBox="0 0 512 512" xml:space="preserve"><style>.st0{fill:#d6a354}</style><path class="st0" d="M214.8 431.3h-90.1c-4.1 0-7.5 3.4-7.5 7.5s3.4 7.5 7.5 7.5h90.1c4.1 0 7.5-3.4 7.5-7.5s-3.4-7.5-7.5-7.5zM214.8 457.9h-90.1c-4.1 0-7.5 3.4-7.5 7.5s3.4 7.5 7.5 7.5h90.1c4.1 0 7.5-3.4 7.5-7.5s-3.4-7.5-7.5-7.5z"/><path class="st0" d="M247.4 152l-9.5-8c-12.7-10.7-22.1-24.5-27.3-39.9-.1-.3-.2-.5-.2-.8-3-9-4.5-18.5-4.5-28.2v-9.5c4-2.2 6.7-6.4 6.7-11.3V12.9c0-7.1-5.8-12.9-12.9-12.9h-59.8C132.8 0 127 5.8 127 12.9v41.5c0 4.9 2.7 9.1 6.7 11.3v9.5c0 9.7-1.6 19.2-4.5 28.2-.1.2-.2.5-.2.8-5.2 15.4-14.5 29.2-27.3 39.9l-9.5 8c-5.9 4.9-9.2 12.2-9.2 19.8v313.9c0 14.5 11.8 26.3 26.3 26.3h121.2c14.5 0 26.3-11.8 26.3-26.3v-314c-.2-7.6-3.5-14.9-9.4-19.8zM197.6 15v37.3H142V15h55.6zm-4.1 83.6H146c1.7-7.6 2.6-15.5 2.6-23.4v-7.9h42.2v7.9c.1 7.9 1 15.8 2.7 23.4zm48.1 387.1c0 6.2-5.1 11.3-11.3 11.3H109.2c-6.2 0-11.3-5.1-11.3-11.3V335.4l143.7 66.5v83.8zm0-100.3L97.9 318.8V309l143.7 67.2v9.2zm0-25.7L97.9 292.5v-39.6l143.7 67.2v39.6zm0-84.5L154.8 235c-3.8-1.7-8.2-.1-10 3.7-1.7 3.8-.1 8.2 3.7 10l93.1 43.1v11.8L97.9 236.3v-11.1l18.4 8.5c3.8 1.7 8.2.1 10-3.7 1.7-3.8.1-8.2-3.7-10l-24.7-11.4v-36.9c0-3.2 1.4-6.3 3.9-8.3l9.5-8c13.6-11.4 23.8-25.9 30.1-41.9h56.8c6.3 16.1 16.6 30.5 30.1 41.9l9.5 8c2.5 2.1 3.9 5.1 3.9 8.3l-.1 103.5zM425.3 355.6c-2.7-3-6.7-4.7-10.7-4.7H298.9c-4.1 0-8 1.7-10.7 4.7-2.7 3-4.1 7-3.8 11.1l11.3 128.4c.6 6.6 4.5 12.1 10.1 14.9 2.5 1.3 5.4 2 8.4 2h85.1c3 0 5.9-.7 8.4-2 5.5-2.8 9.5-8.3 10.1-14.9L429 366.7c.4-4-1-8.1-3.7-11.1zm-22.5 138.2c-.1 1.6-1.3 2.9-2.8 3.2-.2 0-.4.1-.7.1h-85.1c-.2 0-.5 0-.7-.1-1.5-.3-2.7-1.6-2.8-3.2l-.7-7.4h93.4l-.6 7.4zm8.7-99.2h-54.8c-4.1 0-7.5 3.4-7.5 7.5s3.4 7.5 7.5 7.5h53.5l-5.4 61.7H308.8l-5.4-61.7h18c4.1 0 7.5-3.4 7.5-7.5s-3.4-7.5-7.5-7.5h-19.3l-2.5-28.7H414l-2.5 28.7z"/></svg>