<?xml version="1.0" encoding="UTF-8"?>
<!DOCTYPE svg PUBLIC "-//W3C//DTD SVG 1.1//EN" "http://www.w3.org/Graphics/SVG/1.1/DTD/svg11.dtd">
<!-- Creator: CorelDRAW 2020 (64-Bit) -->
<svg xmlns="http://www.w3.org/2000/svg" xml:space="preserve" width="76.4296mm" height="76.4296mm" version="1.1" style="shape-rendering:geometricPrecision; text-rendering:geometricPrecision; image-rendering:optimizeQuality; fill-rule:evenodd; clip-rule:evenodd"
viewBox="0 0 4558.78 4558.78"
 xmlns:xlink="http://www.w3.org/1999/xlink"
 xmlns:xodm="http://www.corel.com/coreldraw/odm/2003">
 <defs>
  <style type="text/css">
   <![CDATA[
    .fil0 {fill:#FEFEFE;fill-rule:nonzero}
    .fil1 {fill:#B92829;fill-rule:nonzero}
    .fil2 {fill:#44963D;fill-rule:nonzero}
   ]]>
  </style>
 </defs>
 <g id="Layer_x0020_1">
  <metadata id="CorelCorpID_0Corel-Layer"/>
  <g id="_2299926092880">
   <path class="fil0" d="M2279.39 0c1258.88,0 2279.39,1020.51 2279.39,2279.39 0,1258.88 -1020.51,2279.39 -2279.39,2279.39 -1258.88,0 -2279.39,-1020.51 -2279.39,-2279.39 0,-1258.88 1020.51,-2279.39 2279.39,-2279.39z"/>
   <path class="fil1" d="M120.55 3012.68l4317.69 0c78.14,-230.12 120.55,-476.75 120.55,-733.29 0,-1258.88 -1020.51,-2279.39 -2279.39,-2279.39 -1258.88,0 -2279.39,1020.51 -2279.39,2279.39 0,256.53 42.4,503.16 120.55,733.29z"/>
   <path class="fil2" d="M2238.44 4558.26l81.9 0c984.51,-17.36 1816.75,-658.78 2117.9,-1545.59l-4317.69 0c301.14,886.8 1133.39,1528.23 2117.9,1545.59z"/>
   <path class="fil0" d="M811.88 4023.4l0 -3488.01c-496.39,418.12 -811.88,1044.18 -811.88,1744.01 0,699.83 315.49,1325.88 811.88,1744.01z"/>
   <path class="fil1" d="M477.39 883.57l29.61 0 0 -37.32c-9.99,12.34 -19.87,24.77 -29.61,37.32zm120.06 2934.13c-2.12,-2.31 -4.27,-4.59 -6.38,-6.91l6.38 0 0 6.91zm-45.43 -51.13c-31.35,-36.43 -61.57,-73.85 -90.62,-112.21l0 -57.03 45.59 0 0 106.22 45.03 0 0 63.03zm-136.05 -174.26c-13.68,-19.38 -27.01,-39.02 -40.08,-58.85l17.29 0 0 -43.61 -23.02 0 0 -42.59 -22.57 0 0 42.24c-17.51,-27.91 -34.49,-56.19 -50.82,-84.9l27.96 0 0 -63.57 68.45 0 0 63.57 22.8 0 0 63.86 22 0 0 86.2 -22 0 0 37.64zm-136.85 -219.25c-5.82,-10.61 -11.47,-21.32 -17.12,-32.02l17.12 0 0 32.02zm-79.99 -160.71c-75.51,-168.11 -131.25,-347.01 -164.24,-533.78l17.15 0 0 -107.41 45.43 0 0 107.41 45.2 0 0 106.22 45.99 0 0 106.45 -45.99 0 0 129.65 45.99 0 0 -86.2 45.03 0 0 -171.1 23.2 0 0 -105.43 -68.22 -0.57 0 -86.43 -45.99 0 0 -63.64 -45.2 0 0 -106.45 -45.43 0 0 106.45 -40.71 0c-4.89,-49.23 -8.11,-98.94 -9.82,-149.04l4.94 0 0 -75.82 45.59 0 0 -85.46 -45.59 0 0 -73.84 -1.04 0c3.46,-50.74 8.48,-101.03 15.2,-150.8l31.43 0 0 107.42 45.43 0 0 -107.42 45.2 0 0 -63.86 45.99 0 0 -85.24 68.22 -0.57 0 -105.83 -23.2 0 0 -171.1 -45.03 0 0 -85.81 -36.86 0c24.56,-63.74 51.9,-126.12 81.89,-186.95l0 101.54 45.43 0 0 106.39 45.6 0 0 -106.39 45.43 0 0 -107.08 45.82 0 0 -106.62 45.43 0 0 -107.24 45.59 0 0 107.24 45.03 0 0 106.62 45.43 0 0 107.08 45.82 0 0 106.39 44.81 0 0 107.47 -44.81 0 0 107.42 -45.82 0 0 106.45 -45.43 0 0 106.22 -45.03 0 0 -106.22 -45.59 0 0 -106.45 -45.43 0 0 -107.42 45.43 0 0 -128.45 -45.43 0 0 85.81 -45.82 0 0 171.1 -22.57 0 0 106.4 68.39 0 0 85.24 45.43 0 0 63.86 45.59 0 0 107.42 45.03 0 0 -107.42 45.43 0 0 -63.86 45.82 0 0 -63.63 44.81 0 0 192.09 -44.81 0 0 86.2 -45.82 0 0 73.84 -45.43 0 0 85.46 45.43 0 0 75.82 45.82 0 0 84.79 44.81 0 0 192.71 -44.81 0 0 -64.82 -45.82 0 0 -63.64 -45.43 0 0 -106.45 -45.03 0 0 106.45 -45.59 0 0 63.64 -45.43 0 0 86.43 -68.39 0 0 106 22.57 0 0 171.1 45.82 0 0 86.2 45.43 0 0 -129.65 -45.43 0 0 -106.45 45.43 0 0 -106.22 45.59 0 0 -107.41 45.03 0 0 107.41 45.43 0 0 106.22 45.82 0 0 106.45 44.81 0 0 107.42 -44.81 0 0 106.27 -45.82 0 0 107.42 -45.43 0 0 107.24 -45.03 0 0 106.45 -45.59 0 0 -106.45 -45.43 0 0 -107.24 -45.82 0 0 -107.42 -45.43 0 0 -106.27 -45.6 0 0 106.27 -45.43 0 0 107.42 -34.57 0zm-149 -1409.88c23.26,-109.19 54.28,-215.5 92.55,-318.29l0 104.43 45.99 0 0 107.42 -45.99 0 0 106.45 -45.2 0 0 106.22 -45.43 0 0 -106.22 -1.92 0zm229 -616.77l1.7 -3.04 43.9 0 0 128.45 -45.6 0 0 -125.41zm45.6 -79.35c35.23,-58.57 73.06,-115.4 113.25,-170.39l0 75.66 -22 0 0 64.43 -22.8 0 0 63.97 -68.45 0 0 -33.66zm318.55 -413.81c14.73,-15.18 29.67,-30.15 44.81,-44.91l0 107.48 -44.81 0 0 -62.57zm-69.07 105.39l0 63.4 -22.8 0 0 64.82 -22.8 0 0 85.46 22.8 0 0 63.58 22.8 0 0 63.63 68.45 0 0 -63.63 22.62 0 0 -63.58 22.18 0 0 -85.46 -22.18 0 0 -64.82 -22.62 0 0 -63.4 -68.45 0zm0 148.87l22.63 0 0 -41.85 22.8 0 0 41.85 23.02 0 0 43.21 -23.02 0 0 42.59 -22.8 0 0 -42.59 -22.63 0 0 -43.21zm-476.73 1294.81l0 -44.4 45.2 0 0 -73.84 45.99 0 0 -86.2 68.22 0 0 -100.61 22.23 0 0 -49.23 45.6 0 0 48.21 22.86 0 0 101.63 68.39 0 0 86.2 45.43 0 0 73.84 45.59 0 0 85.46 -45.59 0 0 75.82 -45.43 0 0 84.79 -68.39 0 0 100.84 -22.86 0 0 48.26 -45.6 0 0 -48.26 -22.23 0 0 -100.84 -68.22 0 0 -84.79 -45.99 0 0 -75.82 -45.2 0 0 -41.06zm545.8 -930.48l44.81 0 0 -128.45 -44.81 0 0 128.45zm0 491.36l44.81 0 0 -85.41 -44.81 0 0 85.41zm-364.15 320.09l45.6 0 0 -106.22 -45.6 0 0 106.22zm68.46 -21.38l0 42.2 -22.86 0 0 32.83 -45.6 0 0 -32.83 -22.23 0 0 -42.2 -45.6 0 0 64.03 22.4 0 0 31.99 23.2 0 0 85.46 -23.2 0 0 32.39 -22.4 0 0 63.8 45.6 0 0 -42.59 22.23 0 0 -31.59 45.6 0 0 31.59 22.86 0 0 42.59 45.59 0 0 -63.8 -23.02 0 0 -32.39 -22.57 0 0 -85.46 22.57 0 0 -31.99 23.02 0 0 -64.03 -45.59 0zm295.69 75.03l0 128.46 44.81 0 0 -128.46 -44.81 0zm-250.1 0l0 128.46 44.8 0 0 -128.46 -44.8 0zm-227.3 0l0 128.46 45.42 0 0 -128.46 -45.42 0zm113.25 288.67l45.6 0 0 -106.4 -45.6 0 0 106.4zm364.15 298.71l44.81 0 0 -85.01 -44.81 0 0 85.01zm0 533.78l44.81 0 0 -127.6 -44.81 0 0 127.6zm-364.15 0l45.6 0 0 -127.6 -45.6 0 0 127.6zm295.08 44.46l0 62.78 -22.8 0 0 64.82 -22.8 0 0 85.24 22.8 0 0 63.63 22.8 0 0 64.02 68.45 0 0 -64.02 22.62 0 0 -63.63 22.18 0 0 -85.24 -22.18 0 0 -64.82 -22.62 0 0 -62.78 -68.45 0zm0 149.04l22.63 0 0 -42.41 22.8 0 0 42.41 23.02 0 0 42.59 -23.02 0 0 43.44 -22.8 0 0 -43.44 -22.63 0 0 -42.59zm69.07 362.91l44.81 0 0 -128.06 -44.81 0 0 128.06z"/>
  </g>
 </g>
</svg>
