<?xml version="1.0" encoding="UTF-8"?>
<!DOCTYPE svg PUBLIC "-//W3C//DTD SVG 1.1//EN" "http://www.w3.org/Graphics/SVG/1.1/DTD/svg11.dtd">
<!-- Creator: CorelDRAW 2020 (64-Bit) -->
<svg xmlns="http://www.w3.org/2000/svg" xml:space="preserve" width="76.4296mm" height="76.4296mm" version="1.1" style="shape-rendering:geometricPrecision; text-rendering:geometricPrecision; image-rendering:optimizeQuality; fill-rule:evenodd; clip-rule:evenodd"
viewBox="0 0 7628.73 7628.73"
 xmlns:xlink="http://www.w3.org/1999/xlink"
 xmlns:xodm="http://www.corel.com/coreldraw/odm/2003">
 <defs>
  <style type="text/css">
   <![CDATA[
    .fil0 {fill:#FEFEFE;fill-rule:nonzero}
    .fil1 {fill:#DC7B24;fill-rule:nonzero}
    .fil2 {fill:#366B56;fill-rule:nonzero}
   ]]>
  </style>
 </defs>
 <g id="Layer_x0020_1">
  <metadata id="CorelCorpID_0Corel-Layer"/>
  <g id="_2263474012704">
   <path class="fil0" d="M3814.36 0c2106.62,0 3814.36,1707.74 3814.36,3814.36 0,2106.62 -1707.74,3814.36 -3814.36,3814.36 -2106.62,0 -3814.36,-1707.74 -3814.36,-3814.36 0,-2106.62 1707.74,-3814.36 3814.36,-3814.36z"/>
   <path class="fil0" d="M3785.23 7628.36l58.27 0c2093.17,-15.69 3785.23,-1717.12 3785.23,-3813.99 0,-2106.62 -1707.74,-3814.36 -3814.36,-3814.36 -2106.62,0 -3814.36,1707.74 -3814.36,3814.36 0,2096.88 1692.05,3798.3 3785.23,3813.99z"/>
   <path class="fil1" d="M2766.2 2225.68c0,101.17 13.66,114.84 18.42,133.62 7.68,19.74 14.32,372.31 -37.21,466.36 -51.91,96.42 -156.69,150.04 -197.49,159.34 -42.24,10.43 -172.82,-82 -293.34,-120.81 -122.14,-38.53 -115.13,-31.79 -167.04,-31.79 -51.91,0 -165.03,42.51 -196.54,70.61 -21.45,-3.69 -27.43,-12.34 -40.15,0 -11.39,11.39 -63.3,63.58 -76.02,96.14 -12.71,30.74 -44.89,152.98 -83.05,165.32 -37.48,12.72 -142.63,117.2 -210.21,121.19 -68.33,4.36 -49.92,-2.94 -96.8,-6.36 -45.83,-2.66 -50.87,-51.15 -95.76,-75.65 -44.79,-26.47 -55.52,-46.2 -55.52,-46.2 0,0 -13.76,-49.55 -33.5,-49.55 -18.42,0 -36.82,88.73 -36.82,114.17 0,25.43 49.54,120.91 74.97,140.65 26.48,19.74 26.48,134.19 13.76,165.7 -13.76,31.79 25.43,65.3 31.13,96.43 5.97,30.07 -38.82,56.55 -18.42,62.91 18.42,5.7 43.84,45.18 43.84,83.7 0,37.87 94.72,51.24 115.5,89.02 18.78,38.91 26.48,101.45 33.5,140.64 4.65,38.17 26.1,19.46 29.8,114.85 31.41,14.42 75.64,44.89 115.49,63.58 38.16,18.79 31.41,63.96 82,82.76 51.24,20.03 51.24,0 77.36,7.31 25.42,6.08 -11.68,12.73 33.11,25.53 44.23,12.06 62.64,-6.74 99.84,12.06 39.1,19.35 59.6,63.2 83.99,76.97 25.42,11.67 134.95,45.17 140.93,50.87 6.74,7.02 75.36,32.17 89.11,32.17 12.34,0 51.53,-25.15 51.53,-25.15 0,0 44.23,11.4 83.04,0 38.15,-12.72 64.26,-50.87 89.02,-50.87 26.48,0 31.13,12.44 57.61,12.44 25.43,0 63.58,-12.44 63.58,-12.44 0,0 57.61,-13.76 102.78,12.44 44.52,25.71 146.35,146.63 146.35,197.77 0,51.25 -6.75,76.69 -6.75,76.69 0,0 51.91,-5.7 70.33,5.41 19.45,13.01 16.42,-10.06 159.35,13.01 -8.64,-34.84 -146.64,-133.54 -18.71,-274.18 128.21,-139.98 136.29,-82.67 166.09,-109.14 29.42,-24.77 147.94,-100.12 344.49,-30.84 192.47,-30.75 51.53,-58.18 158.96,-64.26 20.79,-7.68 55.62,2 96.14,13.1 13.76,-23.82 39.87,-47.54 83.99,-38.52 8.72,-22.4 60.26,-52.58 115.22,-58.28 7.02,-42.51 144.63,-96.7 221.6,-101.06 33.5,-29.51 69.65,-157.08 244.76,-95.76 5.69,-41.19 33.78,-108.48 81.99,-122.24 10.73,-85.32 -22.4,-259.75 64.34,-318.41 85.04,-79.33 168.08,-60.92 312.05,-57.22 100.79,19.74 146.26,94.04 179.75,102.12 31.12,5.31 41.85,5.31 81.04,-20.78 39.2,-24.12 -4.74,-76.31 26.39,-76.31 33.22,0 18.51,8.06 70.32,0 51.91,-5.03 43.85,-23.07 76.41,-30.84 51.8,25.81 108.47,6.08 134.85,25.81 25.15,18.42 29.14,17.09 82.1,23.83 20.68,33.4 71.27,33.4 71.27,33.4 0,0 -39.19,-13.38 -25.43,-33.4 12.72,-18.79 0,-76.02 -25.15,-100.79 -26.38,-25.43 -39.1,-32.17 -58.94,-58.27 -18.69,-25.14 7.13,-25.14 -25.42,-56.94 -31.13,-32.17 -101.46,-64.63 -120.16,-101.73 -18.41,-37.87 -13.75,-63.68 -45.83,-95.48 -31.13,-33.5 -160.39,-140.93 -165.13,-255.38 -7.97,-115.58 4.74,-226.34 83.05,-261.83 -2.94,-68.34 11.77,-77.36 82.09,-116.54 72.32,-37.49 76.97,-12.06 121.19,-12.06 44.8,0 70.22,7.41 115.5,-25.43 43.84,-31.79 5.69,-102.11 120.8,-203.85 116.54,-102.12 161.72,-154.03 199.58,-159.05 37.11,-8.07 176.72,-104.77 233.65,-96.81 41.86,-49.16 84.09,-107.43 135.62,-146.91 52.2,-37.87 107.82,-37.87 133.25,-70.33 26.48,-31.12 20.4,-88.73 96.8,-138.94 75.93,-51.52 140.56,-85.41 172.73,-109.14 30.45,-26.48 101.73,-6.75 127.17,-32.17 1.52,-1.55 2.93,-3.33 4.28,-5.3 -21.48,-26.54 -43.27,-52.81 -65.44,-78.75 -10.19,5.13 -19.9,9.83 -28.54,13.72 -55.9,25.15 -139.98,70.33 -210.21,63.97 -70.32,-7.7 -31.51,38.53 -70.32,50.86 -38.15,11.4 -101.83,6.08 -128.22,31.52 -25.53,26.47 -70.33,89.01 -107.52,115.49 -38.82,24.77 -59.61,18.41 -96.71,37.87 -38.25,19.74 -70.33,38.15 -101.84,50.87 -32.07,13.75 -127.83,7.41 -127.83,7.41 0,0 -83.05,107.43 -122.23,146.91 -37.2,38.54 -82.01,30.84 -121.19,50.21 -38.15,19.45 -362.62,229.38 -585.56,261.83 -223.68,31.51 -122.23,-19.73 -192.55,0 -69.57,19.74 -172.07,153.36 -256.06,158.4 -83.04,7.69 -108.47,0 -125.93,0 -19.74,0 -122.24,65.57 -186.78,52.19 -92.82,28.76 -163.43,22.4 -191.51,18.79 -27.52,-2.38 -76.4,33.12 -147.01,0 -53.53,-17.09 -53.53,21.35 -159.05,-12.06 -105.73,-32.55 -177.76,12.06 -229.95,-12.06 -50.59,-26.47 -43.86,-46.87 -83.05,-46.87 -36.82,0 -36.82,26.38 -83.05,26.38 -44.89,0 -51.53,-26.38 -88.72,-26.38 -37.11,0 -82.01,26.38 -140.66,20.4 -57.89,-6.74 -76.3,-32.46 -115.49,-32.46 -37.11,0 -249.03,-89.11 -249.03,-89.11l0 0z"/>
   <path class="fil2" d="M3419.04 6126.12c112.17,-80.38 209.93,-106.48 360.54,-132.95 150.33,-26.39 310.71,-71.28 394.04,-93.01 84.08,-22.5 -283.58,106.76 -377.25,132.57 -91.77,26.77 -377.34,93.39 -377.34,93.39l0 0z"/>
   <path class="fil2" d="M4026.71 5890.38c-30.17,-189.43 45.18,-389.95 216.29,-469.01 40.81,137.9 -82.1,371.27 -216.29,469.01l0 0z"/>
   <path class="fil2" d="M4319.96 5791.68c-91.67,-158.03 62.63,-361.96 178.14,-461.43 53.9,95.47 -40.15,379.33 -178.14,461.43l0 0z"/>
   <path class="fil2" d="M4589.87 5669.44c-97.85,-135.23 18.7,-372.3 142.92,-466.36 47.54,134.29 0,374.59 -142.92,466.36l0 0z"/>
   <path class="fil2" d="M4860.63 5499.37c-89.02,-127.92 -26.38,-326.07 102.49,-455.34 92.06,106.86 12.73,337.86 -102.49,455.34l0 0z"/>
   <path class="fil2" d="M5078.62 5328.93c-75.36,-120.8 16.7,-409.41 137.61,-489.42 51.9,106.77 12.71,408.76 -137.61,489.42l0 0z"/>
   <path class="fil2" d="M5251.73 5283.76c-22.79,-173.4 279.58,-364.24 402.76,-359.22 -12.72,140.94 -143.02,296.29 -402.76,359.22l0 0z"/>
   <path class="fil2" d="M5082.61 5478.6c142.64,-145.59 417.19,-145.59 514.95,-115.5 -26.1,85.03 -350.87,270.57 -514.95,115.5l0 0z"/>
   <path class="fil2" d="M4887.1 5624.56c200.25,-53.24 329.14,-96.71 448.61,27.52 -83.98,106.39 -408.75,74.59 -448.61,-27.52l0 0z"/>
   <path class="fil2" d="M4602.58 5753.81c190.75,-101.74 422.13,48.59 457.35,136.57 -212.97,89.11 -461.42,-114.45 -457.35,-136.57l0 0z"/>
   <path class="fil2" d="M4340.74 5900.16c173.78,-66.34 374.3,21.73 452.6,119.48 -93.01,44.89 -335.38,93.77 -452.6,-119.48l0 0z"/>
   <path class="fil2" d="M4102.06 5975.42c200.54,-22.4 391.01,129.25 433.14,215.34 -254.44,24.38 -352.18,-52.3 -433.14,-215.34l0 0z"/>
   <path class="fil2" d="M4038.75 6126.12c-111.5,-80.38 -208.21,-106.48 -359.97,-132.95 -150.61,-26.39 -310.61,-71.28 -395.64,-93.01 -82.1,-22.5 285.18,106.76 379.32,132.57 92.72,26.77 376.29,93.39 376.29,93.39l0 0z"/>
   <path class="fil2" d="M3430.43 5890.38c31.41,-189.43 -42.9,-389.95 -216.67,-469.01 -38.43,137.9 84.09,371.27 216.67,469.01l0 0z"/>
   <path class="fil2" d="M3138.5 5791.68c93.67,-158.03 -62.63,-361.96 -177.85,-461.43 -53.9,95.47 39.86,379.33 177.85,461.43l0 0z"/>
   <path class="fil2" d="M2866.99 5669.44c99.08,-135.23 -16.81,-372.3 -141.04,-466.36 -48.87,134.29 0,374.59 141.04,466.36l0 0z"/>
   <path class="fil2" d="M2596.79 5499.37c89.02,-127.92 27.42,-326.07 -101.45,-455.34 -92.06,106.86 -12.73,337.86 101.45,455.34l0 0z"/>
   <path class="fil2" d="M2380.13 5328.93c77.07,-120.8 -16.71,-409.41 -138.27,-489.42 -52.58,106.77 -12.73,408.76 138.27,489.42l0 0z"/>
   <path class="fil2" d="M2206.07 5283.76c23.06,-173.4 -278.54,-364.24 -401.82,-359.22 12.72,140.94 139.61,296.29 401.82,359.22l0 0z"/>
   <path class="fil2" d="M2376.15 5478.6c-143.02,-145.59 -417.48,-145.59 -514.29,-115.5 26.48,85.03 350.2,270.57 514.29,115.5l0 0z"/>
   <path class="fil2" d="M2571.64 5624.56c-200.53,-53.24 -329.78,-96.71 -448.98,27.52 83.41,106.39 408.84,74.59 448.98,-27.52l0 0z"/>
   <path class="fil2" d="M2854.93 5753.81c-190.56,-101.74 -421.17,48.59 -456.4,136.57 212.97,89.11 460.38,-114.45 456.4,-136.57l0 0z"/>
   <path class="fil2" d="M3116.02 5900.16c-174.06,-66.34 -372.59,21.73 -451.65,119.48 93.77,44.89 336.14,93.77 451.65,-119.48l0 0z"/>
   <path class="fil2" d="M3357.07 5975.42c-201.19,-22.4 -392.71,129.25 -433.52,215.34 254.72,24.38 352.56,-52.3 433.52,-215.34l0 0z"/>
  </g>
 </g>
</svg>
