<?xml version="1.0" encoding="UTF-8"?>
<!DOCTYPE svg PUBLIC "-//W3C//DTD SVG 1.1//EN" "http://www.w3.org/Graphics/SVG/1.1/DTD/svg11.dtd">
<!-- Creator: CorelDRAW 2020 (64-Bit) -->
<svg xmlns="http://www.w3.org/2000/svg" xml:space="preserve" width="76.4296mm" height="76.4296mm" version="1.1" style="shape-rendering:geometricPrecision; text-rendering:geometricPrecision; image-rendering:optimizeQuality; fill-rule:evenodd; clip-rule:evenodd"
viewBox="0 0 5237.62 5237.62"
 xmlns:xlink="http://www.w3.org/1999/xlink"
 xmlns:xodm="http://www.corel.com/coreldraw/odm/2003">
 <defs>
  <style type="text/css">
   <![CDATA[
    .fil2 {fill:#D12437;fill-rule:nonzero}
    .fil1 {fill:#D12437;fill-rule:nonzero}
    .fil0 {fill:#FEFEFE;fill-rule:nonzero}
   ]]>
  </style>
 </defs>
 <g id="Layer_x0020_1">
  <metadata id="CorelCorpID_0Corel-Layer"/>
  <path class="fil0" d="M2618.81 0c1446.33,0 2618.81,1172.48 2618.81,2618.81 0,1446.33 -1172.48,2618.81 -2618.81,2618.81 -1446.33,0 -2618.81,-1172.48 -2618.81,-2618.81 0,-1446.33 1172.48,-2618.81 2618.81,-2618.81z"/>
  <path class="fil0" d="M2598.81 5237.36l40.01 0c1437.09,-10.77 2598.81,-1178.91 2598.81,-2618.55 0,-1446.33 -1172.48,-2618.81 -2618.81,-2618.81 -1446.33,0 -2618.81,1172.48 -2618.81,2618.81 0,1439.64 1161.7,2607.78 2598.81,2618.55z"/>
  <path class="fil1" d="M2598.81 5237.36l40.01 0c156.41,-1.17 309.56,-16.02 458.31,-43.47l0 -5150.15c-155.09,-28.63 -314.94,-43.73 -478.32,-43.73 -204.56,0 -403.63,23.5 -594.7,67.86l0 5101.89c184.82,42.91 377.17,66.13 574.7,67.61l0 -0.01z"/>
  <path class="fil1" d="M46.24 3110.23l5145.15 0c30.23,-159.2 46.24,-323.43 46.24,-491.42 0,-200.45 -22.61,-395.61 -65.26,-583.16l-5107.1 0c-42.65,187.54 -65.26,382.71 -65.26,583.16 0,167.99 16.01,332.22 46.24,491.42z"/>
  <path class="fil2" d="M1066.39 1347.72c-4.56,97.67 -14.73,194.24 -29.65,289.17 -3.65,31.02 -9.39,61.57 -15.38,91.75 59.03,-7.37 119.95,-11.73 181.13,-11.73 61.38,0 122.23,4.37 181.79,11.73 -5.74,-30.17 -10.1,-60.73 -14.93,-91.75 -15.9,-94.93 -24.82,-191.5 -29.65,-289.17 129.14,5.74 256.72,21.63 381.11,45.02 -8.08,-59.94 -12.18,-120.21 -12.18,-181.07 0,-62.55 4.1,-122.3 12.18,-182.51 -124.39,23.2 -251.97,39.29 -381.11,45.48 6.91,-129.66 21.57,-256.98 44.57,-381.11 -59.56,7.37 -120.41,10.82 -181.79,10.82 -61.18,0 -122.1,-3.45 -181.13,-10.82 23.2,124.13 39.29,251.45 45.02,381.11 -128.95,-6.19 -256.72,-22.29 -380.85,-45.48 7.36,60.21 11.01,119.96 11.01,182.51 0,60.86 -3.65,121.13 -11.01,181.07 124.13,-23.39 251.9,-39.29 380.85,-45.02z"/>
  <path class="fil2" d="M3810.6 1347.72c-4.56,97.67 -14.73,194.24 -29.65,289.17 -3.65,31.02 -9.39,61.57 -15.38,91.75 59.03,-7.37 119.95,-11.73 181.13,-11.73 61.38,0 122.23,4.37 181.79,11.73 -5.74,-30.17 -10.1,-60.73 -14.93,-91.75 -15.9,-94.93 -24.82,-191.5 -29.65,-289.17 129.14,5.74 256.72,21.63 381.11,45.02 -8.08,-59.94 -12.18,-120.21 -12.18,-181.07 0,-62.55 4.1,-122.3 12.18,-182.51 -124.39,23.2 -251.97,39.29 -381.11,45.48 6.91,-129.66 21.57,-256.98 44.57,-381.11 -59.56,7.37 -120.41,10.82 -181.79,10.82 -61.18,0 -122.1,-3.45 -181.13,-10.82 23.2,124.13 39.29,251.45 45.02,381.11 -128.95,-6.19 -256.72,-22.29 -380.85,-45.48 7.36,60.21 11.01,119.96 11.01,182.51 0,60.86 -3.65,121.13 -11.01,181.07 124.13,-23.39 251.9,-39.29 380.85,-45.02z"/>
  <path class="fil2" d="M1066.39 3994.93c-4.56,97.67 -14.73,194.24 -29.65,289.17 -3.65,31.02 -9.39,61.57 -15.38,91.75 59.03,-7.37 119.95,-11.73 181.13,-11.73 61.38,0 122.23,4.37 181.79,11.73 -5.74,-30.17 -10.1,-60.73 -14.93,-91.75 -15.9,-94.93 -24.82,-191.5 -29.65,-289.17 129.14,5.74 256.72,21.63 381.11,45.02 -8.08,-59.94 -12.18,-120.21 -12.18,-181.07 0,-62.55 4.1,-122.3 12.18,-182.51 -124.39,23.2 -251.97,39.29 -381.11,45.48 6.91,-129.66 21.57,-256.98 44.57,-381.11 -59.56,7.37 -120.41,10.82 -181.79,10.82 -61.18,0 -122.1,-3.45 -181.13,-10.82 23.2,124.13 39.29,251.45 45.02,381.11 -128.95,-6.19 -256.72,-22.29 -380.85,-45.48 7.36,60.21 11.01,119.96 11.01,182.51 0,60.86 -3.65,121.13 -11.01,181.07 124.13,-23.39 251.9,-39.29 380.85,-45.02z"/>
  <path class="fil2" d="M3810.6 3994.93c-4.56,97.67 -14.73,194.24 -29.65,289.17 -3.65,31.02 -9.39,61.57 -15.38,91.75 59.03,-7.37 119.95,-11.73 181.13,-11.73 61.38,0 122.23,4.37 181.79,11.73 -5.74,-30.17 -10.1,-60.73 -14.93,-91.75 -15.9,-94.93 -24.82,-191.5 -29.65,-289.17 129.14,5.74 256.72,21.63 381.11,45.02 -8.08,-59.94 -12.18,-120.21 -12.18,-181.07 0,-62.55 4.1,-122.3 12.18,-182.51 -124.39,23.2 -251.97,39.29 -381.11,45.48 6.91,-129.66 21.57,-256.98 44.57,-381.11 -59.56,7.37 -120.41,10.82 -181.79,10.82 -61.18,0 -122.1,-3.45 -181.13,-10.82 23.2,124.13 39.29,251.45 45.02,381.11 -128.95,-6.19 -256.72,-22.29 -380.85,-45.48 7.36,60.21 11.01,119.96 11.01,182.51 0,60.86 -3.65,121.13 -11.01,181.07 124.13,-23.39 251.9,-39.29 380.85,-45.02z"/>
 </g>
</svg>
