<?xml version="1.0" encoding="UTF-8"?>
<!DOCTYPE svg PUBLIC "-//W3C//DTD SVG 1.1//EN" "http://www.w3.org/Graphics/SVG/1.1/DTD/svg11.dtd">
<!-- Creator: CorelDRAW 2020 (64-Bit) -->
<svg xmlns="http://www.w3.org/2000/svg" xml:space="preserve" width="76.4296mm" height="76.4296mm" version="1.1" style="shape-rendering:geometricPrecision; text-rendering:geometricPrecision; image-rendering:optimizeQuality; fill-rule:evenodd; clip-rule:evenodd"
viewBox="0 0 7628.69 7628.69"
 xmlns:xlink="http://www.w3.org/1999/xlink"
 xmlns:xodm="http://www.corel.com/coreldraw/odm/2003">
 <defs>
  <style type="text/css">
   <![CDATA[
    .fil0 {fill:#FEFEFE;fill-rule:nonzero}
    .fil2 {fill:#F7E81A;fill-rule:nonzero}
    .fil1 {fill:#D12437;fill-rule:nonzero}
   ]]>
  </style>
 </defs>
 <g id="Layer_x0020_1">
  <metadata id="CorelCorpID_0Corel-Layer"/>
  <g id="_2263626705328">
   <path class="fil0" d="M3814.34 0c2106.61,0 3814.34,1707.73 3814.34,3814.34 0,2106.61 -1707.73,3814.34 -3814.34,3814.34 -2106.61,0 -3814.34,-1707.73 -3814.34,-3814.34 0,-2106.61 1707.73,-3814.34 3814.34,-3814.34z"/>
   <path class="fil1" d="M3762.36 7628.03l103.97 0c2082.61,-27.86 3762.36,-1724.45 3762.36,-3813.68 0,-2106.61 -1707.73,-3814.34 -3814.34,-3814.34 -2106.61,0 -3814.34,1707.73 -3814.34,3814.34 0,2089.23 1679.75,3785.83 3762.36,3813.68z"/>
   <path class="fil2" d="M4998.45 3901.75c-7.69,62.92 -18.7,123.85 -35.11,184.12 7.7,1.71 16.42,3.04 25.44,5.03 -10.07,1.04 -19.74,5.03 -28.48,7.02 -16.42,60.27 -37.77,119.58 -64.63,175.47 8.06,4.37 15.75,7.41 25.81,9.02 -11.01,0 -19.73,0 -29.42,1.33 -26.47,57.32 -56.64,113.23 -91.1,164.47 7.02,4.27 14.71,9.3 23.73,12.05 -9.01,0 -19.74,-1.05 -30.46,-1.05 -34.07,52.58 -72.31,101.74 -114.46,145.31 5.98,6.36 12.72,12.05 20.4,18.78 -9.67,-3.69 -19.45,-6.74 -28.47,-8.06 -42.52,46.5 -87.7,86.36 -136.57,126.89 5.04,7.68 11.02,12.33 18.71,20.4 -9.68,-5.04 -18.71,-9.69 -27.43,-10.73 -48.88,36.82 -100.79,72.69 -155.36,103.45 5.03,8.06 9.78,13.76 14.8,21.83 -7.78,-6.08 -15.75,-12.72 -25.52,-15.47 -53.91,30.46 -109.43,58.27 -169.02,80.76 3.03,7.7 6.65,15 11.39,21.35 -7.4,-6.35 -14.43,-12.72 -22.11,-18.41 -58.94,21.16 -118.54,38.54 -179.74,52.57 1.6,7.7 3.59,15.75 7.68,24.49 -6.74,-8.74 -12.72,-15.76 -19.73,-21.45 -60.65,12.71 -123.29,18.42 -185.53,21.45 1.04,9.67 1.04,17.08 3.69,26.38 -4.65,-7.69 -10.72,-16.71 -14.42,-24.39 -18.7,0 -37.49,0.96 -54.19,0.96 -45.55,0 -90.73,-2.94 -134.57,-7.32 -1.05,7.32 -1.05,15.09 0,25.05 -4.08,-9.96 -7.79,-17.74 -10.73,-26.38 -63.68,-8.06 -125.28,-18.79 -184.87,-34.55 -1.99,6.08 -3.98,15.75 -5.02,24.48 -1.62,-8.73 -3.61,-19.45 -5.6,-29.14 -61.69,-15.75 -120.53,-38.82 -176.81,-63.58 -3.03,7.69 -6.07,17.75 -9.01,24.76 0,-9.11 0,-18.78 -2.1,-29.14 -56.56,-28.19 -112.46,-57.22 -163.99,-89.39 -5.02,5.69 -7.68,13.75 -11.77,21.44 1.05,-9.76 2.1,-18.78 2.1,-28.47 -51.91,-34.82 -101.83,-72.31 -147.67,-115.87 -5.69,4.36 -10.73,12.44 -15.75,22.11 3.03,-11.01 5.98,-20.78 7.02,-28.09 -46.21,-45.27 -89.02,-90.45 -128.21,-137.99 -5.69,6.08 -12.72,10.72 -19.45,18.41 4.74,-8.63 8.72,-18.41 11.77,-29.13 -38.15,-47.84 -73.36,-100.7 -104.77,-153.27 -7.79,4.65 -14.81,9.68 -21.45,14.04 5.7,-6.35 10.72,-17.08 15.75,-23.16 -31.12,-55.9 -57.6,-113.5 -80.38,-170.72 -6.74,3.69 -14.71,6.73 -23.45,12.43 8.07,-8.73 13.76,-16.42 19.74,-23.16 -21.73,-57.22 -39.19,-118.82 -51.91,-181.07 -7.69,3.03 -16.42,6.36 -25.43,7.97 8.06,-5.97 16.8,-12.72 23.82,-20.4 -13.1,-58.94 -20.78,-121.85 -23.82,-184.12 -8.73,0 -16.7,1.33 -26.38,3.03 9.68,-4.74 17.65,-10.72 25.43,-15.75 -1.04,-16.7 -1.04,-33.5 -1.04,-52.19 0,-45.27 1.99,-91.78 8.05,-133.62 -9.1,-0.67 -17.75,-0.67 -27.52,0 9.77,-4.37 19.46,-7.7 28.48,-12.06 5.69,-62.92 18.41,-125.84 34.17,-185.44 -7.69,-1.71 -15.76,-1.71 -24.39,-3.03 8.63,-1.71 18.7,-3.7 27.43,-6.75 17.37,-60.26 38.82,-120.52 63.3,-176.03 -6.74,-4.75 -14.43,-6.75 -24.48,-9.4 10.72,0 20.78,-1.33 30.46,-3.03 25.43,-55.52 55.62,-111.51 91.11,-162.39 -7.03,-4.65 -14.8,-9.67 -23.83,-12.72 10.06,0 19.74,2 29.51,2 34.08,-51.53 73.26,-101.07 115.5,-149.28 -6.08,-3.03 -13.76,-8.73 -21.84,-13.76 10.07,2 19.84,5.03 29.15,7.69 42.23,-46.12 88.44,-91.39 136.94,-128.21 -4.65,-7.69 -11.67,-14.32 -18.42,-18.7 9.68,3.31 18.42,5.98 27.43,11.01 48.59,-38.82 100.78,-74.69 154.41,-105.43 -4.08,-8.07 -9.02,-13.76 -14.71,-21.74 7.69,5.98 17.75,10.72 24.38,15.37 54.95,-30.84 112.46,-57.22 171.11,-78.67 -3.03,-8.06 -8.06,-15.75 -12.72,-24.77 7.7,7.7 14.71,15.09 22.41,19.74 58.93,-21.07 118.52,-39.86 180.78,-52.58 -2,-8.05 -3.98,-15.75 -7.69,-24.38 5.69,7.7 12.72,15.66 18.42,23.45 61.96,-14.81 123.56,-20.79 186.76,-23.45 -0.94,-8.06 -1.99,-17.09 -3.98,-26.47 5.03,9.38 11.1,18.41 15.75,24.38 17.75,0 34.46,0 52.58,0 45.18,0 91.01,2.09 134.2,7.79 1.04,-8.73 1.04,-16.81 0,-27.52 4.07,10.71 7.78,18.78 11.77,27.52 62.24,7.98 124.22,18.69 184.76,34.45 2,-6.07 2.67,-15.76 3.71,-24.48 1.99,8.72 3.98,19.45 7.02,27.53 60.65,18.41 120.24,40.8 175.76,65.29 4.08,-8.06 7.02,-17.76 9.01,-24.48 0,8.73 1.05,19.45 2.75,28.75 56.56,26.48 111.41,56.95 163.32,89.41 4.75,-5.7 8.73,-13.67 12.72,-21.36 -1.99,9.68 -2.94,20.4 -2.94,29.41 51.54,35.78 101.74,74.03 147.57,114.56 5.7,-6.08 11.77,-12.06 16.42,-21.84 -2.66,11.11 -5.69,20.42 -6.64,31.51 45.18,41.86 87.98,86.75 128.22,135.62 5.69,-7.4 11.67,-11.76 18.41,-19.82 -3.7,11.1 -8.73,19.82 -11.77,27.52 38.91,48.49 73.36,100.79 105.82,156.31 6.74,-5.7 14.71,-8.73 21.06,-15.09 -5.69,7.4 -11.39,17.09 -16.42,25.14 31.22,53.91 58.66,109.53 80.1,169.78 7.98,-2.74 15.66,-7.4 23.73,-12.71 -7.02,7.97 -13.76,14.32 -19.74,22.39 22.4,58.93 38.82,118.82 52.58,181.08 7.97,-2 16.7,-4.94 25.71,-9.97 -9.01,7.98 -16.69,14.33 -23.73,20.69 12.73,60.93 19.74,123.57 23.73,187.14 7.79,-1.33 16.42,-2.66 26.48,-4.26 -10.06,4.26 -18.7,10.63 -25.42,15.66 0,16.42 0,35.21 0,52.29 0,45.18 -2,89.4 -7.04,134.19 8.73,2 16.71,2 26.48,2 -9.77,1.71 -18.78,6.08 -27.52,9.39zm1068.33 -145.58c-300.94,74.31 -626.74,-165.79 -905.29,-114.84 0,-3.03 0,-7.79 -0.95,-8.73 268.86,-129.25 714.8,13.76 877.19,-241.43 -284.62,121.85 -641.17,-63.58 -908.03,29.14 -0.95,-5.04 -0.95,-7.7 -3.04,-12.72 245.14,-163.99 705.52,-95.76 826.04,-371.27 -261.17,164.08 -640.22,38.53 -890.57,168.73 -1.04,-4.65 -3.03,-9.39 -4.07,-11.1 215.99,-200.53 679.31,-205.56 754.67,-494.82 -231.67,202.24 -623.7,138.65 -850.43,305.02 -2,-3.7 -5.03,-7.97 -7.03,-12.72 183.83,-231 637.47,-306.35 665.55,-604.25 -195.49,235.65 -590.86,235.65 -790.45,432.18 -2.93,-3.02 -5.69,-7.68 -8.63,-10.72 147.29,-255.48 580.52,-400.77 562.78,-700.1 -157.07,263.55 -547.12,325.81 -712.82,550.15 -2.67,-3.69 -7.31,-6.74 -10.34,-9.77 107.43,-273.51 508.2,-487.42 445.56,-775.36 -114.45,282.24 -487.8,404.1 -617.62,650.47 -3.03,-3.61 -7.78,-6.37 -12.72,-7.7 65.58,-286.6 426.11,-557.75 318.68,-832.96 -68.33,293.63 -416.53,473.37 -506.21,735.21 -5.03,-1.62 -10.73,-3.04 -15.75,-5.03 20.78,-290.88 333.11,-616.02 183.83,-871.12 -19.74,303.32 -336.43,533.65 -384.35,806.87 -5.7,-1.99 -10.73,-3.69 -15.38,-3.69 -24.77,-290.6 232.69,-661.2 45.83,-888.21 25.15,301.33 -249.4,579.87 -255.09,857.46 -5.03,-2.09 -11.1,-2.09 -15.75,-2.09 -70.33,-284.24 127.26,-687 -94.05,-885.17 73.65,293.92 -155.07,612.99 -116.82,887.26 -5.04,1.33 -10.73,1.33 -15.76,1.33 -114.55,-269.25 17.75,-699.72 -231.66,-858.78 119.11,278.54 -57.6,628.45 23.45,892.86 -5.04,2.08 -9.78,3.03 -14.81,4.36 -155.36,-249.02 -92.72,-694.69 -363.58,-812.19 161.06,256.81 41.19,631.78 163.05,880.89 -3.7,2.94 -9.4,4.94 -13.38,7.98 -193.51,-223.3 -201.19,-673.63 -486.76,-747.93 199.49,227.39 138.56,618.67 301.32,845.02 -5.03,1.71 -9.1,4.75 -13.75,7.69 -225.97,-186.77 -304.36,-634.71 -600.27,-662.52 234.7,197.21 234.7,591.25 432.19,791.11 -3.03,1.71 -7.02,4.65 -10.06,9.01 -255.09,-148.61 -401.73,-581.84 -699.05,-565.14 263.16,158.77 323.8,553.1 551.39,717.18 -2.94,3.04 -4.94,5.99 -8.64,11.02 -275.88,-105.44 -488.47,-512.58 -779.06,-449.56 284.52,116.45 406.37,497.48 657.87,622.66 -2,2.67 -4.07,6.36 -5.69,9.4 -290.6,-57.22 -565.15,-428.87 -843.69,-320.11 299.99,69.37 481.07,428.58 749.55,511.91 -0.95,3.03 -2,6.07 -3.61,10.72 -295.34,-9.01 -626.74,-337.1 -885.91,-185.44 309,21.45 543.41,351.23 823.95,388.72 -1.05,2.94 -2,7.31 -2,11.01 -294.01,38.15 -674.01,-235.65 -908.03,-44.89 310.05,-26.38 595.61,264.22 878.9,255.19 0,2.94 -1.04,5.98 -1.04,9.02 -284.24,88.72 -704.75,-125.57 -906.23,100.78 303.31,-74.4 630.73,167.03 911.26,112.75 0,3.03 0,6.45 0,9.77 -266.77,133.24 -718.8,-15.75 -882.88,242.67 289.65,-123.85 652.93,68.32 920.75,-33.79 0,3.32 0.95,6.36 0.95,8.35 -241.34,175.76 -713.39,99.45 -835.62,379.99 265.82,-167.04 656.91,-34.08 905.93,-176.42 1.06,1.71 2,3.03 3.04,4.74 -209.93,214.58 -691.66,211.53 -769,508.87 238.39,-208.59 647.15,-133.62 869.79,-320.1 0.94,3.02 2,4.74 3.03,6.74 -172.16,245.42 -652.18,320.39 -681.32,625.41 202.15,-243.81 619.72,-235.74 809.15,-452.69 2,0 4.08,0 4.08,3.04 -129.26,272.56 -595.33,419.84 -576.91,726.19 162.38,-272.56 578.91,-328.18 731.22,-575.87 2,1.33 3.04,1.33 3.04,3.04 -83.04,291.26 -521.97,509.15 -457.34,811.13 120.15,-295.63 521.96,-416.15 634.04,-685.58 1.05,1.62 2,1.62 3.04,2.94 -36.82,300.37 -437.88,584.89 -324.38,873.2 70.23,-309.67 450.6,-492.55 517.89,-776.79 1.04,2 3.03,2 3.98,3.04 11.77,303.31 -341.08,645.15 -184.78,912.97 21.46,-319.07 368.61,-557.37 390.06,-848.34 1.99,0 3.03,0 3.98,1.71 59.32,297.24 -235.64,694.03 -39.1,933.37 -27.53,-318.69 277.49,-610.04 253.11,-899.31 0,0 2.94,0 3.98,0 105.44,283.29 -125.18,721.56 107.15,925.78 -77.06,-308.05 179.46,-642.49 108.76,-925.78 0,0 2.75,0 3.7,0 150.05,264.87 -9.68,730.57 252.44,899.31 -125.18,-295.34 74.32,-663.57 -37.2,-933.37 1.05,0 3.03,-1.71 4.09,-1.71 186.47,240.01 103.44,724.87 387.01,848.34 -168.08,-268.87 -29.51,-666.89 -180.79,-912.97 1.05,-1.05 1.99,-3.04 3.98,-3.04 220.65,206.89 215.63,697.73 514.95,776.79 -208.21,-240.1 -133.9,-649.89 -321.43,-874.52 1.99,0 1.99,-1.62 3.69,-1.62 251.12,170.73 321.44,654.83 629.39,685.58 -243.32,-202.81 -233.64,-622 -453.25,-812.85 0.95,0 2.94,-1.33 3.98,-2.66 272.56,129.93 418.16,595.91 726.87,577.2 -270.56,-162.1 -328.46,-574.55 -572.83,-729.24 1.99,-1.61 3.98,-1.61 5.02,-3.03 287.55,87.13 505.17,519.97 804.12,455.73 -291.26,-118.54 -412.07,-514.28 -674.95,-630.45 1.04,-1.7 1.04,-3.03 3.03,-5.02 296.66,43.84 579.2,434.94 863.81,323.42 -305.69,-70.98 -487.81,-439.31 -763.69,-514.94 1.04,-2 1.99,-5.04 1.99,-7.7 300.38,0 638.79,338.81 901.68,185.44 -312.05,-21.35 -548.44,-354.56 -832.02,-390.05 1.05,-2.94 2,-4.65 2,-7.69 296.01,-44.8 678.94,235.74 915.06,43.18 -310.05,26.19 -594.67,-263.07 -877.85,-255.38 0,-3.03 0,-6.36 0,-9.11 284.23,-88.64 705.69,125.56 906.89,-100.69z"/>
   <path class="fil2" d="M3615.43 3026.94c-176.8,-74.31 -368.22,-117.5 -569.8,-125.56 -15.75,15.75 -31.5,29.13 -46.21,44.88 191.8,7.7 374.68,51.26 542.75,121.19 24.38,-13.75 47.83,-28.46 73.26,-40.51z"/>
   <path class="fil2" d="M4344.66 2831.72c-169.11,-126.89 -379.32,-199.87 -606.34,-199.87 -226.35,0 -436.55,72.97 -607.66,199.87 215.24,9.39 419.19,55.99 607.66,136 187.81,-80.01 392.99,-126.6 606.34,-136z"/>
   <path class="fil2" d="M3443.65 3129.05c-156.68,-64.63 -325.71,-106.47 -502.51,-117.2 -12.06,13.38 -22.77,27.15 -33.5,41.85 168.45,13.75 328.46,55.24 476.13,118.53 19.36,-13.66 39.19,-27.42 59.88,-43.18z"/>
   <path class="fil2" d="M3883.23 3412.61c-20.68,15.38 -41.18,32.17 -60.55,49.26 290.23,274.18 474.71,661.57 483.72,1093.37 32.17,-20.68 63.68,-43.46 92.82,-68.22 -26.19,-427.54 -219.7,-806.87 -515.99,-1074.41z"/>
   <path class="fil2" d="M3933.83 3067.45c169.39,-69.93 353.22,-113.5 543.69,-121.19 -15.37,-15.75 -31.13,-29.13 -46.88,-44.88 -201.47,8.05 -392.98,51.24 -568.75,125.56 24.38,12.06 48.87,26.76 71.94,40.51z"/>
   <path class="fil2" d="M4054.35 3296.46c-24.48,13.37 -47.83,29.13 -71.27,46.49 290.21,252.16 492.73,607.39 549,1008.82 29.51,-33.5 55.9,-70.99 81.34,-111.5 -78.3,-374.3 -278.54,-704.09 -559.07,-943.81z"/>
   <path class="fil2" d="M3303.76 3235.53c-136,-59.98 -283.56,-103.45 -437.98,-120.24 -102.78,162.38 -163.03,357.97 -163.03,564.86 0,125.18 22.11,244.75 61.31,355.88 103.83,-315.74 292.3,-591.25 539.71,-800.51z"/>
   <path class="fil2" d="M4092.5 3172.22c148.33,-63.29 308.72,-104.77 477.08,-118.53 -10.72,-14.7 -22.78,-28.47 -33.5,-41.85 -177.76,10.73 -346.77,52.57 -502.52,117.2 19.74,15.76 39.21,29.51 58.94,43.18z"/>
   <path class="fil2" d="M3308.41 4587.43c0,15.37 1.05,31.12 1.05,46.5 131.24,59.32 275.5,92.82 428.87,92.82 152.6,0 297.23,-33.5 428.49,-92.82 0,-15.38 0,-31.13 0,-46.5 0,-408.47 -164.38,-779.06 -428.49,-1047.92 -265.82,268.86 -429.92,639.45 -429.92,1047.92z"/>
   <path class="fil2" d="M3738.33 3084.16c-24.1,13.76 -49.54,26.48 -72.98,39.87 23.45,14.42 48.88,26.47 72.98,40.51 24.77,-14.04 49.16,-26.09 74.59,-40.51 -24.38,-13.38 -49.82,-26.1 -74.59,-39.87z"/>
   <path class="fil2" d="M4173.55 3235.53c246.37,209.26 435.89,484.77 538.67,800.51 40.14,-111.13 61.31,-230.71 61.31,-355.88 0,-206.89 -59.6,-402.49 -162.1,-564.86 -154.31,16.79 -302.26,60.26 -437.88,120.24z"/>
   <path class="fil2" d="M3654.24 3461.87c-20.03,-17.09 -39.77,-33.88 -60.27,-49.26 -296.29,267.54 -489.79,646.87 -515.89,1074.41 29.15,24.76 60.26,47.54 91.77,68.22 8.64,-431.8 193.13,-819.2 484.39,-1093.37z"/>
   <path class="fil2" d="M3677.02 3341.35c21.45,15.76 41.18,31.12 61.31,46.21 19.73,-15.09 40.52,-30.45 60.93,-46.21 -19.73,-16.8 -40.14,-32.46 -60.93,-46.6 -20.12,14.14 -40.9,29.8 -61.31,46.6z"/>
   <path class="fil2" d="M3494.23 3342.96c-24.38,-17.37 -47.83,-33.12 -72.31,-46.49 -279.59,239.72 -480.11,569.51 -558.13,943.81 24.48,40.51 51.63,78 80,111.5 57.6,-401.43 259.19,-756.66 550.44,-1008.82z"/>
   <path class="fil2" d="M3838.07 3229.84c21.73,13.76 41.18,29.41 60.93,44.9 23.45,-15.48 48.6,-31.13 74.31,-43.19 -20.69,-15.47 -41.19,-29.51 -60.56,-43.56 -25.42,12.43 -50.2,26.1 -74.68,41.85z"/>
   <path class="fil2" d="M3503.91 3231.54c24.48,12.06 49.93,27.71 72.31,43.19 21.45,-15.48 41.19,-31.13 61.97,-44.9 -24.77,-15.75 -48.21,-29.42 -74.69,-41.85 -19.36,14.04 -39.86,28.09 -59.6,43.56z"/>
  </g>
 </g>
</svg>
