<?xml version="1.0" encoding="UTF-8"?>
<!DOCTYPE svg PUBLIC "-//W3C//DTD SVG 1.1//EN" "http://www.w3.org/Graphics/SVG/1.1/DTD/svg11.dtd">
<!-- Creator: CorelDRAW 2020 (64-Bit) -->
<svg xmlns="http://www.w3.org/2000/svg" xml:space="preserve" width="76.4296mm" height="76.4296mm" version="1.1" style="shape-rendering:geometricPrecision; text-rendering:geometricPrecision; image-rendering:optimizeQuality; fill-rule:evenodd; clip-rule:evenodd"
viewBox="0 0 8253.2 8253.2"
 xmlns:xlink="http://www.w3.org/1999/xlink"
 xmlns:xodm="http://www.corel.com/coreldraw/odm/2003">
 <defs>
  <style type="text/css">
   <![CDATA[
    .fil0 {fill:#FEFEFE;fill-rule:nonzero}
    .fil2 {fill:#F7CA27;fill-rule:nonzero}
    .fil1 {fill:#57ADC6;fill-rule:nonzero}
   ]]>
  </style>
 </defs>
 <g id="Layer_x0020_1">
  <metadata id="CorelCorpID_0Corel-Layer"/>
  <g id="_2263720542224">
   <path class="fil0" d="M4126.6 0c2279.06,0 4126.6,1847.54 4126.6,4126.6 0,2279.06 -1847.54,4126.6 -4126.6,4126.6 -2279.06,0 -4126.6,-1847.54 -4126.6,-4126.6 0,-2279.06 1847.54,-4126.6 4126.6,-4126.6z"/>
   <path class="fil1" d="M4058.44 8252.34l136.32 0c2247.59,-36.44 4058.44,-1869.47 4058.44,-4125.74 0,-2279.06 -1847.54,-4126.6 -4126.6,-4126.6 -2279.06,0 -4126.6,1847.54 -4126.6,4126.6 0,2256.27 1810.85,4089.29 4058.44,4125.74z"/>
   <path class="fil2" d="M4039.25 5562.94c-1127.95,3.59 -1919.36,-899.32 -1991.43,-1804.16 0,0 -44.55,-16.22 -51.43,23.92 -12.32,95.29 27.91,390.16 12.01,370.24 -26.49,-38.81 -232.97,-588.31 -269.52,-529.99 -50.3,80.08 229.99,707.41 213.66,727.33 -56.47,66.63 -377.73,-613.17 -403.81,-562.85 -98.15,190.86 396.94,807.31 393.75,832.67 -10.16,81.53 -377.11,-331.73 -407.92,-288.61 -69.51,100.31 395.19,465.73 418.7,494.36 72.49,81.83 -253.18,-147.44 -263.24,-67.35 -8.33,63.34 157.91,196.3 256.37,252.06 99.7,56.57 131.52,39.84 160.17,88.81 20.95,36.15 -186.96,-24.33 -180.4,20.64 10.16,91.28 227.83,72.8 259.66,112.95 33.68,39.84 -147.43,9.85 -138.72,43.12 11.61,58.73 194.88,67.35 197.44,92.7 3.6,25.37 -115.6,8.33 -108.01,54.73 6.58,42.01 186.96,34.1 230.41,63.76 44.55,30.39 -161.2,3.28 -1.86,82.54 160.16,80.09 342.72,168.8 592.22,217.67 250.32,49.69 377.11,-5.03 386.86,-22.07 9.03,-14.79 -118.79,13.75 -295.9,-18.08 -177.11,-33.68 -414.39,-144.56 -510.69,-203.19 -30.81,-14.88 94.15,-51.43 68.07,-86.54 -26.8,-34.1 -126.81,5.03 -165.21,-43.85 -25.37,-31.93 47.85,-31.93 45.28,-51.84 -1.75,-18.49 -138.3,-50.01 -162.22,-85.84 -25.35,-33.27 60.78,-26.8 65.2,-50.31 2.46,-16.33 -86.25,-46.41 -91.99,-68.48 -7.6,-23.51 97.74,-17.04 49.28,-44.87 -52.57,-30.08 -196,-65.61 -222.8,-117.35 -26.8,-48.57 109.04,6.87 73.52,-40.26 -23.93,-33.26 -155.76,-88.71 -183.27,-164.48 -18.48,-51.75 93.84,-6.16 95.59,-40.15 1.44,-51.84 -66.23,-18.16 -88,-166.93 -7.59,-48.98 86.97,-15.6 86.97,-15.6l14.48 -24.65c0,0 109.76,60.17 252.77,227.42 143.13,165.92 183.27,321.69 318.08,434 65.51,55.34 67.36,-20.32 212.95,70.22 146.31,92 206.78,155.45 360.07,286.57 21.66,18.07 121.26,-18.49 415.41,43.43 159.05,33.67 190.57,115.5 190.57,115.5 0,3.29 89.01,-53.18 131.11,-115.5 16.62,-26.49 33.26,-1.85 38.4,-6.17 15.91,-15.6 -2.58,-35.52 -2.58,-35.52l0 0z"/>
   <path class="fil2" d="M1968.57 5110.98c-26.08,0 -32.24,2.87 -33.78,6.47 5.85,51.44 88.81,65.2 154.01,78.23 50.3,7.29 88.7,13.76 103.9,32.24l2.87 5.03 2.27 15.29c-7.61,14.79 -34.4,14.79 -77.94,16.23 -22.07,1.85 -61.18,4 -65.49,10.15 5.74,28.65 75.25,47.14 125.67,60.18 47.74,11.6 71.36,18.79 72.79,33.97 2.56,18.18 -23.51,21.36 -50.01,25.37 -21.04,4.42 -47.12,8.01 -56.15,18.17 0.71,28.24 65.9,36.87 113.04,41.58 47.12,6.88 90.87,11.61 112.31,25.05l10.06 18.79c-2.87,9.75 -17.04,12.01 -36.13,16.32 -9.15,1.44 -30.08,5.03 -33.37,10.17 0,0 0,11.61 56.47,38.71 140.97,69.92 332.86,167.35 589.76,216.22 66.94,14.89 129.56,21.06 188.29,21.06 121.35,0 183.68,-29.67 189.44,-40.26l-38.71 10.58c-18.17,0 -39.94,1.74 -65.2,1.74 -66.02,0 -126.49,-6.87 -185.84,-17.04 -183.27,-32.96 -425.99,-148.47 -513.96,-202.47 -8.74,-25.67 6.47,-33.68 25.66,-46.3 17.76,-10.46 39.53,-27.51 42.09,-36.24 -11.3,-19.92 -36.24,-19.92 -63.75,-19.92 -37.68,-1.12 -78.65,-1.12 -102.16,-31.52l-7.59 -21.36c3.19,-13.76 18.48,-19.2 31.83,-25.35 5.84,-3.29 18.48,-7.18 19.2,-10.16 -4.02,-4.72 -35.84,-16.64 -59.35,-27.1 -43.54,-13.04 -88.81,-31.53 -102.16,-53.6l-5.14 -21.46c4.43,-11.5 21.78,-16.94 40.26,-23.1 8.31,-2.15 27.51,-7.6 27.51,-12.32 -2.57,-4.42 -22.48,-14.89 -36.54,-23.62 -30.08,-16.63 -51.14,-26.39 -55.45,-41.27 7.6,-22.39 23.21,-25.67 40.97,-28.54 7.59,-2.27 20.23,-5.44 22.39,-6.88 -26.4,-15.31 -52.47,-23.62 -79.98,-35.53 -62.74,-23.21 -135.84,-51.84 -155.04,-88.71l-1.85 -4.72 0 -20.34c9.45,-15.18 31.93,-9.74 51.85,-8l19.51 0c-3.28,-16.63 -23.22,-30.4 -48.57,-48.15 -49.18,-33.98 -110.78,-72.38 -129.57,-125.97 -3.69,-10.58 -3.69,-18.9 0.72,-25.37 7.18,-10.16 23.09,-11.6 38.4,-11.6l32.54 1.44c9.45,0 21.06,-1.44 21.78,-6.89 0,-14.88 -6.58,-20.32 -19.92,-29.66 -21.06,-16.74 -53.59,-42.1 -67.76,-135.83 -0.72,-9.86 0.71,-17.04 6.47,-23.93 17.75,-21.05 89.83,-0.72 91.27,-0.72l3.28 -22.48 0 0c17.76,0 126.81,62.63 268.38,226.4 63.45,74.95 106.88,145.99 147.85,214.79 48.87,81.11 95.59,158.32 169.51,220.95 19.92,16.33 32.55,18.07 46.71,18.07l29.26 0c26.9,0 63.45,6.58 135.83,50.72 114.49,71.77 177.11,125.67 272.09,209.35l87.99 76.8c4,4.32 22.49,4.32 30.08,4.32l53.59 -1.03c62.63,0 165.21,5.03 328.14,38.4 161.91,33.68 196,117.35 197.75,120.22 0,-6.16 77.2,-63.34 116.32,-116.94 6.17,-12.02 14.48,-16.74 22.78,-16.74l17.36 4.72 1.84 -24.63 -6.87 8.73c-1155.48,0 -1919.36,-916.77 -1992.87,-1806.02 -2.57,0 -6.88,0 -11.61,0 -13.03,0 -20.21,3.29 -22.07,18.18 -7.29,52.16 1.86,169.1 7.6,254.62 8.31,99.18 10.16,114.49 3.6,118.8 -23.51,-13.04 -43.85,-60.17 -78.96,-145.28 -53.59,-124.24 -162.64,-381.75 -192.72,-383.9 -30.7,48.87 83.69,348.47 150.72,526.3 63.76,165.09 71.36,192.61 63.76,199.18l-16.64 8.73c-43.53,0 -126.49,-135.83 -248.15,-345.18 -58.33,-102.57 -126.08,-219.92 -143.75,-224.95 -67.77,139.43 202.47,530.6 333.17,720.45 56.16,83.68 67.05,98.87 65.91,108.21l-0.72 8.74 -18.48 10.46c-31.52,0 -100.31,-60.06 -209.35,-157.18 -72.79,-69.1 -157.19,-146.32 -179.98,-146.32 -52.58,77.22 265.81,350.32 369.4,439.03 26.8,23.51 44.25,38.71 48.57,43.12 9.75,11.92 14.06,20.24 11.6,27.53 -21.77,4.31 -45.28,-5.14 -90.56,-30.08 -55.75,-26.79 -131.11,-67.05 -168.07,-67.05 -12.73,0 -14.18,8.01 -15.2,9.45 -6.58,57.6 145.17,182.96 252.78,243.43 41.27,24.96 73.2,36.96 93.84,43.02 31.11,10.9 51.03,18.49 69.51,48.98 -8.31,50.3 -44.87,26.07 -82.96,21.66 -21.65,-3.19 -43.01,-4.62 -62.21,-4.62l0 0zm1178.57 705.87c-59.45,0 -123.92,-7.9 -191.59,-19.5 -259.36,-52.17 -452.07,-149.6 -593.64,-219.21 -49.28,-25.37 -68.08,-40.15 -65.2,-56.78 0.71,-14.89 23.92,-20.33 46.71,-23.62 8.31,-1.74 19.92,-3.6 22.8,-7.19 -21.06,-9.44 -65.51,-14.89 -109.04,-20.32 -66.95,-7.59 -124.55,-16.33 -128.23,-44.87l-1.44 -1.86 6.57 -19.5c11.6,-17.04 41.58,-22.18 65.91,-25.78 13.77,-2.87 33.68,-6.16 36.25,-9.45 -4.01,-5.43 -36.25,-11.59 -60.58,-19.2 -57.5,-14.77 -128.56,-31.51 -137.99,-73.5 12.73,-24.64 38.4,-26.8 81.52,-26.8 21.36,-1.03 58.31,-1.03 62.64,-8.73 -12.63,-16.22 -54.32,-22.8 -94.46,-29.26 -76.5,-13.75 -161.92,-28.64 -169.2,-89.12 21.35,-43.12 63.75,-28.23 114.47,-22.8 19.2,1.04 37.69,3.19 51.02,3.19 0,-25.67 -14.78,-28.95 -44.14,-40.55 -23.51,-8.31 -54,-18.49 -97.02,-43.12 -92.4,-52.17 -270.95,-189.45 -260.79,-261.82 1.03,-10.17 6.89,-25.05 31.12,-25.05 40.23,0 116.22,40.25 174.95,69.92 30.4,15.29 65.5,33.68 73.52,33.68 -18.08,-9.76 -35.12,-25.37 -60.89,-45.29 -214.38,-185.42 -426.29,-383.17 -372.69,-462.12 41.27,-8.74 105.74,48.86 206.15,140.85 75.27,67.36 169.83,154.02 197.34,154.02 1.86,-11.61 -28.95,-53.6 -60.78,-100.41 -131.52,-191.18 -406.47,-589.95 -329.27,-738.83 33.67,-8.33 70.95,55.44 168.38,222.69 77.93,134.41 196.72,340.47 233.68,340.47 2.47,-13.36 -30.08,-102.48 -62.32,-187.89 -101.03,-264.08 -181.52,-488.62 -149.59,-540.77 43.43,-8.42 109.34,125.25 221.25,388.19 25.06,55.45 46,105.76 56.58,129.38 -5.85,-18.48 -8.33,-58.73 -12.73,-95.29 -5.45,-92.7 -14.48,-204.62 -7.19,-260.07 2.46,-21.76 17.76,-32.95 38.7,-32.95 11.61,0 22.49,4.31 23.22,4.31 74.64,889.24 832.37,1800.87 1981.26,1800.87 14.06,5.14 24.22,17.04 24.22,31.93l0 2.87 -10.16 17.05 -13.03 -8.31 -13.36 5.43c-50.3,68.39 -137.67,128.56 -147.73,128.56 -9.86,-15.2 -48.26,-88.72 -192.41,-118.79 -161.92,-32.24 -262.95,-37.27 -324.86,-37.27l-53.59 0c-21.77,0 -33.68,0 -42,-7.71l-86.96 -73.82c-94.56,-83.68 -155.76,-139.12 -271.26,-211.51 -67.05,-41.68 -102.89,-44.55 -125.78,-44.55l-29.26 0c-17.76,0 -34.4,-3.69 -58.01,-23.21 -76.07,-65.6 -122.08,-142.71 -173.1,-227.11 -40.26,-67.76 -82.96,-136.97 -146.32,-212.63 -140.14,-162.22 -250.62,-225.98 -252.15,-225.98l-1.04 23.92c-10.87,4.31 -39.52,-5.44 -63.75,-5.44 -9.76,0 -17.35,1.45 -21.06,5.44 10.17,98.16 39.54,118.38 59.46,135.42 15.19,10.17 27.92,19.61 26.39,43.12 -1.04,22.08 -27.83,22.08 -38,22.08l-32.54 0c-17.46,0 -22.49,1.44 -24.34,3.28 17.76,58.62 78.66,99.59 123.92,129.27 27.1,18.17 48.88,31.51 57.91,45.28l3.28 4.72 2.57 18.48c-4.42,8.74 -14.88,8.74 -24.33,8.74l-42 -2.27c4.31,42.1 76.39,71.78 133.26,95.29 30.49,10.58 56.16,20.33 73.52,30.49 8.73,3.17 18.89,11.91 17.05,22.08 -2.58,11.59 -16.33,14.77 -35.12,18.05 -9.45,2.17 -24.96,6.89 -27.94,10.17 2.98,6.88 28.65,19.91 46.72,30.08 28.64,14.78 47.11,27.51 45.68,39.84 -1.85,17.04 -21.76,22.48 -39.52,27.51 -10.78,2.87 -28.54,7.6 -29.98,11.2 14.06,23.92 61.18,42.08 97.02,57.29 47.84,16.23 68.79,26.8 70.22,40.15 1.86,13.44 -15.19,19.91 -29.26,27.21 -6.57,1.02 -19.2,8.3 -20.64,13.03 20.64,30.08 57.5,30.08 92.72,31.83 31.11,0 61.19,0 75.27,19.91l5.13 18.48c-3.28,18.17 -26.8,34.09 -48.57,46.71 -10.87,6.89 -26.08,18.9 -26.79,22.18 86.96,48.46 325.68,166.23 508.53,195.6 57.6,11.49 117.06,18.37 182.25,18.37 25.26,0 47.03,-1.75 64.38,-1.75l28.65 -1.12c15.19,0 21.76,1.12 26.07,6.58 -9.44,26.38 -78.95,57.9 -204.62,57.9l0 0z"/>
   <path class="fil2" d="M4797.39 5899.81c-41.38,-8.74 -36.96,23.2 -36.96,23.2 3.19,40.15 -26.07,85.84 -59.75,94.15 -26.8,4.73 -13.04,24.64 -21.77,43.13l-109.76 -5.45c-173.1,94.15 -391.59,128.24 -653.1,97.45 0,0 -55.34,41.68 -102.78,83.27 -49.27,45.69 -83.68,55.85 -93.13,89.53 -10.15,36.55 24.96,53.59 70.23,55.03 45.28,1.85 104.01,-39.84 104.01,-39.84 0,0 8.31,32.96 49.59,38.4 41.69,3.28 117.06,-25.37 117.06,-25.37 0,0 63.66,28.65 112.93,22.07 46.72,-7.28 88.82,-36.95 88.82,-36.95 0,0 12.62,55.03 61.19,57.3 47.43,3.19 121.35,-59.46 121.35,-59.46 0,0 36.14,42.41 80.39,35.12 45.28,-4.31 98.16,-58.32 98.16,-58.32 0,0 55.03,25.37 106.05,8.31 52.17,-14.47 102.57,-66.94 102.57,-66.94 0,0 44.87,38.71 86.86,23.93 40.97,-13.76 69.61,-72.08 69.61,-72.08 0,0 110.48,46.3 185.02,7.9 51.13,-23.51 38.4,-105.04 38.4,-105.04 0,0 305.05,43.13 292.31,-156.06 -1.75,-21.76 -492.23,-15.6 -707.32,-53.28l0 0z"/>
   <path class="fil2" d="M4256.93 6331.54c14.17,8.73 26.08,55.44 67.05,55.44l2.45 8.74 0 -7.71c43.54,0 113.77,-58.21 114.9,-58.21 11.61,1.75 40.15,33.99 77.11,33.99 47.43,-5.45 99.59,-55.75 101.03,-55.75 6.58,0 38.81,10.46 73.92,10.46 12.33,0 24.23,0 34.4,-5.44 50,-14.77 97.84,-63.34 97.84,-63.34 6.88,1.44 42.72,24.96 74.23,24.96 53.91,-16.64 80.39,-70.23 80.39,-70.23 13.76,-5.44 67.35,16.32 123.1,16.32 26.9,0 48.26,-4.72 66.33,-13.44 46.41,-19.92 33.68,-96.72 33.68,-96.72 9.03,-8.62 37.68,-6.87 76.07,-6.87l0 0c61.19,0 143.42,-8.33 186.87,-55.04 21.76,-24.94 32.64,-54 29.35,-95.59 -9.44,-1.85 -114.79,-4.72 -216.94,-10.16 -161.5,-6.57 -362.54,-13.76 -484.3,-34.81l-22.39 1.14c0.72,56.88 -30.08,105.74 -68.89,114.47 -10.47,2.46 -11.2,5.74 -11.2,18.07 -1.12,4.73 -1.12,15.19 -5.43,21.77l-117.36 -1.54c-168.38,95.7 -390.05,127.52 -654.54,100.41 1.44,1.44 -49.59,40.15 -95.6,81.83 -18.48,14.88 -33.67,26.8 -47.11,35.12 -24.23,18.9 -37.99,27.51 -44.57,47.44 -2.16,9.44 -2.16,16.33 2.98,23.2 9.03,11.61 31.82,20.33 60.06,21.36 0.72,0 0.72,0 0.72,0 43.83,0 98.15,-38.4 98.87,-39.84 13.76,6.88 20.32,33.37 54.73,36.55 0.71,0 0.71,0 0.71,0 46,0 111.19,-23.51 112.33,-23.51 7.6,0 56.89,22.48 101.44,22.48 58.32,-5.44 97.75,-35.53 97.75,-35.53l0 0zm69.5 73.52l-3.17 0c-44.57,-3.19 -62.02,-43.43 -67.45,-60.47 -4.63,11.59 -39.85,34.08 -81.84,38.8 -57.9,-1.44 -113.76,-21.76 -117.36,-21.76 3.6,0 -62.62,25.35 -105.34,25.35 -42.82,-3.6 -58.73,-26.79 -63.76,-43.83 -5.12,13.02 -54.31,44.86 -94.55,44.86 -36.55,-1.03 -63.35,-11.49 -75.36,-26.38 -7.59,-11.61 -10.17,-25.37 -5.74,-40.26 7.59,-23.09 24.94,-36.86 52.16,-55.02 11.6,-10.49 25.67,-19.92 43.12,-35.12 49.6,-41.69 104.62,-85.53 104.62,-85.53 66.33,5.14 124.96,8.42 181.83,8.42 181.83,0 340.16,-35.93 472.29,-107.6l113.05 5.43c-4.01,-23.61 -3.29,-36.96 20.23,-43.12 30.08,-8.73 55.86,-48.87 54.42,-85.84 -0.72,0 -3.29,-13.75 5.02,-23.2 6.57,-7.3 15.2,-11.61 26.8,-11.61 132.55,25.37 333.27,32.96 494.06,37.68 217.66,8.33 232.13,11.61 233.58,25.37 2.56,45.59 -8.31,80.39 -35.12,109.04 -47.44,50.3 -133.99,61.91 -198.46,61.91l0 0c-33.37,0 -57.6,-4 -65.92,-4.72 9.05,6.57 16.33,81.52 -36.24,105.03 -60.06,30.08 -175.67,-3.59 -190.15,-8.31 3.28,6.57 -24.23,60.48 -66.32,72.49 -36.55,11.61 -85.11,-19.2 -92.72,-25.35 1.44,8.31 -45.28,55.02 -94.45,68.47 -45.29,13.36 -106.57,-6.57 -113.46,-8.42 3.7,3.7 -47.43,54 -93.73,60.58 -0.72,0 -0.72,0 -0.72,0 -48.56,0 -80.39,-34.08 -85.52,-40.66 1.85,8.73 -65.92,63.76 -113.77,63.76l0 0z"/>
   <path class="fil2" d="M4146.45 5687.17c0,0 88.71,-35.42 245.18,-65.5 296.01,-62.73 398.06,-42.41 418.7,-60.47 233.69,-260.07 405.77,-279.99 574.56,-347.04 135.73,-113.75 180.29,-275.98 323.41,-441.89 142.3,-165.92 227.83,-179.26 227.83,-179.26l18.49 36.55c0,0 76.8,-56.89 72.79,-8.74 -6.16,74.64 -67.05,144.98 -63.76,195.29 1.86,33.26 104.63,-14.17 95.59,14.48 -24.23,79.36 -107.19,125.66 -129.68,157.59 -36.84,50.72 93.44,-17.04 66.65,33.68 -26.8,51.75 -157.51,103.6 -208.64,135.42 -31.41,18.48 34.5,23.21 27.92,45.69 -6.88,22.8 -140.55,73.11 -139.12,90.16 2.57,23.2 35.94,24.94 20.32,41.68 -28.65,31.82 -140.14,35.12 -141.58,55.33 -1.86,22.18 23.1,38.82 -1.86,70.64 -39.52,50 -69.5,0 -86.24,40.25 -8.31,23.21 65.2,68.79 15.3,78.23 -67.05,11.91 -119.2,42.41 -176.8,77.11 -22.08,13.76 -121.67,34.09 -178.55,48.97 -38.39,8.31 -247.04,34.4 -237.59,51.44 8.31,16.94 140.46,15.5 418.7,-33.37 118.8,-21.36 190.16,-35.12 377.73,-95.59 215.2,-68.89 -55.44,-73.21 -10.87,-101.85 44.24,-28.24 230.4,-15.2 237.68,-56.79 6.88,-47.12 -104.01,-33.77 -101.44,-59.13 3.59,-26.39 226.7,-24.96 240.46,-85.11 6.58,-33.27 -127.11,-8.63 -95.59,-48.87 31.82,-39.43 211.2,-50.31 218.07,-128.23 3.19,-45.29 -146.72,11.6 -127.52,-27.84 8.31,-14.47 68.79,-32.23 128.24,-73.2 94.45,-67.05 243.74,-179.25 234.29,-242.61 -7.59,-80.49 -309.66,183.98 -282.87,83.58 8.31,-37.28 489.64,-415.73 412.23,-508.54 -54.73,-62.63 -398.06,346.32 -410.07,264.08 -2.16,-26.8 535.33,-633.49 437.19,-824.05 -25.68,-50.31 -431.03,726.61 -487.19,660.39 -15.18,-19.2 345.19,-767.89 287.28,-841.09 -26.79,-38.71 -84.81,86.96 -145.6,222.39 -61.28,139.42 -129.37,289.73 -143.42,309.65 -13.44,20.33 15.91,-292.61 1.74,-387.89 -5.74,-40.14 -49.27,-23.92 -49.27,-23.92 -62.94,973.23 -997.47,1695.12 -1742.87,1802.41 -192.72,26.38 -253.9,118.38 -466.55,239.02 -70.22,39.11 -179.98,57.19 -274.54,111.19 -94.56,51.75 -161.91,131.84 -193.44,182.14 -15.18,23.93 6.58,96 25.78,104.32 20.95,6.57 19.2,-52.17 40.86,-65.92 22.08,-7.9 22.08,23.62 49.69,22.18 26.08,-1.85 55.34,-27.21 55.34,-27.21 0,0 525.99,-0.71 750.12,-6.57 41.38,-2.15 108.02,-18.38 136.56,-48.46 -8.31,-25.35 -69.52,-11.6 -107.91,-9.86 -158.32,-10.06 -366.95,0 -515.01,-8.31 0,0 -23.2,-1.75 -21.76,-27.51 0,-9.04 94.56,-109.34 94.56,-109.34l-74.65 0c0,0 -44.25,24.63 -66.64,26.08 -22.07,3.28 -31.21,-11.6 -22.07,-18.49 112.64,-85.11 449.81,-237.27 449.81,-237.27l0 0z"/>
   <path class="fil2" d="M6048.04 3765.65c-8.01,0 -16.63,3.29 -16.63,3.29 -54.41,931.65 -947.97,1684.96 -1743.39,1798.72 -128.85,18.9 -199.18,67.05 -296.61,132.24 -45.28,33.68 -97.74,67.66 -166.63,105.76 -34.4,19.91 -77.11,35.52 -122.39,48.56 -50.73,18.79 -103.6,34.7 -152.88,65.19 -87.27,48.88 -155.03,122.39 -190.15,179.28 -6.88,8.31 -6.17,31.82 2.16,55.44 6.88,20.23 15.3,33.26 20.32,35.42l0 0c3.28,-2.16 6.47,-15.19 8.31,-22.37 5.86,-16.33 10.88,-35.22 26.09,-43.13 22.48,0 27.51,5.03 32.64,9.76 6.17,8.71 10.06,11.9 17.35,11.9 22.8,0 51.03,-23.51 51.03,-23.51 6.16,-4 532.15,-4 756.28,-11.61 36.25,0 104,-13.03 130.09,-43.83 -4.42,2.25 -13.45,-1.03 -32.24,-1.03 -11.3,0 -27.21,1.03 -40.25,3.27l-28.95 2.88c-160.07,-11.6 -366.95,-1.13 -516.86,-11.6 0,0 -13.44,0 -21.35,-9.76 -6.17,-7.28 -8.74,-13.44 -7.6,-25.04 1.44,-8.33 33.27,-47.45 97.02,-116.22l-68.07 15.18 0 0c1.85,0 -41.68,24.65 -65.91,26.8 -19.2,1.85 -31.22,-5.03 -34.4,-14.88l-2.56 -7.19 7.6 -9.76c113.76,-86.96 439.74,-232.24 453.82,-239.83 0.71,-1.04 90.56,-34.81 246.3,-66.23 180.81,-39.11 288.01,-46.82 351.76,-50.41 35.12,-1.75 56.88,-4.01 63.34,-8.33 192.72,-214.38 343.34,-266.22 487.6,-316.94 29.98,-9.75 60.06,-19.92 89.42,-31.52 72.07,-61.92 119.92,-139.02 170.23,-224.13 40.97,-67.46 84.4,-139.13 149.18,-214.79 143.85,-165.92 228.55,-182.55 232.56,-182.55l26.8 40.15c-1.44,-9.76 30.8,-31.83 51.84,-31.83l17.76 7.18c2.47,2.98 5.74,11.3 5.03,20.64 -2.56,40.67 -20.32,77.52 -35.84,111.2 -16.32,31.93 -28.64,60.58 -27.91,84.09 21.76,4.72 33.68,2.56 45.28,0 10.16,-1.85 21.77,-3.6 29.36,-3.6l19.92 8.31c-17.36,70.23 -62.63,110.07 -97.13,138.72 -13.35,13.75 -27.51,23.51 -33.27,34.09 2.16,6.16 9.75,5.02 19.92,3.17 10.16,-1.74 20.95,-3.17 27.51,-3.17l5.02 0 17.06 8.3c5.84,9.34 0,19.92 -1.75,23.11 -20.33,40.25 -89.53,75.36 -150.74,105.86 -24.22,11.49 -45.99,23.1 -60.47,31.82 17.76,16.63 36.25,26.49 31.12,43.43 -4.02,13.76 -28.54,28.35 -81.53,53.59 -22.39,11.6 -54.32,28.65 -58.62,35.22 2.15,5.02 6.17,8.3 13.03,13.76l11.61 16.22c-22.49,35.21 -62.63,43.83 -97.13,52.16 -18.37,4.72 -43.43,12.02 -49.59,14.89 10.87,30.07 17.34,50.3 -2.57,73.52 -17.34,25.04 -35.83,28.64 -49.59,28.64l-18.79 -1.44c-6.17,0 -10.16,1.44 -16.01,11.6 -1.75,5.44 9.14,18.49 16.01,28.24 11.6,11.6 20.94,28.65 15.92,40.15 -2.88,8.73 -10.9,12.01 -22.8,13.87 -68.48,15.18 -119.2,43.43 -173.22,78.23 -17.64,8.62 -66.22,22.37 -119.51,33.98 -22.07,4.73 -44.57,9.45 -62.33,14.88 -11.49,1.44 -40.13,6.47 -73.81,13.36 -46,6.57 -126.4,18.16 -152.88,28.23 18.79,1.54 74.23,17.04 404.22,-40.15 119.93,-21.76 187.59,-35.52 376.7,-93.43 77.11,-27.2 78.97,-38.81 78.97,-38.81 0,-8.62 -38.71,-19.91 -53.6,-21.66 -29.36,-10.58 -45.28,-17.05 -47.85,-26.79l-1.03 -5.14 9.34 -10.17c21.06,-12.62 68.89,-20.21 118.08,-21.35 45.28,-5.03 114.16,-13.76 117.35,-30.8 2.57,-17.76 -20.23,-23.11 -55.34,-29.68 -23.92,-5.02 -47.43,-10.46 -45.99,-28.23 1.75,-17.04 27.1,-19.91 88,-30.81 57.6,-9.45 144.86,-23.2 152.46,-53.28 -4.31,-8.63 -29.67,-10.06 -44.57,-13.04 -26.08,-2.16 -50.3,-5.35 -55.44,-18.78l-2.16 -4.73 7.3 -18.79c15.18,-18.17 50.3,-29.06 90.56,-40.56 57.18,-17.76 123.1,-39.84 126.38,-81.2 -5.03,-12.32 -35.12,-10.79 -67.05,-7.6 -25.67,2.15 -51.02,8.73 -59.34,-6.47 5.74,-25.06 20.94,-34.4 47.02,-46 22.48,-12.73 54.41,-25.77 84.39,-45.69 209.35,-147.74 235.44,-211.5 231.13,-236.45 -35.84,-8.41 -92.72,24.96 -142.31,55.74 -53.7,31.53 -98.87,57.2 -123.21,57.91l-17.34 -6.47c-3.29,-6.57 -3.29,-14.47 0,-28.23 1.44,-9.45 28.23,-35.22 102.87,-105.76 126.4,-117.35 359.98,-334.71 308.95,-393.43 -45.29,0 -143.13,81.92 -220.23,151.03 -88,76.8 -143.03,127.21 -169.83,127.21l-7.7 0 -12.62 -18.48c-1.44,-10.17 10.16,-25.05 75.36,-108.73 141.58,-186.14 435.74,-572.91 362.94,-712.75 -14.58,7.59 -98.15,141.28 -172.79,261.82 -150.72,244.87 -252.89,405.75 -298.88,405.75 -21.67,-17.04 -15.92,-34.08 67.05,-233.27 89.42,-214.07 239.42,-571.27 205.33,-616.14 -27.82,-2.16 -89.11,127.11 -131.83,222.7l-19.2 44.96c-56.88,128.95 -111.49,247.76 -124.95,266.54 -19.91,-5.44 -19.91,-23.1 -14.89,-137.58 4.42,-91.98 9.15,-203.9 2.57,-254.62 -2.57,-14.89 -9.45,-18.18 -22.8,-18.18l0 0zm-2666.2 2438.78l-6.57 0c-15.92,-5.44 -26.08,-33.67 -29.26,-43.84 -8,-23.2 -11.6,-53.59 -1.12,-70.23 36.24,-58.72 105.75,-137.27 196,-186.24 50.3,-27.83 103.9,-46.71 156.47,-64.79 44.57,-15.19 86.55,-28.24 119.82,-47.12 67.45,-38.71 119.2,-73.52 165.19,-105.04 98.87,-65.5 169.92,-115.5 303.91,-134.4 788.84,-112.22 1674.07,-860.59 1734.54,-1793.99 14.89,-19.92 61.62,-10.06 65.92,21.76 8.42,54.01 1.53,165.93 -0.72,257.91 -3.59,58.64 -6.47,118.8 -5.03,127.52 0,-16.32 57.6,-142.4 111.91,-262.63l19.2 -45.69c72.49,-158.94 110.06,-235.74 144.15,-235.74l2.87 0 13.77 11.61c36.95,48.86 -70.22,312.95 -202.48,631.33 -44.14,101.75 -84.39,195.59 -83.67,210.79 40.25,-1.44 181.83,-231.12 284.7,-398.47 121.36,-195.89 168.49,-268.38 190.15,-268.38 88.09,156.17 -208.63,548.07 -353.5,738.94 -33.98,45.28 -67.66,87.26 -70.22,95.59 24.23,-3.29 97.02,-63.35 160.78,-118.79 86.97,-78.96 176.8,-159.35 221.67,-159.35l3.6 0 19.91 8.74c54.73,65.5 -123.81,241.17 -311.39,418.7 -46.82,43.02 -96.42,88.7 -98.58,97.42 21.06,13.04 70.23,-14.88 116.95,-42.82 85.52,-53.17 162.64,-86.54 167.78,-45.27 5.74,52.57 -73.2,137.27 -238.71,253.91 -31.12,19.19 -63.05,34.8 -88,46.7 -15.91,6.16 -35.11,17.45 -37.69,22.9 18.49,2.16 30.08,0 42.42,-1.44 35.42,-4.02 67.35,-4.02 78.95,8.62l6.47 16.33c-4.72,54 -75.36,75.36 -138.71,95.59 -35.53,11.6 -69.51,21.77 -81.53,36.65 -0.71,10.47 24.34,13.77 38.09,15.2 25.68,1.75 47.45,4.72 56.9,17.04 -5.86,55.33 -89.84,70.22 -162.64,80.7 -31.93,6.57 -69.21,12.73 -75.36,18.17 3.28,1.44 21.76,6.47 34.38,8.31 30.81,4.73 72.8,14.79 67.77,49.6 -5.13,28.65 -63.75,36.24 -131.52,42.39 -47.12,5.03 -92.72,8.74 -110.47,19.92 1.12,1.86 21.76,8.73 35.12,11.6 33.67,8.63 63.75,18.8 64.47,38.71 0,11.61 -11.6,28.65 -90.56,53.29 -189.73,58.62 -258.63,75.66 -378.45,97.43 -215.91,34.71 -320.54,41.58 -364.38,41.58 -49.28,0 -60.17,-7.6 -64.48,-15.2 6.89,-21.35 41.28,-27.51 170.95,-49.59 31.83,-5.03 61.92,-10.47 73.52,-13.76 17.04,-4.72 40.55,-9.45 61.61,-14.89 47.43,-11.6 99.59,-23.1 113.76,-31.82 56.07,-35.12 107.91,-65.2 180.7,-78.23 11.19,-8.73 1.13,-22.08 -4.01,-30.4 -10.87,-14.17 -22.8,-28.65 -16.64,-43.53 5.77,-16.63 14.08,-22.08 30.1,-22.08l18.79 8.33 0 -8.33c10.16,0 22.8,-1.84 36.24,-21.76 14.48,-15.51 9.45,-28.54 5.44,-40.15 -2.16,-6.88 -5.44,-16.33 -5.44,-23.62 2.57,-16.63 23.51,-21.36 61.19,-29.98 30.8,-5.13 69.51,-14.89 82.96,-30.49 -10.88,-13.35 -21.06,-20.94 -22.8,-34.7 -2.16,-13.77 15.91,-23.63 68.79,-50.42 26.09,-11.6 67.76,-35.12 71.36,-43.84 1.44,-5.03 -9.45,-7.9 -15.92,-12.62 -9.44,-5.44 -19.91,-12.33 -19.91,-20.33l0 -5.03 12.32 -13.76c14.06,-8.73 36.13,-20.33 61.19,-33.37 56.88,-27.83 126.38,-64.07 143.73,-96.71 -11.59,-8.33 -20.64,-7.61 -30.69,-5.77 -8.42,1.86 -17.76,3.61 -23.62,3.61l-19.91 -10.07c-3.6,-6.87 2.16,-15.29 7.59,-23.61 8.31,-9.76 21.36,-21.35 35.94,-35.12 35.12,-29.36 77.1,-66.64 93.74,-118.49 -12.62,1.14 -22.48,1.14 -30.81,2.99 -41.27,8.62 -64.78,-2.99 -64.78,-15.2 -2.57,-26.9 11.9,-58.72 27.51,-93.53 16.32,-33.68 32.96,-68.8 36.25,-103.6 -18.49,-10.79 -46,6.17 -60.17,16.32l-31.11 -38.39c1.02,5.13 -81.94,25.05 -214.48,178.95 -62.63,73.52 -106.48,146.01 -148.17,214.38 -52.16,83.68 -99.58,165.92 -174.85,228.55 -32.24,14.59 -63.04,22.89 -93.13,34.8 -141.59,48.56 -289.74,100.32 -481.43,311.82 -11.2,9.45 -30.4,11.61 -72.79,14.89 -64.07,3.28 -170.24,9.75 -350.23,46.41 -154.62,31.82 -243.74,65.5 -243.74,65.5 -3.28,3.28 -336.46,152.16 -448.78,238 32.97,0 67.77,-14.48 79.38,-22.07l79.67 -1.14c-37.69,60.18 -84.4,111.91 -86.25,120.24l13.44 25.35 0 -10.46c149.19,10.46 356.69,-1.45 515.72,11.59l26.8 -2.87c32.96,-3.28 76.49,-14.88 87.99,18.79 -32.54,39.84 -102.77,56.16 -144.15,56.16 -221.97,6.89 -735.96,8.33 -749.41,8.33 0.72,2.16 -28.54,25.35 -56.05,27.2l0 0c-17.45,0 -26.07,-10.16 -31.21,-16.74 -18.49,-1.74 -27.1,14.89 -30.81,26.8 -5.74,17.04 -10.05,31.93 -24.23,31.93l0 0z"/>
   <path class="fil1" d="M3625.6 6004.85c-0.72,-10.17 -26.08,-3.29 -43.43,0 -19.61,4.72 -30.49,12.31 -28.65,23.51 0.71,11.6 24.23,6.57 42,1.12 19.19,-4 30.8,-12.32 30.08,-24.63l0 0z"/>
   <path class="fil1" d="M3565.13 6043.25l-8.33 0 -12.32 -13.77c-1.84,-14.48 11.6,-27.92 35.12,-32.64 15.92,-3.6 26.8,-5.03 35.11,-5.03l8.01 0 11.19 13.04c0.72,13.03 -12.62,28.64 -36.24,33.37 -12.21,3.59 -23.09,5.03 -32.54,5.03l0 0z"/>
   <path class="fil2" d="M4298.2 2191.18c63.45,13.77 94.56,-21.76 104.72,-68.79 13.04,-63.45 -14.48,-382.87 -14.48,-382.87 0,0 -147.43,284.71 -159.04,345.91 -10.15,50.72 5.76,94.15 68.8,105.75l0 0z"/>
   <path class="fil2" d="M4530.04 2261.51c60.16,24.54 97.74,-2.56 116.22,-48.26 24.33,-59.04 60.57,-377.42 60.57,-377.42 0,0 -200.32,249.6 -225.36,309.76 -16.63,45.58 -11.2,92.31 48.57,115.91l0 0z"/>
   <path class="fil2" d="M4743.7 2377.33c53.69,34.8 96,13.03 123.92,-27.11 34.39,-51.84 131.42,-356.78 131.42,-356.78 0,0 -244.04,206.07 -280.71,260.07 -25.67,40.56 -28.54,86.97 25.37,123.83l0 0z"/>
   <path class="fil2" d="M4930.25 2529.48c45.99,46.72 91.99,34.09 125.67,-1.12 45.99,-44.14 200.31,-323.41 200.31,-323.41 0,0 -279.99,153.59 -325.27,198.45 -35.12,35.54 -46.71,80.82 -0.71,126.08l0 0z"/>
   <path class="fil2" d="M5083.44 2717.48c35.93,53.29 84.09,51.43 123.21,22.8 54.32,-36.24 259.66,-279.27 259.66,-279.27 0,0 -304.22,97.12 -357.82,132.24 -39.11,26.79 -60.89,70.64 -25.05,124.24l0 0z"/>
   <path class="fil2" d="M5197.6 2930.11c26.4,60.06 71.67,66.94 116.22,48.16 59.46,-24.65 309.67,-224.54 309.67,-224.54 0,0 -317.26,36.95 -377.42,60.05 -45.29,19.21 -73.11,57.3 -48.47,116.33l0 0z"/>
   <path class="fil2" d="M5267.83 3162.97c12.73,61.19 56.89,78.25 104.73,68.8 63.75,-14.07 347.33,-159.65 347.33,-159.65 0,0 -318.79,-26.49 -381.01,-14.89 -48.57,9.75 -82.65,41.68 -71.05,105.75l0 0z"/>
   <path class="fil2" d="M5291.35 3401.68c0.71,65.92 40.97,89.13 89.52,89.13 65.5,0 370.86,-89.13 370.86,-89.13 0,0 -305.36,-88.7 -370.86,-88.7 -48.55,0 -89.52,24.23 -89.52,88.7l0 0z"/>
   <path class="fil2" d="M5267.83 3642.86c-11.6,64.18 22.48,94.25 71.05,104.73 62.22,13.02 381.01,-13.77 381.01,-13.77 0,0 -283.58,-147.43 -347.33,-160.48 -47.85,-8.73 -93.13,4.73 -104.73,69.51l0 0z"/>
   <path class="fil2" d="M5197.6 3874.69c-23.61,60.17 3.19,97.13 48.47,115.21 60.16,27.2 377.42,60.16 377.42,60.16 0,0 -250.21,-198.87 -309.67,-224.23 -44.55,-17.05 -91.26,-11.61 -116.22,48.86l0 0z"/>
   <path class="fil2" d="M5083.44 4088.77c-35.12,52.16 -14.06,95.59 25.05,124.24 53.59,33.37 357.82,132.24 357.82,132.24 0,0 -205.34,-244.47 -259.66,-281.43 -39.12,-25.37 -87.28,-28.65 -123.21,24.96l0 0z"/>
   <path class="fil2" d="M4930.25 4274.6c-45.29,44.87 -34.4,92 0.71,127.52 45.28,43.43 325.27,199.19 325.27,199.19 0,0 -154.32,-281.84 -200.31,-324.86 -33.68,-34.8 -80.7,-46.82 -125.67,-1.85l0 0z"/>
   <path class="fil2" d="M4743.7 4427.08c-52.88,37.27 -51.03,84.09 -25.37,124.24 36.66,55.03 280.71,258.94 280.71,258.94 0,0 -97.02,-302.79 -131.42,-355.96 -27.92,-42.42 -70.23,-62.33 -123.92,-27.21l0 0z"/>
   <path class="fil2" d="M4530.04 4542.99c-59.77,26.49 -65.2,70.23 -48.57,115.21 25.04,60.05 225.36,309.66 225.36,309.66 0,0 -36.24,-316.23 -60.57,-376.29 -18.49,-43.84 -56.79,-74.24 -116.22,-48.57l0 0z"/>
   <path class="fil2" d="M3372.39 4427.08c-54.31,-32.97 -97.02,-15.2 -123.81,27.21 -35.94,53.17 -132.96,355.96 -132.96,355.96 0,0 244.47,-203.91 280.4,-258.94 27.5,-40.15 31.11,-86.97 -23.63,-124.24l0 0z"/>
   <path class="fil2" d="M3185.84 4274.6c-47.02,-44.98 -92.29,-32.96 -125.66,1.85 -47.03,43.02 -201.03,324.86 -201.03,324.86 0,0 279.68,-155.76 324.96,-199.19 34.39,-35.52 47.03,-82.65 1.74,-127.52l0 0z"/>
   <path class="fil2" d="M3031.94 4088.77c-36.25,-53.6 -82.95,-50.32 -123.51,-24.96 -54.32,36.96 -260.38,281.43 -260.38,281.43 0,0 304.94,-98.87 358.54,-132.24 40.23,-28.65 61.18,-72.08 25.35,-124.24l0 0z"/>
   <path class="fil2" d="M2917.87 3874.69c-25.04,-60.47 -72.08,-65.91 -117.35,-48.86 -59.45,25.35 -309.66,224.23 -309.66,224.23 0,0 317.97,-32.96 378.45,-60.16 44.24,-18.08 72.78,-55.04 48.55,-115.21l0 0z"/>
   <path class="fil2" d="M2847.54 3642.86c-13.34,-64.78 -56.77,-78.23 -106.46,-69.51 -61.21,13.04 -345.91,160.48 -345.91,160.48 0,0 318.38,26.79 382.15,13.77 46.71,-10.49 83.68,-40.56 70.22,-104.73l0 0z"/>
   <path class="fil2" d="M2824.03 3401.68c-0.71,-64.47 -40.86,-88.7 -88.71,-88.7 -65.19,0 -373.41,88.7 -373.41,88.7 0,0 308.22,89.13 373.41,89.13 47.85,0 88.71,-23.21 88.71,-89.13l0 0z"/>
   <path class="fil2" d="M2847.54 3162.97c11.61,-64.07 -23.51,-96 -70.22,-105.75 -63.76,-11.6 -382.15,14.89 -382.15,14.89 0,0 284.7,145.58 345.91,159.65 49.69,9.45 93.13,-5.35 106.46,-68.8l0 0z"/>
   <path class="fil2" d="M2917.87 2930.11c24.23,-59.04 -4.31,-97.12 -48.55,-116.33 -60.48,-23.1 -378.45,-60.05 -378.45,-60.05 0,0 250.21,199.89 309.66,224.54 45.27,18.78 92.31,11.9 117.35,-48.16l0 0z"/>
   <path class="fil2" d="M3031.94 2717.48c35.83,-53.59 14.88,-97.45 -25.35,-124.24 -53.6,-35.12 -358.54,-132.24 -358.54,-132.24 0,0 206.07,243.03 260.38,279.27 40.56,28.64 87.99,32.65 123.51,-22.8l0 0z"/>
   <path class="fil2" d="M3185.84 2529.48c44.57,-45.27 32.65,-90.54 -1.74,-126.08 -45.28,-44.87 -324.96,-198.45 -324.96,-198.45 0,0 154.01,279.27 201.03,323.41 33.37,35.21 79.67,47.85 125.66,1.12l0 0z"/>
   <path class="fil2" d="M4056.61 2318.69c599.51,0 1085.56,485.75 1085.56,1085.15 0,601.25 -486.05,1087.4 -1085.56,1087.4 -600.11,0 -1086.57,-486.16 -1086.57,-1087.4 0,-599.4 486.46,-1085.15 1086.57,-1085.15l0 0z"/>
   <path class="fil2" d="M4056.61 2169.42c65.21,-1.44 89.84,-41.58 89.84,-90.16 0,-63.75 -89.84,-372.38 -89.84,-372.38 0,0 -86.85,308.63 -86.85,372.38 0,48.57 23.51,90.16 86.85,90.16l0 0z"/>
   <path class="fil2" d="M4298.2 4611.47c-63.04,14.79 -78.95,58.32 -68.8,106.77 11.61,62.74 159.04,347.04 159.04,347.04 0,0 27.53,-319.83 14.48,-381.74 -10.16,-48.57 -41.27,-82.24 -104.72,-72.08l0 0z"/>
   <path class="fil2" d="M4056.61 4634.98c-63.34,1.44 -86.85,41.69 -86.85,90.57 0,64.78 86.85,371.67 86.85,371.67 0,0 89.84,-306.89 89.84,-371.67 0,-48.87 -24.63,-90.57 -89.84,-90.57l0 0z"/>
   <path class="fil2" d="M3817.18 4611.47c-63.35,-10.16 -95.6,23.51 -104.63,72.08 -12.32,61.91 14.48,381.74 14.48,381.74 0,0 145.28,-284.3 158.63,-347.04 10.16,-48.45 -5.44,-93.42 -68.48,-106.77l0 0z"/>
   <path class="fil2" d="M3585.45 4542.99c-59.45,-25.67 -98.16,4.73 -116.32,48.57 -25.37,60.06 -60.48,376.29 -60.48,376.29 0,0 200.31,-249.61 225.26,-309.66 17.76,-44.98 10.9,-90.56 -48.45,-115.21l0 0z"/>
   <path class="fil2" d="M3372.39 2377.33c52.88,-36.86 51.13,-83.27 23.63,-123.83 -35.94,-54 -280.4,-260.07 -280.4,-260.07 0,0 97.02,304.94 132.96,356.78 26.79,40.15 69.51,61.92 123.81,27.11l0 0z"/>
   <path class="fil2" d="M3585.45 2261.51c59.35,-25.04 66.22,-70.33 48.45,-115.91 -24.94,-60.17 -225.26,-309.76 -225.26,-309.76 0,0 35.12,318.38 60.48,377.42 18.16,45.7 56.88,72.8 116.32,48.26l0 0z"/>
   <path class="fil2" d="M3817.18 2191.18c63.04,-13.34 78.65,-55.03 68.48,-105.75 -13.35,-61.19 -158.63,-345.91 -158.63,-345.91 0,0 -26.8,319.42 -14.48,382.87 9.03,47.03 41.27,83.68 104.63,68.79l0 0z"/>
  </g>
 </g>
</svg>
