<svg width="48" height="48" viewBox="0 0 48 48" fill="none" xmlns="http://www.w3.org/2000/svg">
<path d="M24 0C37.2549 0 48.0001 10.7451 48.0001 24C48.0001 37.2549 37.255 48.0001 24 48.0001C10.7452 48.0001 0 37.255 0 24C0 10.7452 10.7451 0 24 0Z" fill="#FEFEFE"/>
<path fill-rule="evenodd" clip-rule="evenodd" d="M28.6722 24.3435C29.0414 25.0733 31.307 24.9857 31.8008 24.9857L32.3354 25.6729L31.923 26.4027C30.36 26.4027 29.413 25.8003 28.0129 25.588C27.1474 25.4156 20.8086 29.6639 19.6554 30.3512C17.5145 31.5506 9.94112 35.844 7.34709 35.7989C7.14089 35.7989 7.01869 35.7564 6.85325 35.6715C5.57789 35.0691 5.78147 33.6123 6.44087 32.9251C6.60631 32.7101 6.72851 32.6677 6.97545 32.5828L15.8675 29.1915C17.1862 28.6343 23.6089 25.9728 24.5966 24.6009L19.7369 24.041L19.6962 26.2302L5 24.171L5.12475 20.3526L27.6413 23.9137L26.9845 24.0862C27.7253 25.7155 26.8191 23.8288 28.6723 24.3436H28.6724L28.6722 24.3435ZM5.16544 18.978V18.9356V18.5933C5.24689 17.4336 5.57783 16.4465 6.19386 15.6319C6.89395 14.7297 7.84092 14.2573 8.99409 14.3025C10.2695 14.3025 11.2572 14.7297 11.9573 15.547C12.6166 16.4041 12.945 17.5637 12.945 19.0656C12.945 19.7502 12.9042 20.3526 12.7388 20.9098L11.135 20.6524C11.2572 20.1801 11.2979 19.6653 11.2979 19.0656C11.2979 16.8764 10.5572 15.7593 8.99409 15.7593C8.294 15.7593 7.75941 16.0167 7.38778 16.6191C7.05939 17.1338 6.85319 17.776 6.81244 18.5508C6.81244 18.9356 6.72839 19.6228 6.76914 19.9651L5.12463 19.6653L5.16538 19.0205V18.978V18.978H5.16544ZM34.4356 16.8765C34.1887 16.7916 33.8985 16.7916 33.6108 16.7916C33.3232 16.7916 33.0762 16.7916 32.8293 16.8765C32.254 17.0038 31.7168 17.3063 31.3477 17.776C30.7698 18.4208 30.4822 19.2779 30.4822 20.3102C30.4822 21.3822 30.7291 22.2393 31.307 22.8841C31.8416 23.5263 32.6231 23.8712 33.6109 23.8712C34.5578 23.8712 35.3394 23.5262 35.9172 22.8841C36.4518 22.2393 36.7395 21.3822 36.7395 20.3102C36.7395 19.193 36.4518 18.3359 35.9172 17.7336C35.5456 17.2613 35.0517 17.0039 34.4356 16.8765V16.8765ZM30.4822 15.5019C30.6069 15.417 30.6476 15.2896 30.6476 15.1596C30.6476 14.8598 30.4414 14.6449 30.1538 14.6449H29.4537V15.417C29.4944 15.4595 29.4944 15.5471 29.5351 15.5895C29.6192 15.8045 29.7006 16.1043 29.7413 16.3617H30.1537C30.4821 16.3617 30.6883 16.1893 30.6883 15.8894C30.6883 15.7169 30.6069 15.5896 30.4821 15.502L30.4822 15.5019ZM29.8661 15.3321V15.0323H30.1131C30.1945 15.0323 30.2353 15.0748 30.2353 15.1597C30.2353 15.2446 30.1945 15.3321 30.1131 15.3321H29.8661ZM29.8661 16.0167V15.6744H30.1131C30.2353 15.6744 30.276 15.7593 30.276 15.8469C30.276 15.9318 30.2352 16.0167 30.1131 16.0167H29.8661V16.0167ZM32.2947 16.3617L31.7168 14.6449H31.3885L30.7699 16.3617H31.223L31.307 16.1043H31.8009L31.8823 16.3617H32.2947ZM31.6762 15.7593H31.3885L31.554 15.2896L31.6762 15.7593H31.6762ZM33.7764 16.3617L33.4047 15.6744C33.4887 15.632 33.5294 15.5895 33.5701 15.5471C33.6109 15.4594 33.6515 15.3321 33.6515 15.2021C33.6515 14.9023 33.4454 14.6449 33.117 14.6449H32.4576V16.3617H32.87V15.7169H32.9948L33.2824 16.3617H33.7762H33.7764ZM32.8701 15.3745V15.0322H33.0763C33.1985 15.0322 33.2825 15.1171 33.2825 15.202C33.2825 15.2896 33.1985 15.3745 33.0763 15.3745H32.8701V15.3745ZM34.9703 15.5019C35.0925 15.417 35.1765 15.2896 35.1765 15.1596C35.1765 14.8598 34.9703 14.6449 34.6393 14.6449H33.9418V16.3617H34.6826C34.9702 16.3617 35.1764 16.1893 35.1764 15.8894C35.1764 15.7169 35.1357 15.5896 34.9702 15.502L34.9703 15.5019ZM34.3517 15.3321V15.0323H34.5986C34.7234 15.0323 34.7641 15.0748 34.7641 15.1597C34.7641 15.2446 34.7233 15.3321 34.5986 15.3321H34.3517ZM34.3517 16.0167V15.6744H34.6393C34.7233 15.6744 34.7641 15.7593 34.7641 15.8469C34.7641 15.9318 34.7233 16.0167 34.6393 16.0167H34.3517V16.0167ZM36.5741 16.3617V16.0167H35.8766V15.7169H36.4926V15.3321H35.8766V15.0296H36.5741V14.6449H35.4642V16.3617H36.5741ZM38.1397 16.3617L37.8113 15.6744C37.8928 15.632 37.8928 15.5895 37.9335 15.5471C38.015 15.4594 38.0583 15.3321 38.0583 15.2021C38.0583 14.9023 37.8521 14.6449 37.5211 14.6449H36.8643V16.3617H37.2742V15.7169H37.3989L37.6866 16.3617H38.1397ZM37.2742 15.3745V15.0322H37.4804C37.6051 15.0322 37.6458 15.1171 37.6458 15.202C37.6458 15.2896 37.6051 15.3745 37.4804 15.3745H37.2742V15.3745ZM39.1681 15.1171L39.4151 14.8597C39.3336 14.7722 39.2929 14.7297 39.2089 14.6873C39.1274 14.6448 39.0052 14.6448 38.8805 14.6448C38.5113 14.6448 38.2645 14.8597 38.2645 15.202C38.2645 15.4594 38.4274 15.6319 38.7151 15.6744L38.9212 15.7169C39.0053 15.7169 39.046 15.7593 39.046 15.8469C39.046 15.9743 38.9619 16.0167 38.8398 16.0167C38.7151 16.0167 38.6336 16.0167 38.5522 15.9742C38.5114 15.9317 38.5114 15.9317 38.4682 15.8893L38.1805 16.1467C38.3053 16.2741 38.346 16.2741 38.4275 16.3192C38.5115 16.3616 38.6337 16.4041 38.7991 16.4041C39.209 16.4041 39.4559 16.1892 39.4559 15.8469C39.4559 15.5471 39.3337 15.3745 39.0053 15.3321L38.7991 15.2896C38.7151 15.2896 38.6744 15.2445 38.6744 15.1596C38.6744 15.0747 38.7584 15.0296 38.8806 15.0296C38.962 15.0296 39.0461 15.0296 39.0867 15.0296C39.1275 15.0747 39.1275 15.0747 39.1682 15.1171H39.1681ZM40.9399 16.3616V14.6448H40.5683V15.3321H40.1152V14.6448H39.7053V16.3616H40.1152V15.6744H40.5683V16.3616H40.9399ZM42.4623 15.5019V15.3745C42.4623 15.1171 42.4215 14.9446 42.2968 14.8172C42.1746 14.6872 42.0499 14.6448 41.8437 14.6448C41.6808 14.6448 41.5153 14.6873 41.3931 14.8172C41.2683 14.987 41.2276 15.1171 41.2276 15.4594V15.547C41.2276 15.7593 41.2276 16.0167 41.3931 16.1891C41.5153 16.3192 41.6807 16.4041 41.8437 16.4041C42.0499 16.4041 42.2154 16.3192 42.2968 16.1891C42.503 16.0167 42.4623 15.7593 42.4623 15.5019ZM41.6807 15.0747C41.7215 15.0322 41.8029 15.0322 41.8436 15.0322C41.9276 15.0322 41.9684 15.0322 42.0091 15.0747C42.0498 15.1595 42.0905 15.2896 42.0905 15.4594V15.5471C42.0905 15.8045 42.0497 15.8894 42.0091 15.9318C41.9683 15.9743 41.9276 16.0167 41.8436 16.0167C41.8029 16.0167 41.7214 15.9743 41.6807 15.9318C41.64 15.8894 41.64 15.8045 41.64 15.5471V15.4594C41.64 15.2896 41.64 15.1596 41.6807 15.0747ZM42.7499 14.6448V16.3616H43.1623V15.7593H43.4092C43.7376 15.7593 43.9846 15.547 43.9846 15.202C43.9846 14.9022 43.7376 14.6448 43.4092 14.6448H42.7499ZM43.1623 15.3745V15.0322H43.3685C43.4907 15.0322 43.5747 15.1171 43.5747 15.202C43.5747 15.2895 43.4907 15.3744 43.3685 15.3744H43.1623V15.3745ZM14.0983 14.3874L15.6206 14V21.3397H15.5798L14.0983 21.1248V14.3874ZM16.8553 21.4246C16.8145 21.1248 16.7738 20.7798 16.7738 20.4375C16.7738 19.3655 17.1022 18.4632 17.6801 17.7759C18.2961 17.1338 19.0395 16.7915 19.9432 16.7915C20.437 16.7915 20.8902 16.8764 21.3026 17.0913V14.3874L22.8249 14V22.4966L21.3026 22.2392V18.5508C20.9742 18.2483 20.6432 18.1209 20.2741 18.1209C19.6556 18.1209 19.2024 18.3358 18.874 18.7206C18.543 19.1081 18.3801 19.6653 18.3801 20.395C18.3801 20.8673 18.4616 21.2972 18.6271 21.597C18.6678 21.6819 18.7085 21.7668 18.79 21.8544H18.7492L16.8985 21.5546L16.8553 21.4246ZM23.8559 22.6266L23.9781 14.3873C25.172 14.3449 26.0376 14.3024 26.5314 14.3024C27.4351 14.3024 28.1785 14.5147 28.7131 14.9446C29.2069 15.3744 29.4946 15.9317 29.4946 16.7038C29.4946 17.4336 29.1229 18.0333 28.3414 18.4632C29.4539 18.8506 30.0292 19.7077 30.0292 20.9522C30.0292 21.812 29.7008 22.4966 29.0822 22.9689C28.96 23.0565 28.7538 23.2687 28.5883 23.3987L28.1785 23.3138L24.7596 22.7963L23.8559 22.6265V22.6266ZM25.5844 15.7168V17.9485C25.8314 17.9909 26.0782 17.9909 26.3252 17.9909C27.3944 17.9909 27.8883 17.6061 27.8883 16.7915C27.8883 16.0618 27.4351 15.7168 26.4907 15.7168C26.2412 15.7168 25.9128 15.7168 25.5844 15.7168ZM25.5844 19.2779V22.3268C25.8721 22.3693 26.1598 22.3693 26.3659 22.3693C27.066 22.3693 27.5598 22.2392 27.8882 21.9818C28.2191 21.7669 28.382 21.3397 28.382 20.7798C28.382 20.2226 28.2191 19.8378 27.9314 19.6228C27.6413 19.3654 27.1066 19.2355 26.3658 19.2355C26.2004 19.2355 25.9534 19.2355 25.5844 19.2779L25.5844 19.2779ZM32.0478 20.3101C32.0478 21.812 32.5824 22.5391 33.6109 22.5391C34.0641 22.5391 34.4358 22.3693 34.7234 21.9819C35.0111 21.5547 35.1358 21.0372 35.1358 20.3102C35.1358 18.8082 34.6393 18.0786 33.6109 18.0786C33.1171 18.0786 32.7479 18.2935 32.4577 18.6783C32.2108 19.0657 32.0479 19.5805 32.0479 20.3102L32.0478 20.3101ZM37.4804 26.4027L36.905 25.6729L37.4804 24.9857C37.6051 24.9857 37.7273 24.9857 37.8928 24.9857C38.099 24.9432 38.2645 24.9432 38.4274 24.9008C38.715 24.8159 38.8804 24.6434 39.0052 24.5585C39.0867 24.4284 39.1274 24.3435 39.1681 24.2135C39.2089 24.1286 39.2522 24.0861 39.2089 23.9561C39.2089 23.5262 39.046 22.969 38.7583 22.1968L36.6988 16.9189H38.2645L40.0744 21.5971L41.6807 16.9189H43.2845L40.3621 24.9857L40.3213 25.0281C40.3213 25.0281 39.662 26.4876 37.4803 26.4027H37.4804ZM25.7906 24.6434C26.0782 24.6434 26.3252 24.9008 26.3252 25.2006C26.3252 25.5429 26.0782 25.803 25.7906 25.7578C25.5004 25.7578 25.2535 25.5004 25.2535 25.2006C25.2535 24.9008 25.5004 24.6434 25.7906 24.6434ZM7.88174 33.5248C8.16944 33.5248 8.41632 33.7822 8.41632 34.0847C8.41632 34.3845 8.16938 34.6419 7.88174 34.6419C7.55334 34.6419 7.34715 34.3845 7.34715 34.0395C7.34715 33.7397 7.55334 33.4823 7.88174 33.5248Z" fill="black"/>
</svg>
