<?xml version="1.0" encoding="UTF-8"?>
<!DOCTYPE svg PUBLIC "-//W3C//DTD SVG 1.1//EN" "http://www.w3.org/Graphics/SVG/1.1/DTD/svg11.dtd">
<!-- Creator: CorelDRAW 2020 (64-Bit) -->
<svg xmlns="http://www.w3.org/2000/svg" xml:space="preserve" width="76.4296mm" height="76.4296mm" version="1.1" style="shape-rendering:geometricPrecision; text-rendering:geometricPrecision; image-rendering:optimizeQuality; fill-rule:evenodd; clip-rule:evenodd"
viewBox="0 0 5213.57 5213.57"
 xmlns:xlink="http://www.w3.org/1999/xlink"
 xmlns:xodm="http://www.corel.com/coreldraw/odm/2003">
 <defs>
  <style type="text/css">
   <![CDATA[
    .fil0 {fill:#FEFEFE;fill-rule:nonzero}
    .fil1 {fill:#F8F8F9;fill-rule:nonzero}
    .fil3 {fill:#D42327;fill-rule:nonzero}
    .fil2 {fill:#3A3E8A;fill-rule:nonzero}
   ]]>
  </style>
 </defs>
 <g id="Layer_x0020_1">
  <metadata id="CorelCorpID_0Corel-Layer"/>
  <g id="_2263749711728">
   <path class="fil0" d="M2606.79 0c1439.69,0 2606.79,1167.09 2606.79,2606.79 0,1439.69 -1167.09,2606.79 -2606.79,2606.79 -1439.69,0 -2606.79,-1167.09 -2606.79,-2606.79 0,-1439.69 1167.09,-2606.79 2606.79,-2606.79z"/>
   <path class="fil1" d="M170.74 1677.44l4872.09 0c-374.37,-980.74 -1323.77,-1677.44 -2436.05,-1677.44 -1112.28,0 -2061.67,696.7 -2436.05,1677.44z"/>
   <path class="fil2" d="M137.96 3445.68l4937.66 0c89.43,-263.25 137.96,-545.4 137.96,-838.89 0,-327.41 -60.53,-640.65 -170.74,-929.34l-4872.09 0c-110.21,288.7 -170.74,601.93 -170.74,929.34 0,293.49 48.53,575.64 137.96,838.89z"/>
   <path class="fil3" d="M2592.26 5213.39l29.06 0c1139.9,-6.23 2106.57,-744.02 2454.32,-1767.78l-4937.7 0c347.75,1023.76 1314.42,1761.55 2454.32,1767.78z"/>
  </g>
 </g>
</svg>
