<?xml version="1.0" encoding="UTF-8"?>
<!DOCTYPE svg PUBLIC "-//W3C//DTD SVG 1.1//EN" "http://www.w3.org/Graphics/SVG/1.1/DTD/svg11.dtd">
<!-- Creator: CorelDRAW 2020 (64-Bit) -->
<svg xmlns="http://www.w3.org/2000/svg" xml:space="preserve" width="76.4296mm" height="76.4296mm" version="1.1" style="shape-rendering:geometricPrecision; text-rendering:geometricPrecision; image-rendering:optimizeQuality; fill-rule:evenodd; clip-rule:evenodd"
viewBox="0 0 5213.57 5213.57"
 xmlns:xlink="http://www.w3.org/1999/xlink"
 xmlns:xodm="http://www.corel.com/coreldraw/odm/2003">
 <defs>
  <style type="text/css">
   <![CDATA[
    .fil9 {fill:#FEFEFE}
    .fil11 {fill:#FCFDFE}
    .fil3 {fill:#E28424}
    .fil7 {fill:#CD3C27}
    .fil4 {fill:#C23D2A}
    .fil10 {fill:#AF3E30}
    .fil8 {fill:#B03E2F}
    .fil5 {fill:#36775C}
    .fil0 {fill:#FEFEFE;fill-rule:nonzero}
    .fil6 {fill:#E28424;fill-rule:nonzero}
    .fil2 {fill:#BF2839;fill-rule:nonzero}
    .fil1 {fill:#36775C;fill-rule:nonzero}
   ]]>
  </style>
 </defs>
 <g id="Layer_x0020_1">
  <metadata id="CorelCorpID_0Corel-Layer"/>
  <g id="_2263626736048">
   <path class="fil0" d="M2606.79 0c1439.69,0 2606.79,1167.09 2606.79,2606.79 0,1439.69 -1167.09,2606.79 -2606.79,2606.79 -1439.69,0 -2606.79,-1167.09 -2606.79,-2606.79 0,-1439.69 1167.09,-2606.79 2606.79,-2606.79z"/>
   <path class="fil1" d="M2604.63 5213.54l4.31 0c1438.7,-1.17 2604.63,-1167.79 2604.63,-2606.76 0,-1439.69 -1167.09,-2606.79 -2606.79,-2606.79 -1439.69,0 -2606.79,1167.09 -2606.79,2606.79 0,1438.97 1165.93,2605.59 2604.63,2606.76z"/>
   <path class="fil2" d="M1600.35 5012.09l0 -4810.6c-658.57,275.89 -1179.73,814.39 -1432.85,1484.49l0 1841.63c253.12,670.09 774.28,1208.6 1432.85,1484.49z"/>
   <path class="fil3" d="M167.5 2364.63l0 -41.37 62 -101.58 -16.02 -21.34 36.84 -61.29 -10.76 -20.82 -26.07 40.93 -9.15 -20.11 81.26 -138.4 16.02 21.27 -16.02 20.11 26.08 40.99 62.2 -102.55 -62.2 -97.48 -26.08 36.19 16.02 21.27 -16.02 20.11 -81.26 -144.12 9.15 -21.08 26.07 41.18 10.76 -20.1 -36.84 -61.36 16.02 -21.01 -50.25 -79.01c3.08,-7.86 6.31,-15.64 9.47,-23.46l61.6 102.47 -10.76 21.01 36.84 61.36 -26.08 41.19 26.08 41.38 35.28 -62.46 81.66 143.92 -81.66 137.76 -35.28 -55.39 -26.08 40.28 26.08 35.93 -36.84 61.29 10.76 21.34 -82.82 142.95z"/>
   <polygon class="fil3" points="167.5,1857.64 183.52,1899.02 183.52,1960.57 220.16,1960.57 239.55,1980.48 220.16,2000.66 183.52,2000.66 183.52,2062.85 167.5,2103.13 "/>
   <polygon class="fil3" points="167.5,3338.03 167.5,3297.75 229.5,3195.02 213.48,3173.94 250.32,3112.65 239.55,3092.28 213.48,3133.47 204.34,3112.65 285.6,2973.72 301.62,2989.74 285.6,3009.91 311.68,3051.29 373.87,2953.81 311.68,2851.33 285.6,2892.26 301.62,2912.43 285.6,2933.7 204.34,2789.78 213.48,2769.68 239.55,2810.15 250.32,2789.78 213.48,2728.68 229.5,2707.41 167.5,2605.84 167.5,2564.4 250.32,2707.41 239.55,2728.68 276.4,2789.78 250.32,2830.25 276.4,2871.44 311.68,2810.15 393.34,2953.81 311.68,3092.28 276.4,3031.38 250.32,3071.46 276.4,3112.65 239.55,3173.94 250.32,3195.02 "/>
   <polygon class="fil3" points="167.5,2830.25 183.52,2871.44 183.52,2933.7 220.16,2933.7 239.55,2953.81 220.16,2973.72 183.52,2973.72 183.52,3031.38 167.5,3071.46 "/>
   <path class="fil3" d="M346.41 3906.1l27.46 -45.05 -62.2 -97.68 -23.13 36.54c-3.41,-6.62 -6.74,-13.29 -10.1,-19.95l33.23 -57.13 81.66 142.1 -35.61 60.29c-3.75,-6.38 -7.61,-12.71 -11.31,-19.13zm-101.12 -194.36l5.03 -9.73 -36.84 -61.54 16.02 -21.47 -62 -101.38 0 -41.18 82.82 142.56 -10.76 21.47 36.84 61.54 -20.81 31.78c-3.5,-7.31 -6.86,-14.71 -10.3,-22.05z"/>
   <polygon class="fil3" points="1600.28,1391.31 1600.28,1349.92 1538.27,1247.19 1554.11,1227.02 1518.17,1170.98 1528.94,1149.9 1554.11,1191.09 1562.8,1170.98 1481.53,1027.32 1466.67,1048.34 1481.53,1068.51 1455.91,1108.98 1399.15,1007.15 1455.91,909.67 1481.53,944.44 1466.67,965.97 1481.53,985.88 1562.8,842.86 1554.11,822.04 1528.94,863.03 1518.17,842.86 1554.11,786.83 1538.27,765.74 1600.28,663.27 1600.28,623 1518.17,765.74 1528.94,786.83 1492.1,842.86 1518.17,884.31 1492.1,925.94 1455.91,863.03 1374.44,1007.15 1455.91,1149.9 1492.1,1088.81 1518.17,1129.8 1492.1,1170.98 1528.94,1227.02 1518.17,1247.19 "/>
   <polygon class="fil3" points="1600.28,884.31 1589.52,925.94 1589.52,985.88 1554.11,985.88 1528.94,1007.15 1554.11,1027.32 1589.52,1027.32 1589.52,1088.81 1600.28,1129.8 "/>
   <polygon class="fil3" points="1600.28,2364.63 1600.28,2323.26 1538.27,2221.68 1554.11,2200.35 1518.17,2139.06 1528.94,2118.24 1554.11,2159.17 1562.8,2139.06 1481.53,2000.66 1466.67,2021.93 1481.53,2042.03 1455.91,2083.02 1399.15,1980.48 1455.91,1882.99 1481.53,1919.19 1466.67,1940.46 1481.53,1960.57 1562.8,1816.45 1554.11,1795.37 1528.94,1836.55 1518.17,1816.45 1554.11,1755.09 1538.27,1734.08 1600.28,1636.6 1600.28,1596.32 1518.17,1734.08 1528.94,1755.09 1492.1,1816.45 1518.17,1857.64 1492.1,1899.02 1455.91,1836.55 1374.44,1980.48 1455.91,2118.24 1492.1,2062.85 1518.17,2103.13 1492.1,2139.06 1528.94,2200.35 1518.17,2221.68 "/>
   <polygon class="fil3" points="1600.28,1857.64 1589.52,1899.02 1589.52,1960.57 1554.11,1960.57 1528.94,1980.48 1554.11,2000.66 1589.52,2000.66 1589.52,2062.85 1600.28,2103.13 "/>
   <polygon class="fil3" points="1600.28,3338.03 1600.28,3297.75 1538.27,3195.02 1554.11,3173.94 1518.17,3112.65 1528.94,3092.28 1554.11,3133.47 1562.8,3112.65 1481.53,2973.72 1466.67,2989.74 1481.53,3009.91 1455.91,3051.29 1399.15,2953.81 1455.91,2851.33 1481.53,2892.26 1466.67,2912.43 1481.53,2933.7 1562.8,2789.78 1554.11,2769.68 1528.94,2810.15 1518.17,2789.78 1554.11,2728.68 1538.27,2707.41 1600.28,2605.84 1600.28,2564.4 1518.17,2707.41 1528.94,2728.68 1492.1,2789.78 1518.17,2830.25 1492.1,2871.44 1455.91,2810.15 1374.44,2953.81 1455.91,3092.28 1492.1,3031.38 1518.17,3071.46 1492.1,3112.65 1528.94,3173.94 1518.17,3195.02 "/>
   <polygon class="fil3" points="1600.28,2830.25 1589.52,2871.44 1589.52,2933.7 1554.11,2933.7 1528.94,2953.81 1554.11,2973.72 1589.52,2973.72 1589.52,3031.38 1600.28,3071.46 "/>
   <polygon class="fil3" points="1600.28,4249.55 1600.28,4208.63 1538.27,4107 1554.11,4085.97 1518.17,4024.62 1528.94,4003.15 1554.11,4044.79 1562.8,4024.62 1481.53,3880.7 1466.67,3901.78 1481.53,3921.69 1455.91,3963.07 1399.15,3861.05 1455.91,3763.38 1481.53,3804.56 1466.67,3824.92 1481.53,3845.03 1562.8,3702.01 1554.11,3680.74 1528.94,3722.84 1518.17,3702.01 1554.11,3640.47 1538.27,3619 1600.28,3517.62 1600.28,3476.44 1518.17,3619 1528.94,3640.47 1492.1,3702.01 1518.17,3741.84 1492.1,3783.48 1455.91,3722.84 1374.44,3864.94 1455.91,4003.15 1492.1,3942.96 1518.17,3983.24 1492.1,4024.62 1528.94,4085.97 1518.17,4107 "/>
   <polygon class="fil3" points="1600.28,3741.84 1589.52,3783.48 1589.52,3845.03 1554.11,3845.03 1528.94,3861.05 1554.11,3880.7 1589.52,3880.7 1589.52,3942.96 1600.28,3983.24 "/>
   <path class="fil3" d="M1600.28 300.39l0 -41.18 -27.61 -45.85c-5.87,2.54 -11.73,5.11 -17.58,7.69l45.18 79.34z"/>
   <path class="fil3" d="M1327.6 4878.47c5.75,-23.68 10.33,-116.52 -9.91,-120.3 -12.82,0 -31.44,43.44 -36.31,93.56 15.31,9.06 30.71,17.99 46.22,26.74zm54.56 29.94c37.11,-21.75 68.66,-47.95 62.98,-58.47 -19.54,-30.3 -83.55,8.8 -116.21,29.27 17.62,9.93 35.36,19.67 53.23,29.2z"/>
   <path class="fil3" d="M1379.7 4788.65c4.8,-26.59 -5.26,-124.01 -25.16,-124.01 -21.47,5.26 -41.64,124.01 0,190.36 40.08,-5.06 147.61,-96.84 137.56,-117.4 -20.62,-26.33 -82.18,24.45 -112.4,51.04l0 0z"/>
   <path class="fil3" d="M1414.73 4691.37c0,-26.73 -20.11,-117.78 -40.28,-117.78 -19.9,9.33 -26.53,122.84 24.71,188.48 42.1,-10.7 132.97,-126.73 123.56,-142.95 -26.07,-20.17 -81.46,40.02 -107.99,72.25l0 0z"/>
   <path class="fil3" d="M1409.92 4577.67c0,97.48 20.62,97.48 56.75,25.88 19.92,-25.88 19.92,-143.01 4.81,-143.01 -20.83,-5.25 -61.56,77.12 -61.56,117.13l0 0z"/>
   <polygon class="fil4" points="1379.7,3559 1306.29,3559 1306.29,3619 1240.84,3619 1240.84,3680.74 963.76,3680.74 916.87,3741.84 943.59,3773.61 1056.44,3773.61 1082.07,3741.84 963.76,3741.84 989.64,3712.59 1148.16,3712.59 1082.07,3804.56 916.87,3804.56 870.89,3773.61 824.9,3804.56 666.33,3804.56 598.81,3712.59 759.19,3712.59 778.66,3741.84 666.33,3741.84 690.59,3773.61 804.08,3773.61 824.9,3741.84 778.66,3680.74 526.94,3680.74 526.94,3619 460.14,3619 460.14,3559 393.34,3559 393.34,3277.84 460.14,3277.84 460.14,3215.13 526.94,3215.13 526.94,3153.83 778.66,3153.83 824.9,3092.28 804.08,3060.7 690.59,3060.7 666.33,3092.28 778.66,3092.28 759.19,3123.16 598.81,3123.16 666.33,3031.38 824.9,3031.38 870.89,3060.7 916.87,3031.38 1082.07,3031.38 1148.16,3123.16 989.64,3123.16 963.76,3092.28 1082.07,3092.28 1056.44,3060.7 943.59,3060.7 916.87,3092.28 963.76,3153.83 1240.84,3153.83 1240.84,3215.13 1306.29,3215.13 1306.29,3277.84 1379.7,3277.84 "/>
   <polygon class="fil5" points="413.96,3312.34 413.96,3527.23 480.77,3527.23 480.77,3589.68 552.82,3589.68 552.82,3651.23 778.66,3651.23 870.89,3741.84 963.76,3651.23 1214.31,3651.23 1214.31,3589.68 1287.08,3589.68 1287.08,3527.23 1354.54,3527.23 1354.54,3307.09 1287.08,3307.09 1287.08,3245.54 1214.31,3251.05 1214.31,3183.54 963.76,3183.54 870.89,3092.28 778.66,3183.54 552.82,3183.54 552.82,3251.05 480.77,3251.05 480.77,3312.34 "/>
   <path class="fil6" d="M399.3 3297.75l14.65 0 0 14.59 -14.65 0 0 -14.59zm81.46 30.87l-66.81 0 0 -30.87 66.81 0 0 30.87zm16.02 0l-16.02 0 0 -16.28 16.02 0 0 16.28zm0 -16.28l-31.39 0 0 -61.29 31.39 0 0 61.29zm-31.39 -76.14l15.38 0 0 14.85 -15.38 0 0 -14.85zm87.43 29.51l-72.05 0 0 -29.51 72.05 0 0 29.51zm15.31 0l-15.31 0 0 -14.66 15.31 0 0 14.66zm0 -14.66l-31.33 0 0 -67.52 31.33 0 0 67.52zm-31.33 -82.63l16.02 0 0 15.83 -16.02 0 0 -15.83zm241.86 31.84l-225.84 0 0 -31.84 225.84 0 0 31.84zm16.02 0l-16.02 0 0 -16.73 16.02 16.73zm86.91 -92.88l-86.91 92.88 -26.07 -26.33 92.17 -91.71 20.81 25.16zm-20.81 -25.16l10.12 -10.76 10.7 10.76 -10.7 10.05 -10.12 -10.05zm92.23 118.04l-92.23 -92.88 20.81 -25.16 92.23 91.71 -20.82 26.33zm10.76 0l-10.76 0 10.76 -16.73 0 16.73zm250.55 0l-250.55 0 0 -31.84 250.55 0 0 31.84zm0 -31.84l17.12 0 0 15.83 -17.12 0 0 -15.83zm-14.85 15.11l31.97 0 0 67.52 -31.97 0 0 -67.52zm14.85 82.18l-14.85 0 0 -14.66 14.85 0 0 14.66zm72.77 -3.9l-72.77 3.9 0 -29.51 72.77 -6.23 0 31.84zm0 -31.84l14.59 0 0 15.57 -14.59 0 0 -15.57zm-15.37 15.57l29.96 0 0 61.55 -29.96 0 0 -61.55zm15.37 76.21l-15.37 0 0 -14.66 15.37 0 0 14.66zm67.46 0l-67.46 0 0 -30.42 67.46 0 0 30.42zm0 -30.42l14 0 0 15.76 -14 0 0 -15.76zm-16.02 15.76l30.03 0 0 220.13 -30.03 0 0 -220.13zm30.03 235.89l-14 0 0 -15.76 14 0 0 15.76zm-81.46 -30.42l67.46 0 0 30.42 -67.46 0 0 -30.42zm-15.37 0l15.37 0 0 14.67 -15.37 0 0 -14.67zm0 14.67l29.96 0 0 62.46 -29.96 0 0 -62.46zm29.96 77.31l-14.59 0 0 -14.85 14.59 0 0 14.85zm-87.36 -30.87l72.77 0 0 30.87 -72.77 0 0 -30.87zm-14.85 0l14.85 0 0 16.02 -14.85 0 0 -16.02zm0 16.02l31.97 0 0 61.55 -31.97 0 0 -61.55zm31.97 76.21l-17.12 0 0 -14.66 17.12 0 0 14.66zm-267.67 -30.68l250.55 0 0 30.68 -250.55 0 0 -30.68zm-10.76 0l10.76 0 0 16.02 -10.76 -16.02zm-92.23 92.23l92.23 -92.23 20.82 25.42 -92.23 91.97 -20.81 -25.16zm20.81 25.16l-10.7 10.77 -10.12 -10.77 10.12 -10.76 10.7 10.76zm-86.91 -117.39l86.91 92.23 -20.81 25.16 -92.17 -91.97 26.07 -25.42zm-16.02 0l16.02 0 -16.02 16.02 0 -16.02zm-225.84 0l225.84 0 0 30.68 -225.84 0 0 -30.68zm0 30.68l-16.02 0 0 -14.66 16.02 0 0 14.66zm15.31 -14.66l-31.33 0 0 -61.55 31.33 0 0 61.55zm-15.31 -77.57l15.31 0 0 16.02 -15.31 0 0 -16.02zm-72.05 0l72.05 0 0 30.87 -72.05 0 0 -30.87zm0 30.87l-15.38 0 0 -14.85 15.38 0 0 14.85zm16.02 -14.85l-31.39 0 0 -62.46 31.39 0 0 62.46zm-16.02 -77.12l16.02 0 0 14.67 -16.02 0 0 -14.67zm-66.81 0l66.81 0 0 30.42 -66.81 0 0 -30.42zm0 30.42l-14.65 0 0 -15.76 14.65 0 0 15.76zm16.02 -15.76l-30.68 0 0 -214.88 30.68 0 0 214.88z"/>
   <polygon class="fil4" points="737.21,3215.13 598.81,3368.44 598.81,3215.13 "/>
   <polygon class="fil4" points="1009.04,3215.13 1148.16,3368.44 1148.16,3215.13 "/>
   <polygon class="fil4" points="737.21,3619 598.81,3466.84 598.81,3619 "/>
   <polygon class="fil4" points="1009.04,3619 1148.16,3466.84 1148.16,3619 "/>
   <polygon class="fil4" points="1056.44,3307.09 1009.04,3368.44 1101.53,3368.44 "/>
   <polygon class="fil4" points="690.59,3307.09 645.05,3368.44 737.21,3368.44 "/>
   <polygon class="fil4" points="690.59,3527.23 645.05,3466.84 737.21,3466.84 "/>
   <polygon class="fil4" points="1056.44,3527.23 1009.04,3466.84 1101.53,3466.84 "/>
   <polygon class="fil3" points="870.89,3680.74 824.9,3619 916.87,3619 "/>
   <polygon class="fil3" points="870.89,3368.44 824.9,3307.09 916.87,3307.09 "/>
   <polygon class="fil3" points="870.89,3153.83 824.9,3215.13 916.87,3215.13 "/>
   <polygon class="fil3" points="870.89,3466.84 824.9,3527.23 916.87,3527.23 "/>
   <polygon class="fil3" points="1009.04,3400.23 1101.46,3400.23 1101.46,3368.44 1009.04,3368.44 "/>
   <polygon class="fil7" points="666.33,3435.25 711.79,3435.25 711.79,3400.23 666.33,3400.23 "/>
   <polygon class="fil7" points="1034.72,3435.25 1082.07,3435.25 1082.07,3400.23 1034.72,3400.23 "/>
   <polygon class="fil8" points="824.9,3245.54 916.87,3245.54 916.87,3215.19 824.9,3215.19 "/>
   <polygon class="fil8" points="824.9,3307.09 916.87,3307.09 916.87,3277.77 824.9,3277.77 "/>
   <polygon class="fil8" points="804.08,3277.84 943.65,3277.84 943.65,3245.54 804.08,3245.54 "/>
   <polygon class="fil8" points="824.9,3559 916.87,3559 916.87,3527.23 824.9,3527.23 "/>
   <polygon class="fil8" points="824.9,3619 916.87,3619 916.87,3589.75 824.9,3589.75 "/>
   <polygon class="fil8" points="804.08,3589.68 943.65,3589.68 943.65,3559 804.08,3559 "/>
   <polygon class="fil3" points="1009.04,3466.84 1101.46,3466.84 1101.46,3435.25 1009.04,3435.25 "/>
   <polygon class="fil3" points="645.05,3400.23 737.15,3400.23 737.15,3368.44 645.05,3368.44 "/>
   <polygon class="fil3" points="645.05,3466.84 737.15,3466.84 737.15,3435.25 645.05,3435.25 "/>
   <polygon class="fil3" points="619.62,3435.25 666.26,3435.25 666.26,3400.23 619.62,3400.23 "/>
   <polygon class="fil3" points="711.85,3435.25 759.19,3435.25 759.19,3400.23 711.85,3400.23 "/>
   <polygon class="fil3" points="989.64,3435.25 1034.65,3435.25 1034.65,3400.23 989.64,3400.23 "/>
   <polygon class="fil3" points="1082.07,3435.25 1122.61,3435.25 1122.61,3400.23 1082.07,3400.23 "/>
   <path class="fil9" d="M820.04 3573.67c0,0 0,4.6 -5.25,4.6l-4.8 -4.6c0,-5.26 4.8,-9.35 4.8,-9.35 5.25,0 5.25,4.09 5.25,9.35l0 0z"/>
   <path class="fil9" d="M881.58 3573.67c0,0 -4.8,4.6 -10.7,4.6l-4.8 -4.6c0,-5.26 4.8,-9.35 4.8,-9.35 5.9,0 10.7,4.09 10.7,9.35l0 0z"/>
   <path class="fil9" d="M936.97 3568.41c0,5.26 -4.8,9.86 -4.8,9.86 -4.54,0 -10.05,-4.6 -10.05,-9.86 0,0 5.51,-4.09 10.05,-4.09l4.8 4.09z"/>
   <path class="fil9" d="M845.47 3542.98l-4.61 5.52c-5.44,0 -5.44,-5.52 -5.44,-5.52 0,-4.99 0,-10.05 5.44,-10.05 0,0 4.61,5.06 4.61,10.05l0 0z"/>
   <path class="fil9" d="M911.35 3537.99c0,4.99 0,10.51 -4.34,10.51 -4.8,0 -4.8,-5.52 -4.8,-10.51 0,0 0,-5.06 4.8,-5.06 4.34,0 4.34,5.06 4.34,5.06l0 0z"/>
   <path class="fil9" d="M845.47 3599.09c0,5.44 -4.61,10.76 -4.61,10.76 -5.44,0 -5.44,-5.32 -5.44,-10.76 0,0 0,-5.25 5.44,-5.25l4.61 5.25z"/>
   <path class="fil9" d="M911.35 3604.53c0,5.32 0,5.32 -4.34,5.32 -4.8,0 -4.8,0 -4.8,-5.32 0,-5.44 0,-10.7 4.8,-10.7 4.34,0 4.34,5.25 4.34,10.7l0 0z"/>
   <path class="fil9" d="M1004.49 3415.54c0,4.86 -4.8,10.12 -4.8,10.12 -5.26,0 -5.26,-5.25 -5.26,-10.12 0,-5.45 0,-5.45 5.26,-5.45 0,0 4.8,0 4.8,5.45l0 0z"/>
   <path class="fil9" d="M1061.25 3415.54c0,4.86 0,10.12 -4.8,10.12 -5.97,0 -5.97,-5.25 -5.97,-10.12 0,-5.45 0,-5.45 5.97,-5.45 4.8,0 4.8,0 4.8,5.45l0 0z"/>
   <path class="fil9" d="M1117.28 3415.54c0,4.86 0,10.12 -4.8,10.12 -5.25,0 -5.25,-5.25 -5.25,-10.12 0,-5.45 0,-5.45 5.25,-5.45 4.8,0 4.8,0 4.8,5.45l0 0z"/>
   <path class="fil9" d="M1025.31 3384.66c0,3.89 0,9.41 -5.51,9.41 0,0 -4.54,-5.52 -4.54,-9.41 0,-5.44 4.54,-5.44 4.54,-5.44 5.51,0 5.51,0 5.51,5.44l0 0z"/>
   <path class="fil9" d="M1096.72 3384.66c0,3.89 -4.6,9.41 -4.6,9.41 -5.51,0 -10.05,-5.52 -10.05,-9.41 0,-5.44 4.54,-5.44 10.05,-5.44 0,0 4.6,0 4.6,5.44l0 0z"/>
   <path class="fil9" d="M1025.31 3445.76c0,5.5 0,9.6 -5.51,9.6 0,0 -4.54,-4.09 -4.54,-9.6 0,-4.99 4.54,-4.99 4.54,-4.99 5.51,0 5.51,0 5.51,4.99l0 0z"/>
   <path class="fil9" d="M1096.72 3445.76c0,5.5 -4.6,9.6 -4.6,9.6 -5.51,0 -10.05,-4.09 -10.05,-9.6 0,0 4.54,-4.99 10.05,-4.99l4.6 4.99z"/>
   <path class="fil9" d="M820.04 3261.82c0,3.9 0,9.35 -5.25,9.35 0,0 -4.8,-5.45 -4.8,-9.35l4.8 -5.5c5.25,0 5.25,5.5 5.25,5.5l0 0z"/>
   <path class="fil9" d="M876.79 3261.82c0,3.9 0,9.35 -5.9,9.35 0,0 -4.8,-5.45 -4.8,-9.35l4.8 -5.5c5.9,0 5.9,5.5 5.9,5.5l0 0z"/>
   <path class="fil9" d="M936.97 3261.82c0,3.9 -4.8,9.35 -9.34,9.35 0,0 -5.51,-5.45 -5.51,-9.35 0,-5.5 5.51,-5.5 5.51,-5.5 4.54,0 9.34,0 9.34,5.5l0 0z"/>
   <path class="fil9" d="M845.47 3229.98c0,6.23 -4.61,10.31 -4.61,10.31 -5.44,0 -5.44,-4.09 -5.44,-10.31 0,0 0,-5.25 5.44,-5.25l4.61 5.25z"/>
   <path class="fil9" d="M911.35 3229.98c0,6.23 0,10.31 -4.34,10.31 -4.8,0 -4.8,-4.09 -4.8,-10.31 0,-5.25 0,-5.25 4.8,-5.25 4.34,0 4.34,0 4.34,5.25l0 0z"/>
   <path class="fil9" d="M845.47 3291.33c0,6.42 -4.61,11.67 -4.61,11.67 -5.44,0 -10.05,-5.25 -10.05,-11.67 0,-4.15 4.61,-4.15 10.05,-4.15 0,0 4.61,0 4.61,4.15l0 0z"/>
   <path class="fil9" d="M911.35 3297.75c0,0 0,5.25 -4.34,5.25 -4.8,0 -4.8,-5.25 -4.8,-5.25 0,-6.42 0,-10.57 4.8,-10.57 4.34,0 4.34,4.15 4.34,10.57l0 0z"/>
   <path class="fil9" d="M639.79 3420.4c0,5.25 -4.86,5.25 -4.86,5.25 -4.54,0 -10.5,0 -10.5,-5.25 0,-4.86 5.96,-10.31 10.5,-10.31 0,0 4.86,5.45 4.86,10.31l0 0z"/>
   <path class="fil9" d="M697.2 3420.4c0,5.25 -6.61,5.25 -6.61,5.25 -4.81,0 -4.81,0 -4.81,-5.25 0,-4.86 0,-10.31 4.81,-10.31 0,0 6.61,5.45 6.61,10.31l0 0z"/>
   <path class="fil9" d="M753.23 3420.4l-5.25 5.25c-6.16,0 -6.16,-5.25 -6.16,-5.25 0,-4.86 0,-10.31 6.16,-10.31 0,0 5.25,5.45 5.25,10.31l0 0z"/>
   <path class="fil9" d="M660.36 3388.55c0,5.52 0,5.52 -4.54,5.52 -5.32,0 -5.32,0 -5.32,-5.52 0,-3.89 0,-9.33 5.32,-9.33 4.54,0 4.54,5.44 4.54,9.33l0 0z"/>
   <path class="fil9" d="M727.15 3388.55c0,0 0,5.52 -4.8,5.52l-5.7 -5.52c0,-3.89 5.7,-9.33 5.7,-9.33 4.8,0 4.8,5.44 4.8,9.33l0 0z"/>
   <path class="fil9" d="M660.36 3451.27c0,0 0,4.09 -4.54,4.09 -5.32,0 -5.32,-4.09 -5.32,-4.09 0,-5.5 0,-10.5 5.32,-10.5 4.54,0 4.54,4.99 4.54,10.5l0 0z"/>
   <path class="fil9" d="M727.15 3451.27c0,4.09 0,4.09 -4.8,4.09 0,0 -5.7,0 -5.7,-4.09 0,-5.5 5.7,-10.5 5.7,-10.5 4.8,0 4.8,4.99 4.8,10.5l0 0z"/>
   <polygon class="fil9" points="963.76,2744.45 1004.49,2723.43 1039.71,2744.45 "/>
   <polygon class="fil9" points="845.47,2744.45 886.19,2723.43 922.12,2744.45 "/>
   <polygon class="fil9" points="727.15,2744.45 768.6,2723.43 804.08,2744.45 "/>
   <polygon class="fil9" points="963.76,2205.67 1004.49,2225.52 1039.71,2205.67 "/>
   <polygon class="fil9" points="845.47,2205.67 886.19,2225.52 922.12,2205.67 "/>
   <polygon class="fil9" points="727.15,2205.67 768.6,2225.52 804.08,2205.67 "/>
   <polygon class="fil5" points="932.18,2732.57 886.19,2774.22 840.85,2732.57 794.67,2774.22 747.98,2732.57 747.98,2754.11 778.66,2774.22 762.64,2789.78 762.64,2810.15 778.66,2810.15 794.67,2789.78 809.98,2810.15 824.9,2810.15 824.9,2789.78 809.98,2774.22 840.85,2754.11 870.89,2774.22 855.96,2789.78 855.96,2810.15 870.89,2810.15 886.19,2789.78 902.21,2810.15 916.87,2810.15 916.87,2789.78 902.21,2774.22 932.18,2754.11 963.76,2774.22 948.46,2789.78 948.46,2810.15 963.76,2810.15 973.82,2789.78 989.64,2810.15 1004.49,2810.15 1004.49,2789.78 989.64,2774.22 1019.8,2754.11 1019.8,2732.57 973.82,2774.22 "/>
   <polygon class="fil5" points="932.18,2200.35 886.19,2164.94 840.85,2200.35 794.67,2164.94 747.98,2200.35 747.98,2185.76 778.66,2164.94 762.64,2149.57 762.64,2129.46 778.66,2129.46 794.67,2149.57 809.98,2129.46 824.9,2129.46 824.9,2149.57 809.98,2164.94 840.85,2185.76 870.89,2164.94 855.96,2149.57 855.96,2129.46 870.89,2129.46 886.19,2149.57 902.21,2129.46 916.87,2129.46 916.87,2149.57 902.21,2164.94 932.18,2185.76 963.76,2164.94 948.46,2149.57 948.46,2129.46 963.76,2129.46 973.82,2149.57 989.64,2129.46 1004.49,2129.46 1004.49,2149.57 989.64,2164.94 1019.8,2185.76 1019.8,2200.35 973.82,2164.94 "/>
   <polygon class="fil5" points="1276.31,2507.65 1327.1,2467.18 1276.31,2431.44 1327.1,2390.06 1276.31,2349.78 1301.67,2349.78 1327.1,2375.4 1354.54,2364.63 1379.7,2364.63 1379.7,2375.4 1354.54,2390.06 1379.7,2400.83 1379.7,2416.39 1354.54,2416.39 1327.1,2400.83 1301.67,2431.44 1327.1,2456.86 1354.54,2441.76 1379.7,2441.76 1379.7,2456.86 1354.54,2467.18 1379.7,2482.74 1379.7,2497.85 1354.54,2497.85 1327.1,2482.74 1301.67,2507.65 1327.1,2533.53 1354.54,2523.22 1379.7,2523.22 1379.7,2533.53 1354.54,2549.55 1379.7,2564.4 1379.7,2575.17 1354.54,2575.17 1327.1,2564.4 1301.67,2589.82 1276.31,2589.82 1327.1,2549.55 "/>
   <polygon class="fil5" points="491.99,2507.65 440.03,2467.18 491.99,2431.44 440.03,2390.06 491.99,2349.78 465.39,2349.78 440.03,2375.4 413.96,2364.63 393.34,2364.63 393.34,2375.4 413.96,2390.06 393.34,2400.83 393.34,2416.39 413.96,2416.39 440.03,2400.83 465.39,2431.44 440.03,2456.86 413.96,2441.76 393.34,2441.76 393.34,2456.86 413.96,2467.18 393.34,2482.74 393.34,2497.85 413.96,2497.85 440.03,2482.74 465.39,2507.65 440.03,2533.53 413.96,2523.22 393.34,2523.22 393.34,2533.53 413.96,2549.55 393.34,2564.4 393.34,2575.17 413.96,2575.17 440.03,2564.4 465.39,2589.82 491.99,2589.82 440.03,2549.55 "/>
   <polygon class="fil5" points="1297.14,2661.88 1317.69,2661.88 1317.69,2641.97 1297.14,2641.97 "/>
   <polygon class="fil5" points="1276.31,2681.99 1297.14,2681.99 1297.14,2661.88 1276.31,2661.88 "/>
   <polygon class="fil5" points="1178.57,2774.22 1199.46,2774.22 1199.46,2754.11 1178.57,2754.11 "/>
   <polygon class="fil5" points="1199.46,2754.11 1219.56,2754.11 1219.56,2732.57 1199.46,2732.57 "/>
   <polygon class="fil5" points="548.22,2754.11 568.19,2754.11 568.19,2732.57 548.22,2732.57 "/>
   <polygon class="fil5" points="450.8,2661.88 471.42,2661.88 471.42,2641.97 450.8,2641.97 "/>
   <polygon class="fil5" points="471.36,2681.99 491.92,2681.99 491.92,2661.88 471.36,2661.88 "/>
   <polygon class="fil5" points="471.36,2277.92 491.92,2277.92 491.92,2256.52 471.36,2256.52 "/>
   <polygon class="fil5" points="450.8,2293.74 471.42,2293.74 471.42,2277.92 450.8,2277.92 "/>
   <polygon class="fil5" points="568.13,2185.76 588.95,2185.76 588.95,2164.94 568.13,2164.94 "/>
   <polygon class="fil5" points="548.22,2200.35 568.19,2200.35 568.19,2185.82 548.22,2185.82 "/>
   <polygon class="fil5" points="1178.57,2185.76 1199.46,2185.76 1199.46,2164.94 1178.57,2164.94 "/>
   <polygon class="fil5" points="1199.46,2200.35 1219.56,2200.35 1219.56,2185.82 1199.46,2185.82 "/>
   <polygon class="fil5" points="1276.31,2277.92 1297.14,2277.92 1297.14,2256.52 1276.31,2256.52 "/>
   <polygon class="fil5" points="1297.14,2293.74 1317.69,2293.74 1317.69,2277.92 1297.14,2277.92 "/>
   <polygon class="fil5" points="568.13,2774.22 588.95,2774.22 588.95,2754.11 568.13,2754.11 "/>
   <path class="fil9" d="M824.9 2467.18l-56.3 0 0 -35.74 35.48 0 0 -30.61 41.39 0 0 -30.87 36.12 0 0 34.96c-31.32,0 -56.69,26.53 -56.69,62.27l0 0z"/>
   <path class="fil3" d="M936.97 2467.18l62.72 0 0 -35.74 -41.19 0 0 -30.61 -36.39 0 0 -30.87 -40.54 0 0 34.96c29.77,0 55.39,26.53 55.39,62.27l0 0z"/>
   <path class="fil9" d="M936.97 2467.18l62.72 0 0 35.67 -41.19 0 0 36.19 -36.39 0 0 29.52 -40.54 0 0 -35.02c29.77,0 55.39,-30.68 55.39,-66.35l0 0z"/>
   <path class="fil3" d="M824.9 2467.18l-56.3 0 0 35.67 35.48 0 0 36.19 41.39 0 0 29.52 36.12 0 0 -35.02c-31.32,0 -56.69,-30.68 -56.69,-66.35l0 0z"/>
   <path class="fil5" d="M936.97 2467.18l-55.39 0 0 -62.27c29.77,0 55.39,31.58 55.39,62.27l0 0z"/>
   <path class="fil4" d="M936.97 2467.18l-55.39 0 0 66.35c29.77,0 55.39,-30.68 55.39,-66.35l0 0z"/>
   <path class="fil5" d="M824.9 2467.18l56.69 0 0 66.35c-31.32,0 -56.69,-30.68 -56.69,-66.35l0 0z"/>
   <path class="fil4" d="M824.9 2467.18l56.69 0 0 -62.27c-31.32,0 -56.69,31.58 -56.69,62.27l0 0z"/>
   <polygon class="fil5" points="943.59,2698.01 886.19,2661.88 824.9,2698.01 768.6,2661.88 706.6,2698.01 706.6,2681.99 747.98,2661.88 727.15,2641.97 727.15,2625.76 747.98,2625.76 768.6,2641.97 784.63,2625.76 804.08,2625.76 804.08,2641.97 784.63,2661.88 824.9,2681.99 866.09,2661.88 845.47,2641.97 845.47,2625.76 866.09,2625.76 886.19,2641.97 902.21,2625.76 922.12,2625.76 922.12,2641.97 902.21,2661.88 943.59,2681.99 983.67,2661.88 963.76,2641.97 963.76,2625.76 983.67,2625.76 1004.49,2641.97 1019.8,2625.76 1039.71,2625.76 1039.71,2641.97 1019.8,2661.88 1059.88,2681.99 1059.88,2698.01 1004.49,2661.88 "/>
   <polygon class="fil5" points="943.59,2240.89 886.19,2277.92 824.9,2240.89 768.6,2277.92 706.6,2240.89 706.6,2256.45 747.98,2277.92 727.15,2293.74 727.15,2312.49 747.98,2312.49 768.6,2293.74 784.63,2312.49 804.08,2312.49 804.08,2293.74 784.63,2277.92 824.9,2256.45 866.09,2277.92 845.47,2293.74 845.47,2312.49 866.09,2312.49 886.19,2293.74 902.21,2312.49 922.12,2312.49 922.12,2293.74 902.21,2277.92 943.59,2256.45 983.67,2277.92 963.76,2293.74 963.76,2312.49 983.67,2312.49 1004.49,2293.74 1019.8,2312.49 1039.71,2312.49 1039.71,2293.74 1019.8,2277.92 1059.88,2256.45 1059.88,2240.89 1004.49,2277.92 "/>
   <polygon class="fil5" points="1158.92,2512.45 1133.3,2467.18 1158.92,2420.74 1133.3,2375.4 1158.92,2334.03 1143.36,2334.03 1133.3,2364.63 1117.28,2349.78 1101.53,2349.78 1101.53,2364.63 1117.28,2375.4 1101.53,2390.06 1101.53,2404.91 1117.28,2404.91 1133.3,2390.06 1143.36,2420.74 1133.3,2451.61 1117.28,2436.5 1101.53,2436.5 1101.53,2451.61 1117.28,2467.18 1101.53,2482.74 1101.53,2497.85 1117.28,2497.85 1133.3,2482.74 1143.36,2512.45 1133.3,2543.39 1117.28,2528.27 1101.53,2528.27 1101.53,2543.39 1117.28,2558.89 1101.53,2575.17 1101.53,2589.82 1117.28,2589.82 1133.3,2575.17 1143.36,2605.84 1158.92,2605.84 1133.3,2558.89 "/>
   <path class="fil5" d="M685.78 2200.35l-193.79 185.37 0 167.92 193.79 178.94 396.29 0 194.25 -178.94 0 -167.92 -194.25 -185.37 -396.29 0zm20.83 56.11l-76.22 77.57 0 271.82 76.22 76.15 354.64 0 76.86 -76.15 0 -271.82 -76.86 -77.57 -354.64 0z"/>
   <polygon class="fil3" points="789.17,2698.01 820.04,2732.57 850.26,2698.01 "/>
   <polygon class="fil3" points="789.17,2240.89 820.04,2200.35 850.26,2240.89 "/>
   <polygon class="fil3" points="916.87,2240.89 948.46,2200.35 978.16,2240.89 "/>
   <polygon class="fil3" points="916.87,2698.01 948.46,2732.57 978.16,2698.01 "/>
   <polygon class="fil4" points="727.15,2240.89 759.19,2200.35 789.17,2240.89 "/>
   <polygon class="fil4" points="850.26,2240.89 886.19,2200.35 916.87,2240.89 "/>
   <polygon class="fil4" points="978.16,2240.89 1009.04,2200.35 1039.71,2240.89 "/>
   <polygon class="fil4" points="650.5,2641.97 706.6,2698.01 650.5,2698.01 "/>
   <polygon class="fil5" points="608.86,2512.45 639.79,2467.18 608.86,2420.74 639.79,2375.4 608.86,2334.03 624.42,2334.03 639.79,2364.63 650.5,2349.78 666.33,2349.78 666.33,2364.63 650.5,2375.4 666.33,2390.06 666.33,2404.91 650.5,2404.91 639.79,2390.06 624.42,2420.74 639.79,2451.61 650.5,2436.5 666.33,2436.5 666.33,2451.61 650.5,2467.18 666.33,2482.74 666.33,2497.85 650.5,2497.85 639.79,2482.74 624.42,2512.45 639.79,2543.39 650.5,2528.27 666.33,2528.27 666.33,2543.39 650.5,2558.89 666.33,2575.17 666.33,2589.82 650.5,2589.82 639.79,2575.17 624.42,2605.84 608.86,2605.84 639.79,2558.89 "/>
   <polygon class="fil4" points="1178.57,2420.74 1261.66,2420.74 1276.31,2436.5 1261.66,2451.61 1178.57,2451.61 "/>
   <polygon class="fil4" points="650.5,2293.74 608.86,2334.03 608.86,2605.84 650.5,2641.97 588.95,2641.97 588.95,2293.74 "/>
   <polygon class="fil4" points="727.15,2698.01 759.19,2732.57 789.17,2698.01 "/>
   <polygon class="fil4" points="850.26,2698.01 886.19,2732.57 916.87,2698.01 "/>
   <polygon class="fil4" points="978.16,2698.01 1009.04,2732.57 1039.71,2698.01 "/>
   <polygon class="fil4" points="1122.54,2293.74 1158.92,2334.03 1158.92,2605.84 1122.54,2641.97 1178.57,2641.97 1178.57,2293.74 "/>
   <polygon class="fil4" points="1122.54,2641.97 1059.88,2698.01 1122.54,2698.01 "/>
   <polygon class="fil4" points="1122.54,2293.74 1059.88,2240.89 1122.54,2240.89 "/>
   <polygon class="fil4" points="650.5,2293.74 706.6,2240.89 650.5,2240.89 "/>
   <path class="fil5" d="M706.6 2240.89l-97.74 93.14 0 271.82 97.74 92.16 354.64 0 97.68 -92.16 0 -271.82 -97.68 -93.14 -354.64 0zm0 15.57l-76.22 77.57 0 271.82 76.22 76.15 354.64 0 76.86 -76.15 0 -271.82 -76.86 -77.57 -354.64 0z"/>
   <polygon class="fil3" points="1178.57,2451.61 1261.66,2451.61 1276.31,2467.18 1261.66,2487.28 1178.57,2487.28 "/>
   <polygon class="fil4" points="1178.57,2487.28 1261.66,2487.28 1276.31,2502.85 1261.66,2517.96 1178.57,2517.96 "/>
   <polygon class="fil3" points="1178.57,2517.96 1261.66,2517.96 1276.31,2533.53 1261.66,2553.63 1178.57,2553.63 "/>
   <polygon class="fil3" points="1178.57,2385.72 1261.66,2385.72 1276.31,2404.91 1261.66,2420.74 1178.57,2420.74 "/>
   <polygon class="fil4" points="588.95,2420.74 512.81,2420.74 491.99,2436.5 512.81,2451.61 588.95,2451.61 "/>
   <polygon class="fil3" points="588.95,2451.61 512.81,2451.61 491.99,2467.18 512.81,2487.28 588.95,2487.28 "/>
   <polygon class="fil4" points="588.95,2487.28 512.81,2487.28 491.99,2502.85 512.81,2517.96 588.95,2517.96 "/>
   <polygon class="fil3" points="588.95,2517.96 512.81,2517.96 491.99,2533.53 512.81,2553.63 588.95,2553.63 "/>
   <polygon class="fil3" points="588.95,2385.72 512.81,2385.72 491.99,2404.91 512.81,2420.74 588.95,2420.74 "/>
   <path class="fil10" d="M491.99 2293.74l0 348.23 96.96 0 0 90.6 589.63 0 0 -90.6 97.74 0 0 -348.23 -97.74 0 0 -93.4 -589.63 0 0 93.4 -96.96 0zm-20.63 -15.83l0 383.96 96.77 0 0 92.23 631.33 0 0 -92.23 97.68 0 0 -383.96 -97.68 0 0 -92.16 -631.33 0 0 92.16 -96.77 0z"/>
   <path class="fil4" d="M1379.7 392.55l-42.33 -62.91c-241.59,134.96 -459.45,307.24 -645.86,509.03l35.65 24.37 312.56 0 98.39 -66.15 123.56 0 56.03 -66.8 0 -66.8 62.01 -90.87 0 -179.85z"/>
   <path class="fil3" d="M711.06 817.66l36.92 25.2 138.21 0 0 -194.19c-60.96,53.61 -119.42,109.98 -175.13,168.99z"/>
   <path class="fil3" d="M1359.14 479.07l0 -67.52 -46.4 -68.15c-73.06,41.86 -143.9,87.15 -212.3,135.66l258.7 0z"/>
   <path class="fil4" d="M886.19 842.86l-40.72 0 -41.39 -45.98 -66.87 0 -4.01 -2.33c7,-7.23 14,-14.45 21.08,-21.6l4.91 3.36 35.48 0 36.13 -71.67 55.39 25.42 0 46.24 -55.39 0 55.39 66.54z"/>
   <path class="fil9" d="M1359.14 479.07l0 66.8 -62 91.97 0 66.8 -56.3 71.67 -118.3 0 -102.74 66.54 -133.61 0 0 -194.19c68.36,-60.12 139.83,-116.8 214.25,-169.59l258.7 0z"/>
   <polygon class="fil4" points="886.19,842.86 922.12,842.86 963.76,796.88 1029.85,796.88 1066.5,776.32 1050.48,751.09 1009.04,776.32 973.82,776.32 936.97,704.65 886.19,730.07 886.19,776.32 936.97,776.32 "/>
   <path class="fil9" d="M886.19 648.67l0 148.21 -20.1 0 20.1 20.63 0 25.36 -55.39 -66.54 0 -25.23 14.67 0 0 25.23 20.62 0 0 -25.23 -53.81 -35.01c24.18,-22.96 48.87,-45.38 73.92,-67.41z"/>
   <path class="fil5" d="M886.19 648.67l0 102.42 -63.19 -45c20.75,-19.48 41.82,-38.62 63.19,-57.42z"/>
   <path class="fil4" d="M1168.78 458.26l72.06 -60.84 40.28 0 -9.41 -15.57 13.9 -22.51c-45.6,26.86 -90.39,54.95 -134.16,84.45l17.33 14.47z"/>
   <path class="fil9" d="M1323.66 479.07l-21.99 0 -14.59 -20.82 -22.24 20.82 -164.4 0c28.73,-20.38 57.95,-40.09 87.53,-59.32l42.11 38.5 34.77 0 22.24 -25.62 -22.24 -21.08 22.24 0 36.58 67.52z"/>
   <path class="fil5" d="M1240.84 479.07l-140.4 0c25.28,-17.93 50.98,-35.29 76.91,-52.33l63.49 52.33z"/>
   <polygon class="fil4" points="1050.48,637.85 1122.54,695.05 1163.53,695.05 1153.4,715.22 1178.57,755.5 1163.53,776.32 1122.54,755.5 1107.23,776.32 1101.53,724.82 1019.8,663.27 "/>
   <polygon class="fil4" points="1128.05,591.21 1199.46,653.87 1245.45,653.87 1230.07,669.69 1261.66,709.71 1245.45,730.07 1199.46,709.71 1188.69,730.07 1178.57,679.49 1101.53,617.74 "/>
   <polygon class="fil4" points="1168.78,504.24 1240.84,561.64 1281.12,561.64 1271.71,581.81 1297.14,617.74 1281.12,637.85 1240.84,617.74 1225.08,637.85 1219.56,587.06 1138.1,525.77 "/>
   <path class="fil3" d="M1323.66 479.07l-21.99 0 -14.59 25.16 -22.24 -25.16 -164.4 0c-74.43,52.79 -145.88,109.48 -214.25,169.59l0 148.21 16.02 0 -16.02 20.63 0 25.36 50.79 -66.54 0 -25.23 -14.85 0 0 25.23 -19.91 0 0 -25.23 148.26 -97.23 123.56 0 0 -97.48 56.04 -52.15 34.77 0 22.24 21.53 -22.24 20.11 22.24 0 36.58 -66.8z"/>
   <path class="fil4" d="M1240.84 479.07l-140.4 0c-74.43,52.79 -145.88,109.48 -214.25,169.59l0 102.42 153.52 -113.24 119.21 0 0 -91.97 81.92 -66.8z"/>
   <path class="fil5" d="M1014.93 542.55l4.87 3.33 62.27 0 -22.18 26.53 41.64 45.34 -19.46 20.11 -62.27 -20.11 -15.31 20.11 -10.05 -61.56 -12.18 -8.11c10.82,-8.64 21.71,-17.17 32.67,-25.63z"/>
   <polygon class="fil4" points="1264.84,525.77 1250.24,545.88 1264.84,572.4 1287.08,572.4 1338.52,479.07 1323.66,479.07 1287.08,545.88 1264.84,545.88 1287.08,525.77 1264.84,504.24 1230.07,504.24 1230.07,525.77 "/>
   <polygon class="fil4" points="1264.84,432.63 1250.24,411.56 1264.84,392.55 1287.08,392.55 1338.52,479.07 1323.66,479.07 1287.08,411.56 1264.84,411.56 1287.08,432.63 1264.84,458.26 1230.07,458.26 1230.07,432.63 "/>
   <path class="fil5" d="M722.36 4024.62l-216.87 124.87c158.97,216.16 350.48,406.84 567.3,564.94l306.91 -176.78 0 -323.58 -329.23 -189.45 -328.12 0z"/>
   <path class="fil7" d="M594.27 4263.71l0 -69.75 -20.62 0 0 44.14c6.86,8.55 13.65,17.16 20.62,25.61z"/>
   <polygon class="fil7" points="1015.26,4664.64 1034.72,4664.64 1034.72,4619.11 1077.26,4619.11 1077.26,4664.64 1096.72,4664.64 1096.72,4557.76 1077.26,4557.76 1077.26,4603.55 1034.72,4603.55 1034.72,4557.76 1015.26,4557.76 "/>
   <polygon class="fil7" points="1174.03,4300.79 1194.85,4300.79 1194.85,4255.07 1234.87,4255.07 1234.87,4300.79 1255.49,4300.79 1255.49,4193.96 1234.87,4193.96 1234.87,4239.24 1194.85,4239.24 1194.85,4193.96 1174.03,4193.96 "/>
   <polygon class="fil7" points="1174.03,4485.7 1194.85,4485.7 1194.85,4439.46 1234.87,4439.46 1234.87,4485.7 1255.49,4485.7 1255.49,4372.65 1234.87,4372.65 1234.87,4424.8 1194.85,4424.8 1194.85,4372.65 1174.03,4372.65 "/>
   <path class="fil3" d="M886.19 4564.9l0 -192.25 472.95 0 0 154.24 -300.84 176.97c-59.35,-43.9 -116.76,-90.28 -172.1,-138.95z"/>
   <path class="fil3" d="M886.19 4040.64l0 332.01 -196.78 0c-61.53,-66.77 -119.67,-136.69 -174.04,-209.63l211.79 -122.38 159.03 0z"/>
   <polygon class="fil9" points="886.19,4040.64 886.19,4372.65 1359.14,4372.65 1359.14,4224.39 1045.68,4040.64 "/>
   <path class="fil9" d="M886.19 4564.9l0 -192.25 -196.78 0c62.18,67.48 127.87,131.65 196.78,192.25z"/>
   <path class="fil3" d="M1359.14 4224.39l0 148.26 -299.25 0 0 -117.58 -65.44 0 -77.57 -46.44 0 -106.89 46.89 -46.43 -61.55 0 0 153.32 -16.02 0 0 -167.99 159.49 0 313.46 183.75zm-221.03 14.85l188.99 0 -188.99 -91.71 0 91.71z"/>
   <path class="fil4" d="M727.15 4270.18l0 142.66c31.26,32.52 63.38,64.2 96.28,95.06l62.75 33.84 108.25 -60.83 51.24 0 0 -210.73 -51.24 0 -108.25 -61.55 -112.79 61.55 -46.25 0z"/>
   <path class="fil3" d="M689.41 4372.65l22.44 0 0 24.11c-7.54,-7.98 -15,-16.03 -22.44,-24.11zm176.68 174.42l0 -5.33 20.1 0 0 23.17c-6.73,-5.91 -13.44,-11.86 -20.1,-17.84z"/>
   <path class="fil9" d="M689.41 4372.65l22.44 0 0 -117.58 61.56 0 76.86 -46.44 0 -106.89 -46.18 -46.43 62.01 0 0 153.32 20.1 0 0 -167.99 -159.03 0 -211.79 122.38c7.32,9.82 14.79,19.5 22.26,29.2l92.76 -44.69 0 91.71 -55.83 0c36.82,45.74 75.09,90.27 114.85,133.41z"/>
   <path class="fil9" d="M1359.14 4526.89l0 -154.24 -299.25 0 0 123.82 -65.44 0 -77.57 45.27 0 49.72c45.81,39.05 92.96,76.55 141.42,112.4l300.84 -176.97zm-456.92 52.18l0 -37.33 -16.02 0 0 23.17c5.35,4.71 10.63,9.5 16.02,14.16zm235.89 -67.75l188.99 0 -188.99 92.23 0 -92.23z"/>
   <polygon class="fil4" points="690.59,4101.74 711.85,4101.74 711.85,4147.53 753.23,4147.53 753.23,4101.74 773.4,4101.74 773.4,4208.63 753.23,4208.63 753.23,4163.1 711.85,4163.1 711.85,4208.63 690.59,4208.63 "/>
   <polygon class="fil4" points="1184.09,4361.89 1204.26,4361.89 1204.26,4316.62 1245.45,4316.62 1245.45,4361.89 1264.84,4361.89 1264.84,4255.07 1245.45,4255.07 1245.45,4300.79 1204.26,4300.79 1204.26,4255.07 1184.09,4255.07 "/>
   <polygon class="fil4" points="994.44,4649.73 1015.26,4649.73 1015.26,4603.55 1056.44,4603.55 1056.44,4649.73 1077.26,4649.73 1077.26,4541.74 1056.44,4541.74 1056.44,4587.72 1015.26,4587.72 1015.26,4541.74 994.44,4541.74 "/>
   <polygon class="fil4" points="1184.09,4496.46 1204.26,4496.46 1204.26,4450.02 1245.45,4450.02 1245.45,4496.46 1264.84,4496.46 1264.84,4388.67 1245.45,4388.67 1245.45,4434.21 1204.26,4434.21 1204.26,4388.67 1184.09,4388.67 "/>
   <polygon class="fil4" points="994.44,4208.63 1015.26,4208.63 1015.26,4163.1 1056.44,4163.1 1056.44,4208.63 1077.26,4208.63 1077.26,4101.74 1056.44,4101.74 1056.44,4147.53 1015.26,4147.53 1015.26,4101.74 994.44,4101.74 "/>
   <polygon class="fil5" points="902.21,4372.65 963.76,4321.86 994.44,4321.86 994.44,4347.29 963.76,4347.29 963.76,4361.89 1009.04,4361.89 1009.04,4305.85 963.76,4305.85 963.76,4264.66 902.21,4264.66 902.21,4305.85 916.87,4305.85 916.87,4274.97 948.46,4274.97 948.46,4305.85 886.19,4361.89 820.04,4305.85 820.04,4274.97 850.26,4274.97 850.26,4305.85 866.09,4305.85 866.09,4264.66 804.08,4264.66 804.08,4305.85 759.19,4305.85 759.19,4361.89 804.08,4361.89 804.08,4347.29 773.4,4347.29 773.4,4321.86 804.08,4321.86 866.09,4372.65 804.08,4429.66 773.4,4429.66 773.4,4403.33 804.08,4403.33 804.08,4388.67 759.19,4388.67 759.19,4444.97 804.08,4444.97 804.08,4485.7 866.09,4485.7 866.09,4444.97 850.26,4444.97 850.26,4476.1 820.04,4476.1 820.04,4444.97 886.19,4388.67 948.46,4444.97 948.46,4476.1 916.87,4476.1 916.87,4444.97 902.21,4444.97 902.21,4485.7 963.76,4485.7 963.76,4444.97 1009.04,4444.97 1009.04,4388.67 963.76,4388.67 963.76,4403.33 994.44,4403.33 994.44,4429.66 963.76,4429.66 "/>
   <polygon class="fil4" points="440.03,1539.12 471.36,1499.1 655.82,1499.1 794.67,1324.51 978.16,1324.51 1117.28,1499.1 1297.14,1499.1 1327.1,1539.12 1297.14,1580.31 1117.28,1580.31 978.16,1760.41 794.67,1760.41 655.82,1580.31 471.36,1580.31 "/>
   <polygon class="fil4" points="455.34,1493.59 471.36,1478.02 660.36,1478.02 804.08,1309.85 963.76,1309.85 1107.23,1478.02 1297.14,1478.02 1312.9,1493.59 1297.14,1508.7 1107.23,1508.7 978.16,1657.87 789.17,1657.87 660.36,1508.7 471.36,1508.7 "/>
   <path class="fil3" d="M886.19 1416.73l-61.29 71.6 61.29 72.05 62.27 -72.05 -62.27 -71.6zm77.57 91.97l61.55 66.34 -30.87 36.13 -16.28 -14.85 -14.4 0 0 14.85 14.4 21.54 30.87 0 30.68 -36.39 0 -35.94 -61.55 -72.05 61.55 -71.6 0 -30.87 -30.68 -35.94 -30.87 0 -14.4 16.21 0 19.72 14.4 0 16.28 -19.72 30.87 35.68 -61.55 70.77 -61.55 -70.77 61.55 -72.06 0 -15.76 -15.3 0 -62.27 71.86 -61.29 -71.86 -14.92 0 0 15.76 60.91 72.06 -60.91 70.77 -62 -70.77 30.68 -35.68 16.02 19.72 15.31 0 0 -19.72 -15.31 -16.21 -32.03 0 -30.87 35.94 0 30.87 62.91 71.6 -62.91 72.05 0 35.94 30.87 36.39 32.03 0 15.31 -21.54 0 -14.85 -15.31 0 -16.02 14.85 -30.68 -36.13 62 -66.34 60.91 66.34 -60.91 72.05 0 20.17 14.92 0 61.29 -70.95 62.27 70.95 15.3 0 0 -20.17 -61.55 -72.05 61.55 -66.34z"/>
   <polygon class="fil3" points="794.67,1683.3 794.67,1820.99 809.98,1805.69 824.9,1820.99 840.85,1805.69 855.96,1820.99 870.89,1805.69 886.19,1820.99 902.21,1805.69 916.87,1820.99 932.18,1805.69 948.46,1820.99 963.76,1805.69 978.16,1820.99 978.16,1683.3 "/>
   <polygon class="fil3" points="978.16,1293.82 978.16,1155.42 963.76,1170.98 948.46,1155.42 932.18,1170.98 916.87,1155.42 902.21,1170.98 886.19,1155.42 870.89,1170.98 855.96,1155.42 840.85,1170.98 824.9,1155.42 809.98,1170.98 794.67,1155.42 794.67,1293.82 "/>
   <polygon class="fil3" points="1234.87,1452.66 1234.87,1313.99 1219.56,1329.75 1204.26,1313.99 1188.69,1329.75 1174.03,1313.99 1163.53,1329.75 1148.16,1313.99 1133.3,1329.75 1117.28,1313.99 1117.28,1452.66 "/>
   <polygon class="fil3" points="655.82,1452.66 655.82,1313.99 639.79,1329.75 624.42,1313.99 608.86,1329.75 594.27,1313.99 578.89,1329.75 563.59,1313.99 548.22,1329.75 532.71,1313.99 532.71,1452.66 "/>
   <polygon class="fil3" points="1234.87,1524.26 1234.87,1667.27 1219.56,1647.1 1204.26,1667.27 1188.69,1647.1 1174.03,1667.27 1163.53,1647.1 1148.16,1667.27 1133.3,1647.1 1117.28,1667.27 1117.28,1524.26 "/>
   <polygon class="fil3" points="655.82,1524.26 655.82,1667.27 639.79,1647.1 624.42,1667.27 608.86,1647.1 594.27,1667.27 578.89,1647.1 563.59,1667.27 548.22,1647.1 532.71,1667.27 532.71,1524.26 "/>
   <polygon class="fil5" points="978.16,1683.3 978.16,1770.01 994.44,1755.09 1009.04,1770.01 1025.31,1755.09 1039.71,1770.01 1056.44,1755.09 1071.3,1770.01 1086.61,1755.09 1101.53,1770.01 1117.28,1755.09 1117.28,1524.26 "/>
   <polygon class="fil5" points="794.67,1683.3 794.67,1770.01 778.66,1755.09 762.64,1770.01 747.98,1755.09 731.77,1770.01 716.66,1755.09 701.8,1770.01 685.78,1755.09 671.77,1770.01 655.82,1755.09 655.82,1524.26 "/>
   <polygon class="fil5" points="794.67,1293.82 794.67,1206.91 778.66,1227.02 762.64,1206.91 747.98,1227.02 731.77,1206.91 716.66,1227.02 701.8,1206.91 685.78,1227.02 671.77,1206.91 655.82,1227.02 655.82,1452.66 "/>
   <polygon class="fil5" points="978.16,1293.82 978.16,1206.91 994.44,1227.02 1009.04,1206.91 1025.31,1227.02 1039.71,1206.91 1056.44,1227.02 1071.3,1206.91 1086.61,1227.02 1101.53,1206.91 1117.28,1227.02 1117.28,1452.66 "/>
   <polygon class="fil5" points="532.71,1632.71 517.6,1611.17 501.32,1632.71 486.67,1611.17 471.36,1632.71 455.34,1611.17 440.03,1632.71 425.18,1611.17 409.16,1632.71 409.16,1349.92 425.18,1366.14 440.03,1349.92 455.34,1366.14 471.36,1349.92 486.67,1366.14 501.32,1349.92 517.6,1366.14 532.71,1349.92 532.71,1452.66 471.36,1452.66 440.03,1488.33 471.36,1524.26 532.71,1524.26 "/>
   <polygon class="fil5" points="1234.87,1632.71 1250.24,1611.17 1264.84,1632.71 1281.12,1611.17 1297.14,1632.71 1312.9,1611.17 1327.1,1632.71 1343.12,1611.17 1359.14,1632.71 1359.14,1349.92 1343.12,1366.14 1327.1,1349.92 1312.9,1366.14 1297.14,1349.92 1281.12,1366.14 1264.84,1349.92 1250.24,1366.14 1234.87,1349.92 1234.87,1452.66 1297.14,1452.66 1327.1,1488.33 1297.14,1524.26 1234.87,1524.26 "/>
   <path class="fil9" d="M716.66 1694c0,0 -14.86,14.65 -14.86,19.91 0,5.32 14.86,20.17 20.56,20.17 9.41,0 19.46,-10.76 19.46,-20.17 0,-5.26 -14.67,-19.91 -14.67,-19.91l0 -26.73c0,0 32.04,46.64 32.04,26.73 0,-15.96 -32.04,-41.64 -32.04,-41.64l-10.5 0c0,0 -30.88,30.94 -30.88,41.64 0,19.91 30.88,-26.73 30.88,-26.73l0 26.73z"/>
   <path class="fil4" d="M876.79 1748.74c0,0 -16.02,16.21 -16.02,26.52 0,10.77 16.02,30.42 25.42,30.42 5.52,0 20.83,-19.65 20.83,-30.42 0,-10.31 -15.31,-26.52 -15.31,-26.52l0 -40.09c0,0 25.16,61.36 25.16,36.19 0,-21.53 -25.16,-56.1 -25.16,-56.1l-14.92 0c0,0 -31.32,45.34 -26.53,56.1 0,25.16 26.53,-36.19 26.53,-36.19l0 40.09z"/>
   <path class="fil5" d="M747.98 1488.33c0,10.76 -16.21,20.37 -31.32,20.37 -19.46,0 -30.88,-9.6 -30.88,-20.37 0,-10.31 11.42,-15.76 30.88,-15.76 15.11,0 31.32,5.44 31.32,15.76l0 0z"/>
   <path class="fil5" d="M916.87 1488.33c0,10.76 -14.66,20.37 -30.68,20.37 -20.1,0 -30.23,-9.6 -30.23,-20.37 0,-10.31 10.12,-15.76 30.23,-15.76 16.02,0 30.68,5.44 30.68,15.76l0 0z"/>
   <path class="fil5" d="M1086.61 1488.33c0,10.76 -15.31,20.37 -30.16,20.37 -21.73,0 -31.13,-9.6 -31.13,-20.37 0,-10.31 9.41,-15.76 31.13,-15.76 14.86,0 30.16,5.44 30.16,15.76l0 0z"/>
   <path class="fil9" d="M711.85 1288.57c0,0 -10.05,-16.21 -10.05,-25.61 0,-5.26 10.05,-19.92 14.86,-19.92 10.5,0 20.55,14.66 20.55,19.92 0,9.4 -10.05,25.61 -10.05,25.61l0 25.42c0,0 26.08,-45.53 26.08,-25.42 0,16.02 -26.08,41.18 -26.08,41.18l-15.31 0c0,0 -26.07,-30.41 -26.07,-41.18 0,-20.11 26.07,25.42 26.07,25.42l0 -25.42z"/>
   <path class="fil4" d="M870.89 1231.37c0,0 -14.93,-19 -14.93,-29.71 0,-5.51 20.83,-26.33 25.62,-26.33 10.12,0 20.63,15.76 20.63,26.33 0,10.7 -16.02,29.71 -16.02,29.71l0 40.99c0,0 30.68,-65.44 30.68,-35.74 0,21.08 -30.68,51.95 -30.68,51.95l-15.3 0c0,0 -30.03,-41.38 -25.42,-51.95 0,-29.71 25.42,35.74 25.42,35.74l0 -40.99z"/>
   <path class="fil9" d="M1045.68 1694c0,0 -15.83,14.65 -15.83,19.91 0,5.32 15.83,20.17 20.62,20.17 5.97,0 20.83,-10.76 20.83,-20.17 0,-5.26 -14.86,-19.91 -14.86,-19.91l0 -26.73c0,0 30.16,46.64 30.16,26.73 0,-15.96 -30.16,-41.64 -30.16,-41.64l-10.76 0c0,0 -30.42,30.94 -30.42,41.64 0,19.91 30.42,-26.73 30.42,-26.73l0 26.73z"/>
   <path class="fil9" d="M1039.71 1288.57c0,0 -9.86,-16.21 -9.86,-25.61 -4.54,-5.26 9.86,-19.92 15.83,-19.92 10.76,0 20.82,14.66 20.82,19.92 0,9.4 -10.05,25.61 -10.05,25.61l0 25.42c0,0 25.62,-45.53 25.62,-25.42 0,16.02 -25.62,41.18 -25.62,41.18l-16.73 0c0,0 -24.45,-30.41 -24.45,-41.18 0,-20.11 24.45,25.42 24.45,25.42l0 -25.42z"/>
   <path class="fil4" d="M583.69 1596.32c0,0 -20.1,14.85 -20.1,20.17 0,5.44 20.1,20.1 25.36,20.1 9.86,0 25.42,-14.66 25.42,-20.1 0,-5.32 -15.56,-20.17 -15.56,-20.17l0 -25.36c0,0 31.58,40.21 31.58,20.11 0,-10.76 -31.58,-35.93 -31.58,-35.93l-15.12 0c0,0 -35.48,29.76 -30.87,35.93 0,20.1 30.87,-20.11 30.87,-20.11l0 25.36z"/>
   <path class="fil4" d="M578.89 1396.36c0,0 -15.3,-10.5 -15.3,-20.82 0,-5.51 15.3,-20.17 25.36,-20.17 9.86,0 25.42,14.66 25.42,20.17 0,10.31 -20.1,20.82 -20.1,20.82l0 25.36c0,0 30.16,-41.18 30.16,-19.91 0,9.67 -30.16,35.02 -30.16,35.02l-15.38 0c0,0 -36.13,-29.7 -30.68,-35.02 0,-21.27 30.68,19.91 30.68,19.91l0 -25.36z"/>
   <path class="fil4" d="M1174.03 1591.07c0,0 -15.11,14.66 -15.11,20.1 -5.52,5.32 15.11,21.54 25.16,21.54 4.6,0 25.43,-16.21 25.43,-21.54 0,-5.44 -20.83,-20.1 -20.83,-20.1l0 -25.16c0,0 30.87,39.82 30.87,25.16 0,-16.02 -30.87,-35.93 -30.87,-35.93l-14.66 0c0,0 -35.93,25.16 -30.68,35.93 0,14.66 30.68,-25.16 30.68,-25.16l0 25.16z"/>
   <path class="fil4" d="M1168.78 1391.31c0,0 -15.38,-10.76 -15.38,-21.28 0,-3.9 15.38,-14.66 25.17,-14.66 10.12,0 25.68,10.76 25.68,14.66 0,10.51 -20.17,21.28 -20.17,21.28l0 25.42c0,0 30.23,-41.19 30.23,-20.37 0,10.77 -30.23,36.13 -30.23,36.13l-15.31 0c0,0 -35.48,-30.68 -30.68,-36.13 0,-20.82 30.68,20.37 30.68,20.37l0 -25.42z"/>
   <path class="fil9" d="M455.34 1596.32c-4.54,-16.02 0,-21.28 0,-25.36 -4.54,-5.05 16.02,-21.34 20.63,-21.34 4.8,0 16.02,16.28 16.02,21.34l0 25.36 -11.22 -21.28c-9.41,30.68 -9.41,30.68 -15.38,0l-10.05 21.28z"/>
   <path class="fil9" d="M455.34 1391.31c-4.54,10.5 0,20.17 0,25.42 0,4.99 16.02,20.1 20.63,20.1 4.8,0 16.02,-15.11 16.02,-25.36l0 -20.17 -11.22 20.17c-9.41,-30.94 -9.41,-30.94 -15.38,0l-10.05 -20.17z"/>
   <path class="fil9" d="M1287.08 1591.07c-5.96,-10.76 -5.96,-16.02 -5.96,-25.16 0,-5.52 16.02,-16.28 20.55,-16.28 11.22,0 21.99,10.76 21.99,21.34 0,4.09 0,9.35 -5.97,25.36l-4.8 -21.28c-11.22,25.43 -11.22,25.43 -15.76,-4.09l-10.05 20.11z"/>
   <path class="fil9" d="M1287.08 1391.31c-5.96,10.5 -5.96,15.83 -5.96,20.17 0,10.25 16.02,21.01 20.55,21.01 11.22,0 21.99,-15.76 21.99,-21.01l0 -25.62 -10.76 21.28c-11.22,-31.59 -11.22,-31.59 -15.76,0l-10.05 -15.83z"/>
   <path class="fil4" d="M773.4 1842.07l0 -46.7 -143.02 0 0 -101.37 -129.07 0 0 -36.13 -107.98 0 0 -333.37 107.98 0 0 -30.68 129.07 0 0 -102.74 143.02 0 0 -50.98 221.03 0 0 50.98 143.67 0 0 102.74 126.73 0 0 30.68 114.87 0 0 333.37 -114.87 0 0 36.13 -126.73 0 0 101.37 -143.67 0 0 46.7 -221.03 0zm15.76 -16.02l0 -50.79 -144.12 0 0 -97.22 -127.45 0 0 -35.94 -108.44 0 0 -302.95 108.44 0 0 -29.31 127.45 0 0 -102.93 144.12 0 0 -46.69 188.99 0 0 46.69 144.38 0 0 102.93 127.7 0 0 29.31 108.9 0 0 302.95 -108.9 0 0 35.94 -127.7 0 0 97.22 -144.38 0 0 50.79 -188.99 0z"/>
   <path class="fil9" d="M3565.49 1099.12c0,-363.53 -297.9,-661.23 -662.6,-661.23 -363.34,0 -655.97,297.7 -655.97,661.23 0,369.11 292.64,661.29 655.97,661.29 364.7,0 662.6,-292.19 662.6,-661.29l0 0z"/>
   <path class="fil5" d="M3385.9 996.64c0,-358.79 -292.65,-650.53 -652.79,-650.53 -357.83,0 -650.47,291.74 -650.47,650.53 0,363.99 292.64,655.72 650.47,655.72 360.15,0 652.79,-291.73 652.79,-655.72l0 0z"/>
   <polygon class="fil11" points="2990.98,730.07 2897.39,730.07 2872.22,822.04 2842,730.07 2749.38,730.07 2820.73,674.04 2790.57,587.06 2868.13,637.85 2944.27,587.06 2918.92,674.04 "/>
   <polygon class="fil11" points="2656.24,561.64 2564.92,566.95 2539.56,653.87 2508.63,566.95 2416.66,561.64 2488.07,504.24 2456.48,417.78 2534.05,468.57 2605.65,417.78 2584.83,504.24 "/>
   <polygon class="fil11" points="2656.24,899.16 2564.92,899.16 2539.56,985.88 2508.63,899.16 2416.66,899.16 2488.07,842.86 2456.48,751.09 2534.05,806.73 2605.65,751.09 2584.83,842.86 "/>
   <polygon class="fil11" points="2656.24,1236.62 2564.92,1236.62 2539.56,1324.51 2508.63,1236.62 2416.66,1236.62 2488.07,1180.58 2456.48,1088.81 2534.05,1145.56 2605.65,1088.81 2584.83,1180.58 "/>
   <polygon class="fil11" points="2322.87,1063.19 2230.9,1063.19 2205.48,1155.42 2174.8,1063.19 2082.64,1063.19 2153.97,1007.15 2123.82,919.08 2200.67,971.22 2276.89,919.08 2251.72,1007.15 "/>
   <polygon class="fil4" points="994.44,4649.73 1015.26,4649.73 1015.26,4603.55 1056.44,4603.55 1056.44,4649.73 1077.26,4649.73 1077.26,4541.74 1056.44,4541.74 1056.44,4587.72 1015.26,4587.72 1015.26,4541.74 994.44,4541.74 "/>
  </g>
 </g>
</svg>
