<?xml version="1.0" encoding="UTF-8"?>
<!DOCTYPE svg PUBLIC "-//W3C//DTD SVG 1.1//EN" "http://www.w3.org/Graphics/SVG/1.1/DTD/svg11.dtd">
<!-- Creator: CorelDRAW 2020 (64-Bit) -->
<svg xmlns="http://www.w3.org/2000/svg" xml:space="preserve" width="76.4296mm" height="76.4296mm" version="1.1" style="shape-rendering:geometricPrecision; text-rendering:geometricPrecision; image-rendering:optimizeQuality; fill-rule:evenodd; clip-rule:evenodd"
viewBox="0 0 8253.2 8253.2"
 xmlns:xlink="http://www.w3.org/1999/xlink"
 xmlns:xodm="http://www.corel.com/coreldraw/odm/2003">
 <defs>
  <style type="text/css">
   <![CDATA[
    .fil0 {fill:#FEFEFE;fill-rule:nonzero}
    .fil2 {fill:#F4DE1D;fill-rule:nonzero}
    .fil1 {fill:#5773B6;fill-rule:nonzero}
   ]]>
  </style>
 </defs>
 <g id="Layer_x0020_1">
  <metadata id="CorelCorpID_0Corel-Layer"/>
  <g id="_2263474041360">
   <path class="fil0" d="M4126.6 0c2279.06,0 4126.6,1847.54 4126.6,4126.6 0,2279.06 -1847.54,4126.6 -4126.6,4126.6 -2279.06,0 -4126.6,-1847.54 -4126.6,-4126.6 0,-2279.06 1847.54,-4126.6 4126.6,-4126.6z"/>
   <path class="fil1" d="M4032.88 8252.01l187.44 0c2235.76,-49.85 4032.88,-1877.69 4032.88,-4125.41 0,-2279.06 -1847.54,-4126.6 -4126.6,-4126.6 -2279.06,0 -4126.6,1847.54 -4126.6,4126.6 0,2247.73 1797.12,4075.57 4032.88,4125.41z"/>
   <path class="fil2" d="M4032.88 8252.01l187.44 0c2235.76,-49.85 4032.88,-1877.69 4032.88,-4125.41 0,-23.88 -0.51,-47.63 -0.91,-71.41l-8251.39 0c-0.4,23.78 -0.91,47.53 -0.91,71.41 0,2247.73 1797.12,4075.57 4032.88,4125.41z"/>
  </g>
 </g>
</svg>
