<?xml version="1.0" encoding="UTF-8"?>
<!DOCTYPE svg PUBLIC "-//W3C//DTD SVG 1.1//EN" "http://www.w3.org/Graphics/SVG/1.1/DTD/svg11.dtd">
<!-- Creator: CorelDRAW 2020 (64-Bit) -->
<svg xmlns="http://www.w3.org/2000/svg" xml:space="preserve" width="76.4296mm" height="76.4296mm" version="1.1" style="shape-rendering:geometricPrecision; text-rendering:geometricPrecision; image-rendering:optimizeQuality; fill-rule:evenodd; clip-rule:evenodd"
viewBox="0 0 7628.61 7628.61"
 xmlns:xlink="http://www.w3.org/1999/xlink"
 xmlns:xodm="http://www.corel.com/coreldraw/odm/2003">
 <defs>
  <style type="text/css">
   <![CDATA[
    .fil0 {fill:#FEFEFE;fill-rule:nonzero}
    .fil1 {fill:#C92629;fill-rule:nonzero}
    .fil2 {fill:#373B61;fill-rule:nonzero}
   ]]>
  </style>
 </defs>
 <g id="Layer_x0020_1">
  <metadata id="CorelCorpID_0Corel-Layer"/>
  <g id="_2263524081808">
   <path class="fil0" d="M3814.3 0c2106.59,0 3814.3,1707.72 3814.3,3814.3 0,2106.59 -1707.72,3814.3 -3814.3,3814.3 -2106.59,0 -3814.3,-1707.72 -3814.3,-3814.3 0,-2106.59 1707.72,-3814.3 3814.3,-3814.3z"/>
   <path class="fil1" d="M3765.48 7627.99l97.66 0c736.08,-9.24 1421.92,-226.79 2001.2,-596.65l-4100.07 0c579.28,369.85 1265.13,587.4 2001.2,596.65z"/>
   <path class="fil0" d="M1764.27 7031.34l4100.07 0c264.5,-168.9 506.72,-369.57 721.42,-596.56l-5542.91 0c214.71,226.98 456.92,427.66 721.42,596.56z"/>
   <path class="fil1" d="M1042.85 6434.78l5542.91 0c172.73,-182.61 327.46,-382.34 461.7,-596.27l-6466.31 0c134.24,213.93 288.98,413.66 461.7,596.27z"/>
   <path class="fil0" d="M581.15 5838.52l6466.31 0c118.37,-188.66 220.64,-388.41 305.02,-597.32l-7076.35 0c84.37,208.91 186.65,408.66 305.02,597.32z"/>
   <path class="fil1" d="M276.13 5241.2l7076.35 0c77.43,-191.83 139.65,-391.41 185.36,-597.22l-7447.07 0c45.71,205.8 107.93,405.39 185.36,597.22z"/>
   <path class="fil0" d="M90.77 4643.98l7447.07 0c42.94,-193.55 71.08,-392.64 83.44,-595.99l-7613.95 0c12.37,203.35 40.5,402.44 83.44,595.99z"/>
   <path class="fil1" d="M7.33 4047.99l7613.95 0c4.67,-77.32 7.33,-155.19 7.33,-233.69 0,-122.86 -6.04,-244.3 -17.4,-364.18l-7593.81 0c-11.36,119.88 -17.4,241.33 -17.4,364.18 0,78.5 2.66,156.37 7.33,233.69z"/>
   <path class="fil0" d="M17.4 3450.12l7593.81 0c-19.32,-203.98 -54.57,-403.32 -104.74,-596.66l-7384.33 0c-50.18,193.34 -85.42,392.68 -104.74,596.66z"/>
   <path class="fil1" d="M122.14 2853.46l7384.33 0c-53.46,-206.01 -123.76,-405.23 -209.25,-596.17l-6965.83 0c-85.49,190.94 -155.79,390.16 -209.25,596.17z"/>
   <path class="fil0" d="M331.43 2257.19l6965.75 0c-93.94,-209.82 -206.36,-409.53 -335.05,-597.22l-6295.65 0c-128.69,187.69 -241.11,387.4 -335.05,597.22z"/>
   <path class="fil1" d="M666.48 1659.98l6295.65 0c-148.16,-216.07 -317.91,-416.13 -506.26,-597.04l-5283.14 0c-188.35,180.91 -358.1,380.96 -506.26,597.04z"/>
   <path class="fil0" d="M1172.63 1063.03l5283.34 0c-242.58,-232.98 -515.9,-434.17 -813.27,-596.93l-3656.8 0c-297.37,162.75 -570.69,363.95 -813.27,596.93z"/>
   <path class="fil1" d="M1985.9 466.1l3656.8 0c-542.9,-297.1 -1165.9,-466.1 -1828.4,-466.1 -662.5,0 -1285.5,169 -1828.4,466.1z"/>
   <path class="fil2" d="M7.33 4047.99l3145.89 0 0 -3990.75c-1791.46,313.05 -3153.22,1875.96 -3153.22,3757.06 0,78.5 2.66,156.37 7.33,233.69z"/>
   <path class="fil0" d="M107.8 2911.39l11.59 35.83 166.46 0 -134.29 97.75 50.21 157.35 -133.24 -97.76 -2.7 1.98c12.34,-65.66 26.34,-130.72 41.98,-195.15z"/>
   <path class="fil0" d="M580.89 1790.5l29.99 91.73 165.42 0 -133.91 97.47 52.57 158.29 -135.61 -97.74 -132.95 97.74 49.92 -158.29 -4.79 -3.48c34.73,-63.02 71.24,-124.92 109.36,-185.71z"/>
   <polygon class="fil0" points="559.35,2421.94 610.88,2579.67 776.3,2579.67 642.39,2677.42 694.96,2835.06 559.35,2738.34 426.4,2835.06 476.31,2677.42 342.41,2579.67 508.48,2579.67 "/>
   <polygon class="fil0" points="559.35,3119.28 610.88,3277.67 776.3,3277.67 642.39,3374.38 694.96,3532.77 559.35,3435.02 426.4,3532.77 476.31,3374.38 342.41,3277.67 508.48,3277.67 "/>
   <path class="fil0" d="M1166.51 1069.02l13.5 41.85 -32.41 -23.4c6.29,-6.16 12.57,-12.35 18.9,-18.46z"/>
   <polygon class="fil0" points="1045.15,1394.81 1096.97,1552.45 1264.09,1552.45 1129.14,1650.2 1180.01,1807.55 1045.15,1710.84 911.15,1807.55 962.78,1650.2 829.16,1552.45 995.24,1552.45 "/>
   <polygon class="fil0" points="1045.15,2092.16 1096.97,2249.89 1264.09,2249.89 1129.14,2347.25 1180.01,2505.65 1045.15,2407.89 911.15,2505.65 962.78,2347.25 829.16,2249.89 995.24,2249.89 "/>
   <polygon class="fil0" points="1045.15,2789.87 1096.97,2947.22 1264.09,2947.22 1129.14,3044.97 1180.01,3202.32 1045.15,3104.57 911.15,3202.32 962.78,3044.97 829.16,2947.22 995.24,2947.22 "/>
   <path class="fil0" d="M1649.19 673.95l22.33 69.36 -59.62 -43.51c12.34,-8.73 24.84,-17.26 37.29,-25.85z"/>
   <polygon class="fil0" points="1537.6,1027.55 1589.51,1184.89 1754.83,1184.89 1620.64,1281.59 1671.52,1440.65 1537.6,1342.9 1405.02,1440.65 1454.56,1281.59 1320.93,1184.89 1487.02,1184.89 "/>
   <polygon class="fil0" points="1537.6,1724.61 1589.51,1882.23 1754.83,1882.23 1620.64,1979.7 1671.52,2137.99 1537.6,2040.25 1405.02,2137.99 1454.56,1979.7 1320.93,1882.23 1487.02,1882.23 "/>
   <polygon class="fil0" points="1537.6,2421.94 1589.51,2579.67 1754.83,2579.67 1620.64,2677.42 1671.52,2835.06 1537.6,2738.34 1405.02,2835.06 1454.56,2677.42 1320.93,2579.67 1487.02,2579.67 "/>
   <polygon class="fil0" points="1537.6,3119.28 1589.51,3277.67 1754.83,3277.67 1620.64,3374.38 1671.52,3532.77 1537.6,3435.02 1405.02,3532.77 1454.56,3374.38 1320.93,3277.67 1487.02,3277.67 "/>
   <polygon class="fil0" points="2023.4,696.72 2074.65,855.1 2240.64,855.1 2107.39,953.24 2157.6,1110.87 2023.4,1013.49 1888.84,1110.87 1940.36,953.24 1807.4,855.1 1971.78,855.1 "/>
   <polygon class="fil0" points="2023.4,1394.81 2074.65,1552.45 2240.64,1552.45 2107.39,1650.2 2157.6,1807.55 2023.4,1710.84 1888.84,1807.55 1940.36,1650.2 1807.4,1552.45 1971.78,1552.45 "/>
   <polygon class="fil0" points="2023.4,2092.16 2074.65,2249.89 2240.64,2249.89 2107.39,2347.25 2157.6,2505.65 2023.4,2407.89 1888.84,2505.65 1940.36,2347.25 1807.4,2249.89 1971.78,2249.89 "/>
   <polygon class="fil0" points="2023.4,2789.87 2074.65,2947.22 2240.64,2947.22 2107.39,3044.97 2157.6,3202.32 2023.4,3104.57 1888.84,3202.32 1940.36,3044.97 1807.4,2947.22 1971.78,2947.22 "/>
   <polygon class="fil0" points="2514.14,329.83 2566.72,488.21 2731.85,488.21 2598.23,585.3 2649.75,743.31 2514.14,645.57 2381.28,743.31 2432.15,585.3 2298.25,488.21 2463.29,488.21 "/>
   <polygon class="fil0" points="2514.14,1027.55 2566.72,1184.89 2731.85,1184.89 2598.23,1281.59 2649.75,1440.65 2514.14,1342.9 2381.28,1440.65 2432.15,1281.59 2298.25,1184.89 2463.29,1184.89 "/>
   <polygon class="fil0" points="2514.14,1724.61 2566.72,1882.23 2731.85,1882.23 2598.23,1979.7 2649.75,2137.99 2514.14,2040.25 2381.28,2137.99 2432.15,1979.7 2298.25,1882.23 2463.29,1882.23 "/>
   <polygon class="fil0" points="2514.14,2421.94 2566.72,2579.67 2731.85,2579.67 2598.23,2677.42 2649.75,2835.06 2514.14,2738.34 2381.28,2835.06 2432.15,2677.42 2298.25,2579.67 2463.29,2579.67 "/>
   <polygon class="fil0" points="2514.14,3119.28 2566.72,3277.67 2731.85,3277.67 2598.23,3374.38 2649.75,3532.77 2514.14,3435.02 2381.28,3532.77 2432.15,3374.38 2298.25,3277.67 2463.29,3277.67 "/>
  </g>
 </g>
</svg>
