<svg width="875" height="875" viewBox="0 0 875 875" fill="none" xmlns="http://www.w3.org/2000/svg">
<path d="M19.6897 3.38424e-06H20.4321L21.1249 0.185115L4.06109e-05 79.0243V73.483L19.6897 0V3.38424e-06ZM40.1218 3.38424e-06H40.8642L41.557 0.185115L3.72266e-05 155.278V149.737L40.1218 0V3.38424e-06ZM60.554 3.38424e-06H61.2964L61.9892 0.185115L3.72266e-05 231.532V225.99L60.554 3.38424e-06ZM80.9861 3.38424e-06H81.7285L82.4212 0.185115L3.72266e-05 307.785V302.244L80.9861 3.38424e-06ZM101.418 3.38424e-06H102.161L102.853 0.185115L3.38424e-05 384.039V378.498L101.418 3.38424e-06H101.418ZM121.85 3.38424e-06H122.593L123.285 0.185115L3.38424e-05 460.293V454.751L121.85 3.38424e-06ZM142.282 3.38424e-06H143.025L143.718 0.185115L3.38424e-05 536.546V531.005L142.282 3.38424e-06ZM162.714 3.38424e-06H163.457L164.15 0.185115L3.38424e-05 612.8V607.259L162.714 3.38424e-06ZM183.147 3.38424e-06H183.889L184.582 0.185115L3.04582e-05 689.054V683.512L183.147 0V3.38424e-06ZM203.579 3.38424e-06H204.321L205.014 0.185115L3.04582e-05 765.307V759.766L203.579 0V3.38424e-06ZM224.011 3.38424e-06H224.753L225.446 0.185115L3.04582e-05 841.561V836.02L224.011 0V3.38424e-06ZM244.443 3.38424e-06H245.185L245.878 0.185115L11.5231 874.81H10.0383L244.443 3.38424e-06ZM264.875 3.38424e-06H265.617L266.31 0.185115L31.9552 874.81H30.4704L264.875 3.38424e-06ZM285.307 3.38424e-06H286.049L286.742 0.185115L52.3873 874.81H50.9025L285.307 3.38424e-06ZM305.739 3.38424e-06H306.482L307.174 0.185115L72.8194 874.81H71.3346L305.739 3.38424e-06ZM326.171 3.38424e-06H326.914L327.607 0.185115L93.2515 874.81H91.7667L326.171 3.38424e-06ZM346.603 3.38424e-06H347.346L348.039 0.185115L113.684 874.81H112.199L346.603 3.38424e-06ZM367.035 3.38424e-06H367.778L368.471 0.185115L134.116 874.81H132.631L367.035 3.38424e-06ZM387.468 3.38424e-06H388.21L388.903 0.185115L154.548 874.81H153.063L387.468 3.38424e-06ZM407.9 3.38424e-06H408.642L409.335 0.185115L174.98 874.81H173.495L407.9 3.38424e-06ZM428.332 3.38424e-06H429.074L429.767 0.185115L195.412 874.81H193.927L428.332 3.38424e-06ZM448.764 3.38424e-06H449.506L450.199 0.185115L215.844 874.81H214.359L448.764 3.38424e-06ZM469.196 3.38424e-06H469.938L470.631 0.185115L236.276 874.81H234.791L469.196 3.38424e-06ZM489.628 3.38424e-06H490.371L491.063 0.185115L256.708 874.81H255.224L489.628 3.38424e-06ZM510.06 3.38424e-06H510.803L511.495 0.185115L277.14 874.81H275.656L510.06 3.38424e-06ZM530.492 3.38424e-06H531.235L531.928 0.185115L297.573 874.81H296.088L530.492 3.38424e-06ZM550.924 3.38424e-06H551.667L552.36 0.185115L318.005 874.81H316.52L550.924 3.38424e-06ZM571.357 3.38424e-06H572.099L572.792 0.185115L338.437 874.81H336.952L571.357 3.38424e-06ZM591.789 3.38424e-06H592.531L593.224 0.185115L358.869 874.81H357.384L591.789 3.38424e-06ZM612.221 3.38424e-06H612.963L613.656 0.185115L379.301 874.81H377.816L612.221 3.38424e-06ZM632.653 3.38424e-06H633.395L634.088 0.185115L399.733 874.81H398.248L632.653 3.38424e-06ZM653.085 3.38424e-06H653.827L654.52 0.185115L420.165 874.81H418.68L653.085 3.38424e-06ZM673.517 3.38424e-06H674.259L674.952 0.185115L440.597 874.81H439.112L673.517 3.38424e-06ZM693.949 3.38424e-06H694.692L695.384 0.185115L461.029 874.81H459.545L693.949 3.38424e-06ZM714.381 3.38424e-06H715.124L715.816 0.185115L481.462 874.81H479.977L714.381 3.38424e-06ZM734.813 3.38424e-06H735.556L736.248 0.185115L501.894 874.81H500.409L734.813 3.38424e-06ZM755.245 3.38424e-06H755.988L756.681 0.185115L522.326 874.81H520.841L755.245 3.38424e-06ZM775.677 3.38424e-06H776.42L777.113 0.185115L542.758 874.81H541.273L775.677 3.38424e-06ZM796.11 3.38424e-06H796.852L797.545 0.185115L563.19 874.81H561.705L796.11 3.38424e-06ZM816.542 3.38424e-06H817.284L817.977 0.185115L583.622 874.81H582.137L816.542 3.38424e-06ZM836.974 3.38424e-06H837.716L838.409 0.185115L604.054 874.81H602.569L836.974 3.38424e-06ZM857.406 3.38424e-06H858.148L858.841 0.185115L624.486 874.81H623.001L857.406 3.38424e-06ZM874.81 11.3018V16.8432L644.918 874.81H643.434L874.81 11.3018V11.3018ZM874.81 87.5555V93.0968L665.35 874.81H663.866L874.81 87.5555ZM874.81 163.809V169.35L685.783 874.81H684.298L874.81 163.809ZM874.81 240.063V245.604L706.215 874.81H704.73L874.81 240.063ZM874.81 316.316V321.858L726.647 874.81H725.162L874.81 316.316ZM874.81 392.57V398.111L747.079 874.81H745.594L874.81 392.57ZM874.81 468.824V474.365L767.511 874.81H766.026L874.81 468.824ZM874.81 545.077V550.619L787.943 874.81H786.458L874.81 545.077ZM874.81 621.331V626.872L808.375 874.81H806.89L874.81 621.331ZM874.81 697.585V703.126L828.807 874.81H827.322L874.81 697.585ZM874.81 773.838V779.38L849.239 874.81H847.755L874.81 773.838ZM874.81 850.092V855.633L869.671 874.81H868.187L874.81 850.092ZM0 2.77068V0L0.692798 0.185111L0 2.77067V2.77068Z" fill="#E9D2A8" fill-opacity="0.5"/>
</svg>
