<svg width="29" height="34" viewBox="0 0 29 34" fill="none" xmlns="http://www.w3.org/2000/svg">
<path d="M28 14.5C28 21.9558 16 33 14.5 33C13 33 1 21.9558 1 14.5C1 7.04416 7.04416 1 14.5 1C21.9558 1 28 7.04416 28 14.5Z" fill="white" stroke="#D29C4E"/>
<path fill-rule="evenodd" clip-rule="evenodd" d="M16.9301 14.7449C17.1005 15.0797 18.1466 15.0395 18.3746 15.0395L18.6214 15.3548L18.431 15.6896C17.7093 15.6896 17.2721 15.4132 16.6256 15.3159C16.226 15.2368 13.2992 17.1856 12.7668 17.5008C11.7782 18.051 8.28139 20.0205 7.08368 19.9998C6.98851 19.9998 6.93205 19.9804 6.85568 19.9414C6.26677 19.6651 6.36083 18.9968 6.66527 18.6816C6.74164 18.5829 6.7981 18.5635 6.91214 18.5245L11.0178 16.9689C11.6267 16.7133 14.5922 15.4924 15.0483 14.863L12.8044 14.6062L12.7856 15.6105L6 14.6659L6.05757 12.9142L16.4541 14.5478L16.1508 14.6269C16.4929 15.3744 16.0744 14.5088 16.9301 14.7449ZM6.0763 12.2837V12.2642V12.1072C6.1139 11.5752 6.26671 11.1224 6.55117 10.7487C6.8744 10.3349 7.31168 10.1182 7.84412 10.1389C8.43302 10.1389 8.88909 10.3348 9.21232 10.7097C9.51676 11.1029 9.66839 11.6349 9.66839 12.3238C9.66839 12.6379 9.6496 12.9142 9.57323 13.1698L8.83269 13.0517C8.88909 12.835 8.90795 12.5989 8.90795 12.3238C8.90795 11.3196 8.56592 10.8071 7.84419 10.8071C7.52095 10.8071 7.27408 10.9252 7.10247 11.2015C6.95084 11.4376 6.85568 11.7322 6.83681 12.0876C6.83681 12.2641 6.79803 12.5794 6.81683 12.7364L6.0575 12.5989L6.0763 12.303V12.2837ZM19.5911 11.3196C19.4771 11.2806 19.3432 11.2806 19.2103 11.2806C19.0775 11.2806 18.9635 11.2806 18.8495 11.3196C18.5838 11.378 18.3359 11.5168 18.1654 11.7323C17.8986 12.0281 17.7658 12.4212 17.7658 12.8947C17.7658 13.3865 17.8799 13.7797 18.1466 14.0755C18.3935 14.37 18.7543 14.5283 19.2104 14.5283C19.6477 14.5283 20.0085 14.37 20.2754 14.0755C20.5222 13.7797 20.655 13.3865 20.655 12.8947C20.655 12.3823 20.5222 11.9891 20.2754 11.7128C20.1037 11.4961 19.8756 11.378 19.5911 11.3196ZM17.7658 10.689C17.8233 10.6501 17.8421 10.5916 17.8421 10.532C17.8421 10.3944 17.747 10.2959 17.6141 10.2959H17.2909V10.6501C17.3097 10.6696 17.3097 10.7097 17.3285 10.7293C17.3673 10.8278 17.4049 10.9654 17.4237 11.0835H17.6141C17.7658 11.0835 17.8609 11.0044 17.8609 10.8668C17.8609 10.7877 17.8233 10.7292 17.7658 10.689ZM17.4813 10.6111V10.4735H17.5953C17.6329 10.4735 17.6517 10.493 17.6517 10.5319C17.6517 10.5709 17.6329 10.611 17.5953 10.611L17.4813 10.6111ZM17.4813 10.9251V10.7681H17.5953C17.6517 10.7681 17.6706 10.807 17.6706 10.8472C17.6706 10.8861 17.6518 10.9251 17.5953 10.9251H17.4813ZM18.6026 11.0834L18.3358 10.2958H18.1842L17.8985 11.0834H18.1077L18.1465 10.9653H18.3746L18.4122 11.0834H18.6026ZM18.317 10.807H18.1842L18.2606 10.5916L18.317 10.807ZM19.2867 11.0834L19.1151 10.7681C19.1539 10.7486 19.1727 10.7292 19.1915 10.7097C19.2103 10.6696 19.2291 10.6111 19.2291 10.5515C19.2291 10.4139 19.1339 10.2959 18.9823 10.2959H18.6778V11.0835H18.8682V10.7877H18.9258L19.0586 11.0835L19.2867 11.0834ZM18.8682 10.6306V10.4735H18.9634C19.0198 10.4735 19.0586 10.5125 19.0586 10.5515C19.0586 10.5916 19.0198 10.6306 18.9634 10.6306H18.8682ZM19.8379 10.689C19.8943 10.65 19.9331 10.5915 19.9331 10.5319C19.9331 10.3944 19.8379 10.2958 19.6851 10.2958H19.3631V11.0834H19.7051C19.8379 11.0834 19.9331 11.0043 19.9331 10.8667C19.9331 10.7876 19.9143 10.7291 19.8379 10.689ZM19.5523 10.611V10.4735H19.6663C19.7239 10.4735 19.7427 10.4929 19.7427 10.5319C19.7427 10.5708 19.7239 10.6109 19.6663 10.6109L19.5523 10.611ZM19.5523 10.9251V10.768H19.6851C19.7239 10.768 19.7427 10.807 19.7427 10.8471C19.7427 10.8861 19.7239 10.9251 19.6851 10.9251H19.5523ZM20.5784 11.0833V10.9251H20.2563V10.7875H20.5408V10.611H20.2563V10.4722H20.5784V10.2957H20.0659V11.0833H20.5784ZM21.3012 11.0833L21.1496 10.768C21.1872 10.7486 21.1872 10.7291 21.206 10.7096C21.2436 10.6695 21.2636 10.611 21.2636 10.5514C21.2636 10.4138 21.1683 10.2958 21.0156 10.2958H20.7123V11.0834H20.9016V10.7876H20.9591L21.092 11.0834L21.3012 11.0833ZM20.9016 10.6305V10.4735H20.9968C21.0544 10.4735 21.0732 10.5124 21.0732 10.5514C21.0732 10.5915 21.0544 10.6305 20.9968 10.6305H20.9016ZM21.7761 10.5124L21.8902 10.3943C21.8526 10.3541 21.8338 10.3347 21.7949 10.3152C21.7573 10.2957 21.7009 10.2957 21.6433 10.2957C21.4729 10.2957 21.3588 10.3943 21.3588 10.5513C21.3588 10.6694 21.4341 10.7485 21.5668 10.768L21.662 10.7874C21.7008 10.7874 21.7196 10.8069 21.7196 10.8471C21.7196 10.9055 21.6808 10.925 21.6243 10.925C21.5668 10.925 21.5292 10.925 21.4915 10.9055C21.4727 10.8861 21.4727 10.8861 21.4527 10.8666L21.3199 10.9847C21.3775 11.0431 21.3963 11.0431 21.4339 11.0639C21.4727 11.0833 21.5291 11.1028 21.6055 11.1028C21.7948 11.1028 21.9088 11.0042 21.9088 10.8472C21.9088 10.7096 21.8524 10.6306 21.7008 10.6111L21.6055 10.5916C21.5668 10.5916 21.548 10.5709 21.548 10.532C21.548 10.4931 21.5868 10.4724 21.6431 10.4724C21.6807 10.4724 21.7196 10.4724 21.7384 10.4724C21.7572 10.4931 21.7573 10.4929 21.7761 10.5124ZM22.5942 11.0833V10.2957H22.4226V10.611H22.2134V10.2957H22.0242V11.0833H22.2134V10.768H22.4226V11.0833H22.5942ZM23.2971 10.689V10.6306C23.2971 10.5125 23.2783 10.4334 23.2207 10.375C23.1643 10.3153 23.1067 10.2959 23.0115 10.2959C22.9362 10.2959 22.8599 10.3153 22.8035 10.375C22.7459 10.4529 22.7271 10.5125 22.7271 10.6696V10.7097C22.7271 10.8071 22.7271 10.9251 22.8035 11.0043C22.8599 11.0639 22.9363 11.1029 23.0115 11.1029C23.1067 11.1029 23.1831 11.0639 23.2207 11.0043C23.3159 10.9252 23.2971 10.807 23.2971 10.689ZM22.9362 10.493C22.955 10.4735 22.9926 10.4735 23.0115 10.4735C23.0503 10.4735 23.0691 10.4735 23.0879 10.493C23.1067 10.5319 23.1255 10.5915 23.1255 10.6695V10.7096C23.1255 10.8277 23.1067 10.8667 23.0879 10.8861C23.0691 10.9056 23.0503 10.9251 23.0115 10.9251C22.9927 10.9251 22.9551 10.9056 22.9362 10.8861C22.9174 10.8667 22.9174 10.8277 22.9174 10.7096V10.6695C22.9174 10.5915 22.9174 10.5319 22.9362 10.493ZM23.4299 10.2958V11.0834H23.6203V10.807H23.7343C23.886 10.807 24 10.7096 24 10.5515C24 10.4139 23.886 10.2959 23.7343 10.2959L23.4299 10.2958ZM23.6203 10.6306V10.4735H23.7155C23.7719 10.4735 23.8107 10.5125 23.8107 10.5515C23.8107 10.5916 23.7719 10.6306 23.7155 10.6306H23.6203ZM10.2006 10.1777L10.9035 10V13.3669H10.8847L10.2006 13.2683V10.1777ZM11.4736 13.4059C11.4548 13.2683 11.436 13.1101 11.436 12.9531C11.436 12.4613 11.5876 12.0474 11.8545 11.7322C12.1389 11.4376 12.4822 11.2806 12.8994 11.2806C13.1274 11.2806 13.3367 11.3195 13.5271 11.4181V10.1777L14.23 10V13.8977L13.5271 13.7796V12.0876C13.3755 11.9488 13.2227 11.8904 13.0523 11.8904C12.7666 11.8904 12.5574 11.989 12.4058 12.1656C12.253 12.3433 12.1778 12.5989 12.1778 12.9337C12.1778 13.1503 12.2154 13.3475 12.2918 13.4851C12.3106 13.524 12.3294 13.563 12.3671 13.6032H12.3483L11.4938 13.4656L11.4736 13.4059ZM14.706 13.9573L14.7624 10.1777C15.3136 10.1582 15.7133 10.1388 15.9413 10.1388C16.3586 10.1388 16.7018 10.2362 16.9486 10.4334C17.1766 10.6306 17.3094 10.8862 17.3094 11.2404C17.3094 11.5752 17.1378 11.8503 16.777 12.0475C17.2906 12.2252 17.5563 12.6183 17.5563 13.1893C17.5563 13.5836 17.4046 13.8977 17.119 14.1144C17.0626 14.1545 16.9674 14.252 16.8909 14.3116L16.7017 14.2726L15.1231 14.0353L14.706 13.9573ZM15.5041 10.7876V11.8113C15.6181 11.8307 15.7321 11.8307 15.8461 11.8307C16.3398 11.8307 16.5678 11.6542 16.5678 11.2806C16.5678 10.9458 16.3586 10.7876 15.9225 10.7876C15.8073 10.7876 15.6557 10.7876 15.5041 10.7876ZM15.5041 12.4211V13.8197C15.6369 13.8392 15.7697 13.8392 15.8649 13.8392C16.1881 13.8392 16.4162 13.7796 16.5678 13.6615C16.7206 13.5629 16.7958 13.3669 16.7958 13.1101C16.7958 12.8545 16.7205 12.6779 16.5877 12.5794C16.4537 12.4613 16.2069 12.4017 15.8648 12.4017C15.7885 12.4017 15.6745 12.4017 15.5041 12.4211ZM18.4885 12.8947C18.4885 13.5836 18.7353 13.9171 19.2102 13.9171C19.4194 13.9171 19.591 13.8392 19.7238 13.6615C19.8567 13.4655 19.9142 13.2281 19.9142 12.8946C19.9142 12.2056 19.6851 11.8709 19.2102 11.8709C18.9822 11.8709 18.8117 11.9695 18.6778 12.146C18.5637 12.3237 18.4885 12.5599 18.4885 12.8947ZM20.9968 15.6895L20.7311 15.3547L20.9968 15.0395C21.0544 15.0395 21.1108 15.0395 21.1872 15.0395C21.2825 15.02 21.3588 15.02 21.4341 15.0005C21.5669 14.9616 21.6433 14.8824 21.7009 14.8435C21.7385 14.7839 21.7573 14.7449 21.7761 14.6853C21.7949 14.6463 21.8149 14.6269 21.7949 14.5672C21.7949 14.37 21.7197 14.1143 21.5869 13.7601L20.636 11.339H21.3589L22.1946 13.485L22.9363 11.339H23.6768L22.3275 15.0394L22.3087 15.0589C22.3087 15.0589 22.0041 15.7284 20.9968 15.6895ZM15.5993 14.8824C15.7321 14.8824 15.8461 15.0005 15.8461 15.138C15.8461 15.295 15.7321 15.4144 15.5993 15.3937C15.4653 15.3937 15.3513 15.2756 15.3513 15.138C15.3513 15.0005 15.4654 14.8824 15.5993 14.8824ZM7.33027 18.9566C7.4631 18.9566 7.57713 19.0747 7.57713 19.2134C7.57713 19.351 7.4631 19.469 7.33027 19.469C7.17864 19.469 7.08347 19.3509 7.08347 19.1926C7.08347 19.0551 7.17864 18.9371 7.33027 18.9566Z" fill="black"/>
</svg>
