<svg width="261" height="239" viewBox="0 0 261 239" fill="none" xmlns="http://www.w3.org/2000/svg">
<path fill-rule="evenodd" clip-rule="evenodd" d="M241.57 111L131.84 1.3L130.47 0L19.47 111L13.86 105.42L0 119.28L13.86 133.14L19.47 127.53L74.1 182.13H28L31.75 185.84H227.89L231.61 182.13H186.9L241.53 127.53L247.14 133.14L261 119.28L247.18 105.39L241.57 111ZM227.93 224.3H32.06L31.72 224.29L28 228H120L130.51 238.56L141.05 228.02H230.66V227.02L227.93 224.3ZM135.81 228L130.51 233.3L125.23 228H135.81ZM249.79 119.28L244.18 113.67L247.18 110.65L255.77 119.27L247.18 127.89L244.18 124.89L249.79 119.28ZM233.32 119.28L238.93 124.89L181.73 182.13H160.33V175.41H155.62V168.69H143.21L148.62 166.59V149.33L112.45 163.22V168.69H105.45V175.41H100.74V182.13H79.34L22.11 124.89L27.72 119.28L22.11 113.67L130.51 5.24L238.93 113.67L233.32 119.28ZM238.57 119.28L241.57 116.28L244.57 119.28L241.57 122.28L238.57 119.28ZM11.23 119.28L16.84 124.89L13.84 127.91L5.22 119.29L13.84 110.67L16.84 113.67L11.23 119.28ZM19.48 116.28L22.48 119.28L19.48 122.28L16.48 119.28L19.48 116.28ZM124.78 148.88L116.14 152.19V98.25L144.88 87.25V96.56L124.78 104.27V117.27L144.88 109.53V118.86L124.78 126.6V148.88ZM112.42 157.58L116.5 156.02L128.49 151.41V129.13L148.59 121.39V104.12L128.49 111.84V106.84C135.18 104.26 141.9 101.68 148.59 99.13V81.84L112.42 95.73V157.58ZM144.88 73.7L116.14 84.7V75.33L137.85 67H109.16V64H120.5L119.07 62.79C117.166 61.1326 115.638 59.0868 114.59 56.79C113.538 54.5041 112.995 52.0166 113 49.5C113 44.8508 114.847 40.3919 118.134 37.1044C121.422 33.8169 125.881 31.97 130.53 31.97C135.179 31.97 139.638 33.8169 142.926 37.1044C146.213 40.3919 148.06 44.8508 148.06 49.5C148.068 52.0158 147.529 54.5033 146.48 56.79C145.421 59.0806 143.895 61.1243 142 62.79L140.54 64H151.88V67H144.88V73.7ZM144.88 164.06L126.74 171L123.17 172.36H151.86V175.36H109.14V172.36H116.14V165.73L144.88 154.73V164.06ZM156.59 179.12V182.12H104.46V179.12H156.59ZM112.42 90.09L146.66 77L148.59 76.22V70.75H155.59V60.29H148.79L149.02 59.89C149.3 59.38 149.58 58.85 149.84 58.31C150.468 56.929 150.944 55.4839 151.26 54C151.59 52.5197 151.752 51.0067 151.74 49.49C151.739 45.2888 150.494 41.1819 148.163 37.6868C145.832 34.1918 142.518 31.4649 138.64 29.85C136.058 28.7987 133.297 28.2587 130.51 28.26C126.308 28.2464 122.197 29.4853 118.703 31.8186C115.208 34.1519 112.488 37.4738 110.89 41.36C109.819 43.9361 109.271 46.7 109.28 49.49C109.284 51.0059 109.445 52.5173 109.76 54C110.09 55.4922 110.572 56.9466 111.2 58.34C111.46 58.92 111.71 59.41 112 59.92L112.25 60.32H105.45V70.75H117.84L112.42 72.82V90.09ZM144.88 141.35L136.23 144.69V135.35L144.88 132V141.35ZM132.52 150L146.66 144.69L148.59 143.86V126.6C144.787 128.047 140.989 129.51 137.189 130.973C135.633 131.572 134.077 132.172 132.52 132.77V150ZM57.27 196.664V204.662H62.478V207.483H57.27V217H54.449V197.594L55.627 196.881V196.664H52.806V193.874H63.935V199.33H61.176V196.664H57.27ZM73.3515 196.633H70.4995V206.367H73.3205L75.2425 204.29V198.524L73.3515 196.633ZM72.9485 209.188H70.4995V217H67.6785V197.563L68.8565 196.85V196.633H65.9735V193.781H74.4985L78.0635 197.377V205.406L75.5525 208.103L79.6755 217H76.5755L72.9485 209.188ZM85.7839 208.134H89.8139L88.0779 196.602H87.4889L85.7839 208.134ZM85.6599 196.602H83.2419V193.781H90.5269L93.9679 217H91.1159L90.2169 210.955H85.3809L84.4819 217H81.6299L84.4819 197.532L85.6599 196.819V196.602ZM98.5857 196.633H95.7337V193.843H101.221L103.856 202.151L106.398 211.854H106.491L105.871 201.996V193.843H108.63V217H105.623L101.996 205.592L99.8877 197.997H99.7947L100.167 205.84V217H97.4077V197.563L98.5857 196.85V196.633ZM124.121 200.601H121.3V198.214L119.533 196.385H117.518L115.782 198.214V212.35L117.549 214.334H119.502L121.3 212.35V209.777L124.121 209.746V213.404L120.742 217.155H116.309L112.961 213.404V197.098L116.34 193.564H120.742L124.121 197.098V200.601ZM129.676 196.664H126.886V193.843H131.35V204.073H136.589V193.843H139.41V217H136.589V206.77H131.35V217H128.529V197.563L129.676 196.881V196.664ZM150.29 214.427V217H142.447V214.427H144.958V197.253L146.136 196.54V196.323H142.695V193.75H149.949V196.323H147.779V214.427H150.29ZM152.944 209.312H155.734V212.443L157.563 214.365H159.609L161.438 212.443V208.754L153.099 202.926V197.098L156.416 193.626H160.756L164.073 197.098V200.663H161.283V198.245L159.547 196.416H157.594L155.889 198.245V201.469L164.197 207.297V213.559L160.787 217.155H156.354L152.944 213.559V209.312ZM174.812 214.427V217H166.969V214.427H169.48V197.253L170.658 196.54V196.323H167.217V193.75H174.471V196.323H172.301V214.427H174.812ZM179.295 196.633H176.443V193.843H181.93L184.565 202.151L187.107 211.854H187.2L186.58 201.996V193.843H189.339V217H186.332L182.705 205.592L180.597 197.997H180.504L180.876 205.84V217H178.117V197.563L179.295 196.85V196.633ZM205.295 201.5H202.474V198.431L200.614 196.54H198.382L196.522 198.431V212.257L198.413 214.303H200.583L202.474 212.257V207.173H199.498V204.383H205.295V213.373L201.885 217H197.111L193.701 213.373V197.284L197.142 193.843H201.854L205.295 197.284V201.5Z" fill="#D6A354"/>
</svg>
