<svg version="1.1" id="Слой_1" xmlns="http://www.w3.org/2000/svg" x="0" y="0" viewBox="0 0 50.5 411.5" xml:space="preserve"><style>.st1{fill:#d6a354}</style><path d="M41.2 109.8c.3-.3.6-.6.8-1-1.6.3.6.1-1.6-.4-.2-2.4-.3.5.2-2v-1h.2c.6-.2.3.1.6-.4l-.8-.3c0-.5.1-1 .2-1.4 0-1.6-1.1 0-1.4-4 .7 0 .6.4 1.2-1.8.4.1.2.1.5.3.7.4-.4 0 .5.3.1-.7.3-1.4.5-2.1.4-1.7-.1 0-.1-1.9-.3 0-.7.1-1 .2 0-.4-.1-.8-.2-1.2l-.4-.6c.7-.2.5-.2 1 .2 0-1.3-.4-.6-.9-1.1l-.2-.2-.1-.1V91c-.1-.5-.1-1-.1-1.5.2-1.4.2.1.6-1.2l-.4-1.4c.6-.1.4 0 .8-.2-.4-.7-.3-.4-.3-1.1 0-.6 0-1.1.1-1.7.2.2.3.4.4.6l.2-.3v-.5c-.7-.2-.7-.3-.8-1l-.2-1.2v-1-.1l.1-.4v-.1l.1-2.8c1 .3.2.3 1.2.6-1-1.9-1.3-1.3-1.4-2s.1-.5.4-.8c.5.4.5.2.6 1h.4c.1-.7.2-.4-.1-.9-.6-.8-1.4-.2-1.5-2.9.4-.1.2.1.4-.2v-.4c.4-1.5.2-1.3.6-2-.8-.4-.5.1-1-.6.1-.2.2-.4.4-.6.2-.3.1-.2.2-.6-.8-.2-.6 0-.6-1h.4v-.4c-.1-.4-.1-.2-.2-.4-.1-1-.9-1.7.1-2.1 1-.5-.2 0 .2-.1 1.1-.3-.5.3.3 0-.3-.5-.2-.2-.2-1-.5-.2-.2-.1-.8 0 0-.6 0-.2.1-.4.3-.4.8-.6 1.3-.6l.2-1.2c.2-.4.1.1 0-.3s0 .3-.1-.4c-.2-1.2.5-.7-.5-2.7l-.7.5-.1.1c.1-1.4.3-2.8.6-4.2.1.2.1 0 .2.4v.6l.4-.4.2-.2c.5-1.1-.2-2-.2-3 0-1.5.4.4.4-1.4 0-.6-.3-.9-.4-1.6.3-.1.6-.3.8-.6-.1.5-.2.9-.2 1.4h.4c0-.5.1-1.1.2-1.6-1.5 0-1 .3-2 .6 0-.9-.5-3.3-.3-4.5.4-1.7-.4-.2 0-1.8.3-1.3 0-1 .1-2.4s.6-1.5.6-3.2c-.8-.3 0 .1-.8-.2.1-.4 0-.9-.1-1.3-.5-1.2-.8-2.5-.7-3.7.2.1 1 .8.7-.5l-.2-1.8c.2-.1.3-.2.5-.3l.1-.1.1-.1.1-.1.3-1.1c0-.6 0-.2-.2-.8.6-.2.1.1.6-.4-.1-.4.1-.2-.5-.4h-.1l.3-4.1s-.1-.7-.1-.9c-.3-.1.1-.2-.3 0-.2.1 0 0-.3.2 0-1 .2-.6-.4-1-.2.7-.1.4-.6.8 0-1-.2-1.4-.2-2.6v-2.8l-.8-.2c.2-.8 0-1.2.6-1.6 0 1.7.4.9.4 2.6l.2-1.6c.7-.4.5-.7.1-2.2-.2-.7-.2-.2-.3-1.2l.1-5.4c.5.3.2.2.8.4 0 1.4.3 1.4-.6 1.2v1.8c1.1.4.1.7 1 1.4.1-1.8.2-3.6.1-5.4l-.1-2.3c0-.9 0-1.8.1-2.7-.6.3-.5 0-1.6 0l-.2 4-.4-.7c-.4-.5.1-.1-.2-.1h-.1c-.1-1.1-.2-2.1-.2-3.2H-.1L-.3 412H38c-.2-.3-.2-.7 0-1 .3-.6.3-.4.8 0 0-1.1-.1-1.4.8-1.6-.8 1.4 0 .6 0 2.4h.6c.2-1.6.8.6.8-2-1.2-.5-.4-1.2-1.4-.8.2-.6.3-.5.3-.8 0-.6 0 .3-.3-.5.2-.7.3-1.5.2-2.2 1.1-.3.5-.6 1.2-2 .6-.2.1.1.6-.4-.1-.5 0-.2-.5-.7l-.1-.1-.7-.6c-.9-1.2.4-2.9-.1-4 .6.2.6.4.6 1.2h.4c.1-1.4.2.2.6-1.2-.5-.2.1.1-.8.2l-.2-1.2c1.4.1 1.3.7 1.8-1.3v-.1l.3-2.6s-.2-.9-.3-.9l-.5-.7c0-.1-.5-.7-.5-.7-.7-1.3-1-2.8-.9-4.3 0-.6 0-1.3-.1-1.9h.6c-.3-.4-.4-.4-.5-.9-.1-.5.2-.6.3-.9.6-.5.3.1.4-.8-.5-.7-.1-.3-1.2-.6-.2-2.4-.3.4.2-2v-1c.4-.2.4.1.8-.4l-.8-.2c0-2.2.7-1.4-.4-2.6-.5-.8-.8-1.8-.8-2.8.7 0 .6.4 1.2-1.8.7.2.3.3 1 .6.1-.7.3-1.4.5-2.1.4-1.7-.1 0-.1-1.9-.3 0-.7.1-1 .2 0-.4-.1-.8-.2-1.2h-.4c.1-1.1.4-.8 1-.4 0-.4.1-.3-.1-.7-.2-.3-.2-.1-.4-.2s-.3 0-.6-.5c-.8-1.5.4-2.9.4-3l-.4-1.4c.6-.1.4 0 .8-.2l-.3-.6v-.1c-.1-.7 0-1.4.1-2 .2.2.3.4.4.6l.1-.1.1-.1v-.5c-1.1-.3-.6-.7-.8-1.7l.4-3.8c.1-.6 0 .6 0-.2v-.3c0-.2 0 .1-.2-.5 1 .3.2.3 1.2.6-.2-.5-.6-1-1-1.4-.4-.4-.3-.1-.4-.5s.1-.6.4-.8c.5.4.5.2.6 1h.4c.4-2-1.5-.2-1.6-3.8.3-.1.3.1.5-.3l-.1-.3.2-.7v-.1c.1-1-.1-.5.4-1.2-.8-.4-.5.1-1-.6.1-.2.2-.4.4-.6.1-.2.2-.4.2-.6-.8-.2-.6 0-.6-1l.2-.8c-.1-1-.9-1.7.1-2.1 1-.5-.2 0 .2-.1 1.1-.2-.5.3.3 0-.3-.5-.2-.2-.2-1-.5-.2-.2-.1-.8 0 .1-1-.4 0 1-1 0 .5.1.3.1.5 0 .1.1.2.1.3.4 1.4-.2.7.6 1.3.2-.7.2-1.3.2-2-.5-.2-.1-.2-.6 0v-.7-.1l.2-.4c.2-.4 0 .2-.1-.7-.2-1.2.5-.7-.5-2.7-.5.1-.5.3-.8.6.1-1.4.3-2.8.6-4.2.1.2.1 0 .2.4v.6l.4-.4.2-.2c.5-1.1-.2-2-.2-3 0-1.5.4.4.3-1.4 0-.6-.3-.9-.4-1.6l.8-.6c-.1.5-.2.9-.2 1.4h.4c0-.5.1-1.1.2-1.6-1.5 0-1 .3-2 .6 0-.5 0-1.1-.2-1.6-.1-1.1-.1-2.3 0-3.4 0-.9-.1 0-.2-.7 0-.4 0-.3.1-.6.3-1.3 0-1 .1-2.4 0-1.4.6-1.5.6-3.2-.8-.3 0 .1-.8-.2.1-.4 0-.9-.1-1.3l-.1-.3-.1-.1c-.4-1.1-.5-2.2-.5-3.3.6.1.3.2.8 0-.1-.9-.4-.4-.4-1.1l-.2-1.1c.4-.2.6-.5.7-.9 0 0 0-.1.1-.1.4-.9.2-.7 0-1.6.6-.2.1.1.6-.4-.2-.6.1 0-.2-.3l-.4-.1c0-.1-.1-.7-.1-.7v-1.8h.6v-.8h-.1c-.1 0-.1 0-.2-.1-.2-.1 0 .1-.3-.1.7-1 .2-.2.2-1.6-.3-.1.1-.2-.3 0s0 0-.3.2c0-.8 0-.5-.2-1-.6.5-.2.3-.8.8.2-1.1-.6-2.7-.1-4.3l.3-1.5c.7.1.1 0 .5.1.3.1-.2 0 .5.3 0-.7 0-.6.4-1 0 1.1-.4 4.9.4 5.8l-.4-11.9c-.1-.8 0-1.8 0-2.6 0-.3-.1-.8-.1-1l.1-3.4.1.1.5.5c.1-.9.1-1.7.1-2.6-.2-.9-.3-1.9-.2-2.8-.5.2-.1.2-.6 0 .3 1.4.5 2.8.4 4.2v.2c-.3 0-.8-.9-.9-1.2l-.7-2.6c-.1-.6-.1-1.2 0-1.8-.5-.1.3-.2-.2.1-.5.2.2.2-.2.1-.3-.6-.2-.4-.2-1.2.1-.1.2-.1.3-.1H39.2c-.2-.8-.3-.3-.3-.9 0-.3.2-.8.3-1.2.2-1.2-.1-.5-.2-1.6v-.8h1c-.6-.9-1-.8-1.2-2.8.7-.1.7-.1.8-.8-.8.2-1.2 1.1-1.4-1.2.7-.4.5-.6 1.4-.8v1.6c.9-.2.8-.8.5-1.5 0-.1 0-.1-.1-.2-.1-.3-.1-.6-.1-.9-1 .5-.8.2-2.2.2 0-1.3-1.1-2.4-.3-3.3l.7-.3c.1-1.3 0-2.6-.2-3.8.8.2.6.4 1.2.8.2-.9.3-1.4-1-1.4-.1-1-.2-.5-.1-1.5.1-.6.5-1.4.3-2-.3-1 .2.4-.1-.3-.1-.1-.1-.3-.2-.4-.2-.5-.3-1-.4-1.4 0 0 0 .1-.1.1-.3.1.1 0-.1.3s.1.2-.4.4c-.2-.3-.4-.7-.5-1.1-.3-1.2.3-1-.7-1.1l-.2-3.6c.3-1.4.3-.6.5-.7.5-.3.4 0 1.1-.3-1-1.5-.3-.6-.2-2.6.1-2 .2-1.2.4-1.1l.1.1.7.3c-.1-1.5-.1.2-.3-.6l.2-.7v-.7l-.1-.2c-.2-.3-.2.5-.2-.5l-.3.7-.1.1c-.1-1-.2-.5-.1-1.7.2-2.1-.7-1.4.1-4.9.2-.4.2-.9.2-1.4.1-.9.2-.7.4-1.4 1.1.1 1 .6 1.2 1.4.3.9.5 1.9.4 2.8.1-.2.1 0 .2-.5s0-.1 0-.6c-.1-1.5.1-3-.3-3.8-.4-.8-.1.2-.3-.7h-.8v.8c-.6-.5-.1 0-.3-.5-.5-1.3-.3-6-.3-7.6h-.6c0-1.1-.1-2.2-.4-3.2 1.4.4 0 .8 1 2.2v-1.5c.1-.5-.1-.5.5-.7.3-.5.5-.5.2-1-.2 0-.4-.1-.6-.2l.1-.9c.4-1.8-.8-.8.4-4.4.2-.7.1.1.3-.7l-.4-.6c.3-.4.4-.3.4-1 0-.5-.1-.5-.2-1.2-.1-1.8 0-1.5.6-2.4-1 .2-.3.1-.6 0l-.1-3.7c0-1.4.4.3.2-1.1s-1-.2-.2-1.9c.7-1.5-.3-.4-.4-2.2 1.5 0 1.3 1.1 2.6 1.2-.1-.4-1.8-2.6-2.4-2.8 0-1.6.2-.3-.1-1.9-.2-.9.3-.8.7-1.5-.5-.6-.9-1.2-1.1-1.9-.3-1.3.5-2-.9-2.1.4-1 .1.2.4-.8-.9-.4-.8.1-.8-1.2.4.3 1 .8 1.6.2.3-.3.3-.5.1-.7-.4-.5.1-.1-.3 0l-.4.2c.2-.9.8-1.2.9-1.7.1-.8 0-1.7-.1-2.5h.2c.3 0-.3.2.3 0 .2-.1.3 0 .4-.7-.6-.3-.7-.1-1.3-.3-.4-.2-.5-.4-.9-.7.4-.4.6-1 .6-1.6l.3.3.3.3c-.2-1 0-.6 0-1.8-.3 0-.7.1-1 .2 0-1.5-.3-1.1-.4-2.2.8 0 .7-.1 1.2.2 0-1.1.2-1.7-.4-2.2 0 .5.1.9.2 1.4-1.3-.4-.2-1-.7-2.7-.4-1-.4-2.1-.1-3.1 1.2-.3.5-.1 1.6 0-.1-.3-.2-.6-.4-.9-.3-.8-.1-.7-.1-.9-.1-1.4-.3-.4-1.1-.7.1-1 .2-.3.8-1.2.6-1-.1-.4 1-1-.3 1.2 0 .4.2 1.6.1.7.1 1.5 0 2.2v4.4h.2c0-1.4.3-1.3.4-2.4l.2-4.2c.1-.8.5-1.2 0-2.1-.1-.2 0 .6-.2-.4v-.8c.1 0 .3.1.4.2.5.1 0 .2.4 0-.3-.5-.2-.2-.2-1 .6-.5 0-.7-.1-.9-.4-.6-.3.1-.2-.9s.3-6-.3-6.4h-.2l-.1-.1c0-.1-.1-.1-.1-.2l-.1-.3c-.1 2-.4 2.6-.4 6-.7-.2-1.2-.9-1.2-1.6 0-1.2.7-.2.2-2.2 1.2 0 .6.1.8-.4-.5-.2-.5-.1-1 .2l-.1-3v-1.1c0-.1-.1 0 0-.5s.1-.3.1-.4c.2-.8 0-.4 0-.9-.1-.3 0-.6.2-.8.4-.5-.1-.4.7.1 0-1.1-.2-1.4.8-1.6-.4.8-.4.5-.2 1.2v.2l.1.5c.2.6-.1.4.4.6.6.2-.2.2.2-.2 1-1.1.8-.4.8-1.8-1.2-.5-.4-1.2-1.4-.8.2-.6.3-.5.3-.7 0-.6 0 .3-.3-.5.2-.7.3-1.5.2-2.2.8-.2 1-.9 1.1-2h.1l.7-.6-1.3-1.2c-.8-1 .1-2.8.1-3.8.6.4.4 0 .4 1h.4c.2-1.4.2.2.6-1.2-.5-.2.1.1-.8.2l-.2-1.2c.8 0 1.6.9 2-2 .5-4.2-.5-2.3-1.3-4.6 0 0-.1-.4-.1-.5-1.1-3.5-.4-1.5-.7-5.3h.6c-.3-.4-.4-.4-.5-.9v-.4c0-.1.1-.2.1-.2l.8-1.4z" fill="#d6a354"/><path class="st1" d="M38.9 208.5c0 .8-.1.9-.2 1.8-.1 2.3-.3-.4-.4 1.4h.4c.1 3-.5-.1.2 3.4.1.6.3 1.2.3 1.8 0 .8-.6 1 .2 1.6.1-.9.3-.7.2-1.8 0-.6-.1-1.1-.2-1.7H39c.2-.7.2-.3.4-.9.1-.4.1-.8 0-1.1.3-.2.3 0 .4-.5v-1c-.1 0-.1.1-.8 0l-.1-3zM45.5 25.3c-.5 1.1-.4 2.5.4 3.5l.4.6c.2-.8.3-1.6.3-2.5 0-1-.5-1.2-1.1-1.6zM45.3 298c-.6 1.3-.4 1.3.1 2.7l.7 1.3c.2-.8.3-1.6.4-2.4 0-1-.5-1.2-1.2-1.6zM45.9 41.2c-1.5.4.3 1-1.2 1.4v.8l.8-.1c1-.3.2-1.2.4-2.1zM45.7 313.9c-1.5.4.3 1-1.2 1.4v.8c.3-.1 1.4 0 1.4-.8s-.4-.3-.2-1.4zM39.6 164c0 .9-.2.7-.2 1.4.1.5.1 1.1.2 1.6h.4c.2-2.4.5-2.5-.4-3zM41.8 61.6c-.4 1.3 0-.7-.4.6.5.2.3-.1.4.4v1h.4c.2-.6.2-1.3.2-2-.5-.2-.1-.2-.6 0zM43.7 15.5c-.3.5-.2.7-.2 1.6 0 .6.1.4.4.6.2-.4.5-2.1-.2-2.2zM43.5 288.2c-.3.5-.2.7-.2 1.6 0 .6.1.4.4.6.3-.4.5-2.1-.2-2.2zM46.5 304.8h-.2l-.2 1.6c.8.3.3-.1.2 1.2h.4c0-1.2-.2-1.6-.2-2.8zM46.7 32.1h-.2l-.2 1.6c.8.3.3-.1.2 1.2h.4c0-1.3-.2-1.6-.2-2.8zM46.4 307.8v2.4c.6-.4.4 0 .4-1v-1.4h-.4zM46.5 35.1v2.4c.6-.4.4 0 .4-1v-1.4h-.4zM46 135.7c1-.7 1-1.1 1.6-2.2-.7.2-.6.2-.9.9-.3.4-.5.8-.7 1.3zM45.9 408.4c1-.7 1-1.1 1.6-2.2-.7.2-.6.2-.9.9-.3.4-.5.8-.7 1.3zM37.9 224.8h.4l.4.2c.3-1.1.6-.9-.4-1.4-.1.6-.2.5-.4 1.2zM42.4 307.6c-.2.9-.5 1.2.4 1.4 0-.4.6-1.3-.4-1.4zM42.4 34.9c-.2.9-.5 1.2.4 1.4.1-.4.6-1.3-.4-1.4zM43.5 326.1l-.2 2h.4c0-1.1.2-1.1.2-2h-.4zM44.7 322.5l.1-.1.4-.6c.3-.5.2-1.1-.2-1.5-.1.7-.2 1.4-.3 2.2zM44.8 49.8l.1-.1.1-.1.4-.8c.2-1-.2-1.1-.2-1.2-.2.7-.3 1.5-.4 2.2zM46.3 311.9c0 2.8-.4 2.9.4 3.8l-.4-3.8zM46.5 39.1c0 1.5-.2 2.9.1 3.5.3.5.1.1.3.3l-.4-3.8zM40.3 250.1c0 1.2.2 1.5.2 2.6h.2c0-1.1.2-2.2-.4-2.6zM41.2 251.5c0 .9.2 1.1.2 2.2h.2v-2.2h-.4zM36.9 238.2c0 .8-.1.8.2 1.4.3-.2.4 0 .4-.6s-.2-.6-.6-.8zM40.2 234.8c0 .8-.2.4-.2 1.4 0 .6.1.4.4.6v-2h-.2zM45.3 44.2c-.1.4-.2.8-.2 1.2.6-.4.6-.3.6-1.2h-.4zM45.1 316.9c-.1.4-.2.8-.2 1.2.6-.4.6-.3.6-1.2h-.4zM44.3 312.3c-.1.4.1.9.4 1.2.2-.1.4-.2.6-.2l-1-1zM44.5 39.6c-.1.4.1.9.4 1.2.2-.1.4-.2.6-.2l-1-1zM42.8 50.6v1.6c.1-.1.1 0 .3-.3.2-.5.3-1.2-.3-1.3zM42.7 323.3v1.6c.1-.2.2 0 .3-.3.1-.3.3-1.2-.3-1.3zM39.4 203.7c0 1.3-.4 1.3.2 1.8v-1.8h-.2zM44.7 322.5l-.4-.2v1.2h.4zM44.8 49.8l-.3-.2-.1 1.2h.4zM39.6 140.1c0 1-.2.8.4 1.2v-1.2h-.4zM41.5 399.1c.1.7.1.7.8.8-.2-.6-.1-.6-.8-.8zM41.6 126.4c.1.7.1.7.8.8-.2-.6-.1-.6-.8-.8zM45.1 310.3c.1.8-.1.6.6.8v-.8h-.6zM45.3 37.5c.1.8-.1.6.6.8v-.8h-.6zM42.8 58.8c0 .6.1.4.4.6V58c-.4.5-.4.4-.4.8zM42.8 331.5c0 .6.1.4.4.6v-1.4c-.1.2-.1.1-.3.3-.1.4-.1-.2-.1.5zM41.6 343.3l.2 1h.8l-1-1zM41.7 70.6c.1.5.1.5.2 1.1h.8l-1-1.1zM40.9 406.4c-.6.5-.6.5-.4 1.2l.3-.4.1-.1c0-.2.2-.5 0-.7zM44.1 353.4v.8h.4l.2-.8zM45 70.5l-.2.4c0 .6.1.4.4.6.1-.5.4-.9-.2-1zM44.9 343.2c-.1.1-.1.3-.2.4 0 .6.1.4.4.6.1-.5.4-.9-.2-1zM44.6 34.9h.4v1h-.4zM44.6 307.6h.4v1h-.4z"/><path class="st1" d="M38.2 224.7h.2v2h-.2zM43.4 54.4h.4v1h-.4zM41 133.7c-.6.5-.6.5-.4 1.2l.1-.1.4-.7c0-.2 0-.3-.1-.4zM41.5 258.7l-.2 1.2h.4v-1.2zM41.6 81.7c.1.8-.1.6.6.8v-.8c-.4.2-.2.2-.6 0zM45.7 316.3c.6.8.6-.1.6 1h.2v-1h-.8zM45.8 43.6c.6.8.6-.1.6 1h.2v-1h-.8zM39.8 213.5l.1 1.1c.1.3.1.2.3.3 0-.6.1-1.3-.4-1.4zM41.7 285.4h.2v1.8h-.2zM39.8 99.7v1.2c.1-.1 1-1 0-1.2zM43.3 317.5v1h.4c0-.6.1-.9-.4-1zM43.4 44.8v1h.4c0-.6.1-1-.4-1zM44.8 231.8v1c.6-.4.4 0 .4-1h-.4zM38.4 114c0 .4-.1.3.4.8v-1.2c-.2.1-.4.1-.4.4zM38.3 386.7c0 .4-.1.3.4.8v-1.2c-.2.1-.4.1-.4.4zM41.5 354.4c.1.9-.2.3.4.8.2-.2.2-.5.2-.8-.4.2-.2.2-.6 0zM46.5 45.2h.2v1.6h-.2zM46.4 317.9h.2v1.6h-.2zM44.3 64h.4v.8h-.4zM44.1 336.7h.4v.8h-.4zM43.6 53.4h.4v.8h-.4z"/><path transform="matrix(1 -.00428 .00428 1 -1.009 .173)" class="st1" d="M39.7 235.5h.4v.8h-.4z"/><path class="st1" d="M44.5 327.7v1c.2-.1.4-.1.4-.4 0-.3 0-.5-.4-.6zM39.7 372.5v1c.2-.1.4-.1.4-.4 0-.3-.1-.6-.4-.6zM44.6 55v1c.2-.1.4-.1.4-.4 0-.3-.1-.5-.4-.6zM45.7 334.3v1c.1-.1.2 0 .3-.3.2-.5.1-.1.1-.7h-.4zM45.8 61.6v1c.1-.1.2 0 .3-.3.2-.5.1-.1.1-.7h-.4zM40.6 28.3v1c.1-.1.1 0 .3-.3.2-.5.1-.1.1-.7h-.4zM38.4 233.6h.4v-1c-.1.1-.2 0-.3.3-.2.5-.1.1-.1.7zM44.2 81.5c.5-.2.4 0 .6-.8-.8.5-.5-.2-.6.8zM39.4 141.9h.2v1.4h-.2z"/><path transform="matrix(1 -.00428 .00428 1 -.918 .181)" class="st1" d="M41.8 214h.2v1.4h-.2z"/><path class="st1" d="M40.5 301v1h.2c0-.3.1-.7.2-1h-.4zM41.6 98.3v.8h.4c0-.4 0-.7-.4-.8zM48.6 292c.1.9-.2.4.4.8v-.8h-.4zM48.7 19.3c.1.9-.2.3.4.8v-.8h-.4zM44.1 353h.4v-.8c-.6.4-.3-.1-.4.8zM44.2 80.3h.4v-.8c-.6.4-.3-.1-.4.8zM44.4 264.7v.6c.7-.2.1.3.6-.6h-.6zM41.9 371.9c-.1-.9.2-.4-.4-.8 0 1.2-.1.5.4.8zM43 57h.4v.6H43zM44.7 367.8h.4v.6h-.4zM43 329.7h.4v.6H43zM38.3 234.4h.2v1.2h-.2zM41.8 78.7c-.1.7-.4.6.4.8-.1-.1-.1-.4-.2-.4-.2-.4 0-.2-.2-.4zM41.7 351.4c-.1.7-.4.6.4.8-.1-.1-.1-.3-.2-.4-.2-.4 0-.2-.2-.4zM44 68.6c.6-.4.3.1.4-.8-.6.5-.3-.1-.4.8zM42.8 240.4c.6-.5.3.1.4-.8-.7.5-.4-.1-.4.8zM43.9 341.4c.6-.5.3.1.4-.8-.6.4-.3-.2-.4.8zM42.7 34.5v-.8c-.7.5-.6.4 0 .8zM42.5 307.2v-.8c-.6.4-.6.4 0 .8zM41.3 352.6c0 .3 0 .2.1.5.3.7.2.3.3.5 0-.6 0-.8-.4-1zM38.8 217.5h.2v1h-.2zM40.4 98.7v.6h.4c-.1-.3 0-.5-.4-.6zM40.3 371.5v.6h.4c-.1-.4 0-.6-.4-.6zM44.8 95.1v.6h.4c-.1-.3 0-.5-.4-.6zM40.2 229.2c.6-.2.4 0 .6-.6-.9.4-.4-.1-.6.6zM39.2 207.5h.4v-.8c-.1.2 0-.1-.2.4-.1 0-.2.3-.2.4zM43.8 52.4c.1.6 0 .3.4.6v-.6h-.4zM39.4 208.5c.1.6 0 .3.4.6v-.6h-.4zM43.7 325.1c.1.6 0 .3.4.6v-.6h-.4zM38.2 120.8v.6c.4-.3.2 0 .4-.6h-.4zM38.1 393.5v.6c.4-.3.2 0 .4-.6h-.4zM41.4 80.1c.1.4-.1 0 .1.5l.3.3c0-.5 0-.7-.4-.8zM40.5 379.9c.1.4-.1 0 .1.5l.3.3c0-.5 0-.7-.4-.8zM40.6 107.2c.1.4-.1 0 .1.5l.3.3c0-.5 0-.7-.4-.8zM48.3 4h.2v.8h-.2zM40.4 287.4h.2v.8h-.2zM48.2 276.7h.2v.8h-.2zM40.5 14.6h.2v.8h-.2zM40.2 243.8h.2v.8h-.2zM45.5 321.3h.2v.8h-.2zM40.7 336.7h.2v.8h-.2zM40.8 64h.2v.8h-.2zM45.7 48.6h.2v.8h-.2zM39.6 238.6h.2v.8h-.2zM42.4 130.3c.5.6-.1.3.8.4-.2-.1-.1-.1-.3-.3-.5-.2-.1-.1-.5-.1zM42.3 403c.5.6-.1.3.8.4l-.3-.3c-.5-.2-.1 0-.5-.1zM41.9 371.9c.1.6 0 .3.4.6-.1-1.1.2-.4-.4-.6zM39.6 206.7c0-.1.4.2.1-.4-.3-.5.2 0-.3-.2.1.5-.1.2.2.6zM42.4 99.8v-.6c-.6.4-.6.1 0 .6zM41.7 372.7v-.6c-.6.4-.6.1 0 .6zM41.8 99.9v-.6c-.6.5-.6.2 0 .6zM41.7 326.7l.4.4c0-1.1 0-.3-.2-.6l-.2.2zM41.8 54l.4.4c0-1.1 0-.3-.2-.6l-.2.2zM44.9 30.1c.1.6 0 .3.4.6-.1-.3-.1-.5-.4-.6zM42.1 336.5c.1.6 0 .3.4.6-.1-.3 0-.5-.4-.6zM42.2 63.8c.1.6 0 .3.4.6 0-.3 0-.5-.4-.6zM44.7 302.8c.1.6 0 .3.4.6 0-.3 0-.5-.4-.6zM37 236.6h.2v.6H37zM46.5 49.2h.2v.6h-.2zM39.8 226.5h.2v.6h-.2zM41.2 81.7h.2v.6h-.2zM43.7 9.7v.6h.2v-.6zM43.6 282.3h.2v.6h-.2zM46.4 321.9h.2v.6h-.2zM41.1 354.4h.2v.6h-.2zM38.2 119h.2v.6h-.2zM45.4 308.6h.2v.6h-.2zM45.5 35.9h.2v.6h-.2zM38.1 391.7h.2v.6h-.2zM48.5 404.6h.2v.6h-.2zM40.8 248.6h.2v.6h-.2zM48.6 131.8h.2v.6h-.2zM42 69h.2v.6H42zM39.6 163h.2v.6h-.2zM41.9 341.7h.2v.6h-.2zM39.3 290.8l.4-.6c-.5.2-.4-.4-.4.6zM43.9 411c.6-.2.3.4.4-.6 0 0 0 .1-.1.1s-.1.1-.1.1l-.2.4zM44.2 182.9c.4-.3.2 0 .4-.6-.5.2-.2 0-.4.6zM44 138.3c.6-.2.3.4.4-.6 0 0 0 .1-.1.1l-.3.5zM44.5 305.4c-.2 0-.4.4 0 .3.2-.1.6-.4 0-.3zM44.7 32.7c-.2 0-.4.4 0 .3.1-.1.5-.4 0-.3zM42.3 334.3c.5-.1.3.1.4-.4-.5.2-.2 0-.4.4zM42.4 61.6c.5-.1.3.1.4-.4-.5.2-.2-.1-.4.4zM41.2 86.9c-.2.2.3.7.1.2 0 0 .3-.5-.1-.2zM39.4 229.7c-.2.2.3.7.1.2 0 .1.2-.5-.1-.2zM39.4 209.9c-.2.2.3.7.1.2 0 0 .2-.5-.1-.2zM41.1 375.7c-.2.2.3.7.1.2 0 0 .2-.6-.1-.2zM41.6 111.2c-.2.2.3.7.1.2 0 0 .2-.5-.1-.2zM41 72.5c-.2.2.3.7.1.2 0 0 .3-.6-.1-.2zM42.8 16.7c-.2.2.3.7.1.2.1 0 .3-.6-.1-.2zM40.4 225c-.2.2.3.7.1.2 0 0 .2-.6-.1-.2zM40.9 345.2c-.2.2.3.7.1.2 0 0 .2-.6-.1-.2zM41.5 383.9c-.2.2.3.7.1.2 0 0 .2-.5-.1-.2zM42.1 301.6c-.2.2.3.7.1.2 0 0 .3-.5-.1-.2zM42.2 28.9c-.2.2.3.7.1.2 0 0 .2-.5-.1-.2zM42.7 339.4c-.2.2.3.7.1.2 0 0 .3-.6-.1-.2zM40.6 236.8c-.2.2.3.7.1.2 0 0 .2-.5-.1-.2zM41.2 75.3c-.2.2.3.7.1.2 0 0 .3-.6-.1-.2zM41.1 359.6c-.2.2.3.7.1.2 0 0 .2-.5-.1-.2zM38.1 228.4c-.2.2.3.7.1.2.1 0 .3-.6-.1-.2zM41.2 103c-.2.2.3.7.1.2 0 0 .2-.6-.1-.2zM41.1 348c-.2.2.3.7.1.2 0 0 .2-.6-.1-.2zM40.5 253.1c-.2.2.3.7.1.2.1 0 .3-.6-.1-.2zM39.2 202.3c-.2.2.3.7.1.2 0 0 .2-.5-.1-.2zM42.8 66.6c-.2.2.3.7.1.2 0 .1.3-.5-.1-.2zM42.7 289.4c-.2.2.3.7.1.2 0 0 .3-.6-.1-.2zM41.5 262.7c-.2.2.3.7.1.2 0 0 .3-.5-.1-.2zM40.2 238.2c-.2.2.3.7.1.2 0 0 .2-.5-.1-.2zM40.7 379.3c-.2.2.3.7.1.2 0 0 .2-.5-.1-.2zM36.5 236.8c-.2.2.3.7.1.2 0 0 .3-.5-.1-.2zM40.7 267.7c-.2.2.3.7.1.2 0 0 .3-.5-.1-.2zM40.8 106.6c-.2.2.3.7.1.2 0 0 .2-.6-.1-.2zM41.1 261.3c-.2 0-.5.4 0 .3s0 .5.1-.1c0-.2.4-.2-.1-.2zM42.1 377.5c-.2 0-.5.4 0 .3.5-.1 0 .5.1-.1 0-.3.3-.2-.1-.2zM42.2 104.8c-.2 0-.5.4 0 .3.4-.1 0 .5.1-.1 0-.2.3-.2-.1-.2z"/><path class="st1" d="M40.4 14.1c-.2 0-.5.4 0 .3.4-.1 0 .5.1-.1 0-.3.4-.2-.1-.2zM41.3 319.3c-.1 0 0 .2 0 .2s-.5.3.1.1c0 0 .3-.4-.1-.3zM41.5 314.7c-.1 0 0 .2 0 .2s-.5.3.1.1c-.1 0 .3-.4-.1-.3zM40.7 365.8l.4.2c-.1-.3.1-.2-.1-.3-.3 0 0 0-.3.1zM40.8 93.1l.4.2c-.1-.3.1-.2-.1-.3-.3 0 0 0-.3.1zM42.8 183.8c-.1 0 0 .2 0 .2s-.5.3 0 .1c.1-.3.3-.3 0-.3zM41.2 195.9c-.1 0 0 .2 0 .2s-.5.3 0 .1v-.1c0-.2.4-.3 0-.2zM41.4 46.6c-.1 0 0 .2 0 .2s-.5.3.1.1v-.1c0-.2.4-.3-.1-.2zM41.6 42c-.1 0 0 .2 0 .2s-.5.3 0 .1l.1-.1c0-.2.4-.3-.1-.2zM41 68.2v.2l.3-.1zM40.9 341v.2l.2-.2zM37.9 224.8h-.2l.2.2zM46.7 48.6c-.1.2-.5-.3 0 0-.1.1 0 0 0 0zM39.9 6s0 .1 0 0c0 .1 0 0 0 0zM39.4 227.4zM42.3 269.9c.1.1 0 0 0 0zM38.3 232.2c.1.1.1 0 0 0zM41.7 288.2c.1 0 .1 0 0 0zM42.2 228zM39.7 251.1c.1 0 .1-.1 0 0zM41.5 261.7c.1.1.1 0 0 0zM42.2 261.7c0 .1 0 0 0 0zM42.2 50.4c.1 0 .1 0 0 0zM39.4 232.4c0 .1 0 0 0 0zM39.4 224.4l-.2.4.2-.4zM39.4 224.4l.2-.4-.2.4zM41.5 381.7l.4-.1-.4.1z"/></svg>