<svg xmlns="http://www.w3.org/2000/svg" viewBox="0 0 863 476.4"><path d="M14.4 206.1L0 228.2l13.6 21c49.9-3.8 78.4-24 122.7-34.4 27.6-6.1 236.8 107.3 276.2 124.4 69.6 31.8 320.9 144 402.6 136.8 6-.5 10.8-2.8 15.7-5.2 38.4-22 28.1-65.3 6.6-84.7-6.5-6.5-9.6-7.3-17.7-8.7l-290.1-82.2c-43.2-13.8-252.8-80-287.9-119.5L395 148l6.1 66.7L863 116.4 850.1 0 143.5 164.1l21.2 2.4c-20.2 50.7 5.5-7.4-52.2 12-10.2 23.9-82.3 25.4-98.1 27.6zm763.8 219.6c-.7-9 5.7-17.5 15.7-18.2 9-.7 17.5 5.7 18.2 15.7.7 9-6.7 17.6-15.7 18.2l-1 .1c-8.9.6-16.5-6.8-17.2-15.8zM188.4 199.8c-.8-10 6.7-17.6 15.6-19.2 10-.8 18.6 6.6 19.2 15.6.8 10-6.6 18.6-16.6 19.3-8.9.7-17.5-6.7-18.2-15.7z" fill="#d6a354"/></svg>