<svg version="1.1" id="Слой_1" xmlns="http://www.w3.org/2000/svg" x="0" y="0" viewBox="0 0 106 418.8" xml:space="preserve"><style>.st0{fill:#fff}</style><path class="st0" d="M11.8 308.7c-.3.3-.6.6-.8 1 1.6-.3-.6-.1 1.6.4.2 2.5.3-.4-.2 2v1h-.1c-.6.2-.3-.1-.6.4l.8.3c0 .5-.1 1-.2 1.4 0 1.6 1 0 1.4 4.1-.7 0-.6-.4-1.2 1.8-.4-.1-.2-.1-.5-.3-.7-.4.4 0-.5-.3-.1.7-.3 1.4-.5 2.2-.4 1.7.1 0 .1 1.9.3 0 .7-.1 1-.2 0 .4.1.8.2 1.2l.4.7c-.7.2-.5.2-1-.2 0 1.3.4.6.9 1.1l.2.2.1.1v.1c.1.5.1 1 .1 1.6-.2 1.4-.2-.1-.6 1.2l.4 1.4c-.6 0-.4 0-.8.2.5.7.3.4.3 1.1 0 .6 0 1.1-.1 1.7-.2-.2-.3-.4-.4-.6l-.1.3c-.1.2-.1.4-.1.6.7.2.7.3.8 1l.2 1.2c0 .2-.1 1-.1 1v.1l-.1.4v.1l-.1 2.9c-1-.3-.2-.3-1.2-.6 1 1.8 1.3 1.3 1.4 2 .1.7-.1.6-.4.8-.5-.3-.5-.2-.6-1h-.6c-.1.7-.3.4.1.9.6 1 1.4.5 1.5 3.2-.4.1-.2-.1-.4.2v.6c-.4 1.5-.1 1.3-.6 2 .8.4.5-.1 1 .6-.1.2-.2.4-.4.6-.2.3-.1.2-.2.6.8.2.6.1.6 1h-.4v.4c.1.4.1.2.2.4.1 1 .9 1.7 0 2.2-.9.5.2 0-.2.1-1.1.2.5-.4-.3 0 .3.5.2.2.2 1 .5.2.2.1.8 0-.1.6 0 .2-.1.4-.3.4-.8.6-1.3.6l-.3 1.2c-.2.4-.1-.2 0 .3s0-.3.1.4c.2 1.3-.5.7.5 2.8l.7-.5.1.1c-.1 1.4-.3 2.9-.6 4.3-.1-.2-.1 0-.2-.4v-.6l-.4.4-.2.2c-.5 1.1.2 2 .2 3.1-.1 1.5-.4-.4-.4 1.3 0 .6.3.9.4 1.6-.5.1-.5.3-.8.6.1-.5.2-.9.2-1.4h-.4c0 .5-.1 1.1-.2 1.6 1.5 0 1-.3 2-.6 0 .9.5 3.4.3 4.6-.4 1.7.4.2 0 1.8-.3 1.3 0 1-.1 2.5-.1 1.4-.6 1.5-.6 3.3.8.3 0-.2.8.2-.1.4 0 .9.1 1.3.5 1.2.8 2.6.7 3.9-.2-.1-1-.8-.7.5l.5 2c-.2.1-.3.2-.5.3l-.1.1-.1.1-.1.1-.3 1.2c0 .6 0 .2.2.8-.6.2-.1-.1-.6.4.1.4-.1.2.5.4h.1l-.3 4.2s.1.7.1.9c.3.1-.1.2.3 0l.4-.2c0 1-.2.6.4 1 .2-.7.1-.5.6-.8 0 1 .2 1.4.2 2.7v2.9l.8.2c-.2.8 0 1.2-.6 1.6 0-1.7-.4-.9-.4-2.7l-.2 1.7c-.7.4-.5.8 0 2.4.2.7.2.2.3 1.1l-.4 5.4c-.4-.3-.2-.2-.8-.4 0-1.4-.3-1.4.6-1.2v-1.8c-1.1-.4-.1-.7-1-1.4-.1 1.8-.2 3.7-.1 5.5v3.5c.1.9 0 1.8-.1 2.8.6-.3.5 0 1.6 0l.2-4.1.4.7c.4.5-.1.1.2.1h.1c.1 1.1.2 2.2.2 3.3H110v-429H14.9c.2.3.2.7 0 1-.3.6-.3.4-.8 0 0 1.1.1 1.4-.8 1.6.8-1.4 0-.6 0-2.5h-.6c-.2 1.6-.8-.6-.8 2 1.3.5.4 1.2 1.4.8-.2 1.6-.3 1.5-.3 1.7 0 .6 0-.3.3.5-.2.7-.3 1.5-.2 2.3-1.1.3-.5 1.6-1.2 3.1-.6.2-.1-.1-.6.4.1.5 0 .3.5.7l.1.2.7.6c.9 1.2-.4 3 .1 4.1-.6-.2-.6-.4-.6-1.2h-.5c-.1 1.4-.2-.2-.6 1.2.5.2-.1-.1.8-.2l.2 1.2c-1.4-.1-1.3-.6-1.8 1.3v.1l-.4 2.6s.2.9.3 1l.5.7.6.7c.7 1.3 1 2.9.9 4.4 0 .6 0 1.3.1 1.9h-.5c.3.4.4.4.5.9.1.5-.2.6-.3.9-.6.7-.3.1-.4 1.1.5.6.1.3 1.2.6.2 2.5.3-.5-.2 2v1c-.4.2-.4-.1-.8.4l.8.2c0 2.2-.7 1.4.4 2.7.5.8.8 1.8.8 2.9-.7 0-.6-.5-1.2 1.8-.7-.2-.3-.3-1-.6-.1.7-.3 1.4-.5 2.2-.4 1.7.1 0 .1 1.9.3 0 .7-.1 1-.2 0 .4.1.8.2 1.2h.4c-.1 1.1-.4.8-1 .4 0 .4-.1.4.1.7.2.3.2.1.4.2s.3 0 .6.5c.8 1.5-.4 3.1-.4 3.1l.4 1.4c-.6 0-.4 0-.8.2l.3.8v.4c.1.7 0 1.4-.1 2-.2-.2-.3-.4-.4-.6l-.1.1-.1.1c-.1.2-.1.4-.1.5 1.1.3.6.7.8 1.7l-.3 4.3c-.1.6 0-.6 0 .2v.3c.1.3 0-.1.2.5-1-.3-.2-.3-1.2-.6.2.5.6 1 1 1.4.4.4.3.1.4.6.1.6-.1.6-.4.9-.5-.4-.5-.2-.6-1H11c-.4 2 1.5.2 1.6 3.9-.3.1-.3 0-.5.3v.4l-.1.7v.1c-.1 1 .1.5-.4 1.2.8.4.5-.1 1 .6-.1.2-.2.4-.4.6-.2.3-.1.2-.2.6.8.2.6.1.6 1l-.2.8c.1 1 .9 1.6 0 2.2s.2 0-.2.1c-1.1.3.5-.3-.3 0 .3.5.2.2.2 1 .5.2.2.1.8 0-.1 1 .5 0-1 1 0-.5-.1-.3-.1-.5l-.1-.3c-.4-1.4.2-.7-.5-1.3-.2.7-.2 1.3-.2 2 .5.2.1.2.6 0V76.6l-.2.4c-.2.4 0-.2.1.7.2 1.3-.5.7.5 2.8.5-.1.5-.3.8-.6-.1 1.4-.3 2.9-.6 4.3-.1-.2-.1 0-.2-.4v-.6l-.4.4-.2.2c-.5 1.1.2 2 .2 3.1-.1 1.5-.4-.4-.4 1.4 0 .6.3.9.4 1.6l-.8.6c.1-.5.2-.9.2-1.4h-.5c0 .5-.1 1.1-.2 1.6 1.5 0 1-.3 2-.6 0 .5 0 1.1.2 1.6.2 1.1.2 2.4 0 3.5 0 .9.1 0 .2.7 0 .4 0 .3-.1.6-.3 1.3 0 1-.1 2.5s-.6 1.5-.6 3.3c.8.4 0-.1.8.2-.1.4 0 .9.1 1.3l.2.4-.3.3c.4 1.1.5 2.3.5 3.4-.6-.1-.3-.2-.8 0 .1.9.4.5.4 1.1l.2 1.1c-.4.2-.6.5-.7.9l-.1.1c-.4.9-.2.7 0 1.6-.6.3-.1-.1-.6.4.2.6-.1 0 .2.3l.4.1.1.7-.1 1.7h-.5-.1v.8h.1c.1 0 .1 0 .2.1.2 0 0-.1.3.1-.7 1-.2.2-.2 1.6.3.1-.1.2.3 0l.4-.2c0 .8-.1.5.2 1 .6-.5.2-.3.8-.8-.2 1.1.6 2.8.1 4.4l-.3 1.5c-.7-.1-.1 0-.5-.1s.2 0-.5-.3c-.1.7 0 .6-.4 1 0-1.1.4-5.1-.4-6l.3 12.2c.1.8 0 1.8 0 2.7 0 .3.1.8.1 1l-.1 3.5-.1-.1-.5-.5c-.1.9-.1 1.7 0 2.7.2.9.3 1.9.2 2.9.5-.2.1-.2.6 0-.3-1.4-.5-2.9-.4-4.3v-.2c.3 0 .8.9.9 1.2l.7 2.6c.1.6.1 1.2 0 1.8.5.1-.3.2.2-.1s-.2-.2.2-.1c.3.6.2.4.2 1.2-.1.1-.2.1-.3.1H13.4c.2.8.3.3.3 1 0 .3-.2.8-.3 1.3-.2 1.2.1.5.2 1.6v.8h-1c.6.9 1 .8 1.2 2.9-.7.1-.7.1-.8.8.8-.2 1.2-1.1 1.4 1.2-.6.4-.5.6-1.4.8v-1.6c-.9.2-.8.8-.5 1.5v.1c.1.3.1.6.1.9 1-.5.8-.2 2.2-.2 0 1.3 1.1 2.5.3 3.4l-.7.3c-.1 1.3 0 2.7.2 3.9-.8-.2-.6-.4-1.2-.8-.2.9-.3 1.4 1 1.4.1 1 .2.5.1 1.5-.1.6-.5 1.4-.3 2 .3 1-.1-.4.1.3 0 .1.1.2.2.4.2.5.3 1 .4 1.5 0 0 0-.1.1-.1.3-.1-.1 0 .1-.3s-.1-.2.4-.4c.2.4.4.7.5 1.1.3 1.2-.3 1 .7 1.1l.2 3.7c-.3 1.4-.3.6-.5.7-.5.3-.4 0-1.1.3 1 1.6.3.6.2 2.7s-.2 1.2-.4 1.1l-.1-.1-.7-.3c.1 1.4.1-.2.3.6l-.2.7v.8l.1.2c.1.4.1-.5.2.6l.3-.7.1-.1c.1 1 .2.5.1 1.7-.2 2.2.7 1.4-.1 5.1-.2.4-.2.9-.2 1.4-.1.9-.2.6-.4 1.4-1.1-.1-1-.6-1.2-1.4-.3-.9-.5-1.9-.4-2.9-.1.2-.1 0-.2.5s0 .1 0 .6c.1 1.5-.1 3.1.4 3.9s.1-.2.3.7h.8v-.8c.6.4.1 0 .3.4.5 1.3.3 6.2.3 7.9h.7c0 1.1.2 2.3.4 3.3-1.4-.4 0-.8-1-2.3 0 .5 0 1-.1 1.5s.1.5-.5.7c-.3.5-.5.5-.2 1 .4.1.3 0 .6.2l-.1.9c-.4 1.8.8.8-.4 4.5-.2.7-.1-.1-.3.7l.4.6c-.3.4-.4.3-.4 1 0 .5.1.5.2 1.2.1 1.8 0 1.5-.6 2.5 1-.2.3-.1.6 0l.1 3.8c0 1.4-.4-.3-.2 1.1.2 1.4 1 .2.2 1.9-.7 1.5.3.4.4 2.3-1.5 0-1.3-1.1-2.6-1.2.1.4 1.8 2.7 2.4 2.9 0 1.6-.2.3.1 1.9.2.9-.2.8-.7 1.5.5.6.9 1.2 1.1 1.9.3 1.4-.5 2 .9 2.2-.4 1-.1-.2-.4.8.9.4.8-.1.8 1.2-.4-.3-1-.8-1.6-.1-.3.3-.3.5-.1.7.4.4-.1.1.3.1l.4-.2c-.2.9-.8 1.1-.9 1.7-.1.8 0 1.7.1 2.6h-.2c-.3 0 .3-.2-.3 0-.2.1-.3 0-.4.7.6.3.7.1 1.3.3.4.1.5.4.9.7-.4.4-.6 1-.6 1.6l-.3-.3-.3-.3c.2 1 0 .6 0 1.8.3 0 .7-.1 1-.2 0 1.5.3 1.1.4 2.3-.8 0-.6.1-1.2-.2 0 1.1-.2 1.7.4 2.3 0-.5-.1-.9-.2-1.4 1.4.4.2 1 .7 2.8.4 1 .4 2.2.1 3.2-1.2.3-.5.1-1.6 0 .1.3.2.6.4.9.3.8.1.7.1.9.1 1.4.3.4 1.1.7-.1 1-.2.3-.8 1.2-.6.9.1.4-1 1 .3-1.2 0-.4-.2-1.6v-6.8h-.4c0 1.4-.3 1.3-.4 2.5l-.2 4.3c-.1.8-.5 1.2 0 2.2.1.2 0-.6.2.4v.8c-.1 0-.4-.1-.4-.2-.5-.1 0-.2-.4 0 .3.5.2.2.2 1-.6.5 0 .7.1.9.4.6.3-.1.2.9-.1 1-.3 6.2.3 6.7h.2L13 272l.1.2.1.3c0-2 .4-2.7.4-6.2.7.2 1.2.9 1.2 1.6 0 1.2-.6.2-.2 2.3-1.2 0-.6-.1-.8.4.5.2.5.1 1-.2l.1 3.1v1.1c0 .1.1 0 0 .5s-.1.3-.1.4c-.2.8 0 .4 0 .9.1.3 0 .6-.2.8-.4.5.1.4-.7-.1 0 1.1.1 1.4-.8 1.6.4-.8.4-.5.2-1.2v-.1l-.1-.5c-.2-.6.1-.4-.4-.6s.2-.2-.2.2c-1 1.1-.8.4-.8 1.8 1.3.4.4 1.2 1.4.8-.2.6-.3.5-.3.8 0 .6 0-.3.3.5-.2.7-.3 1.5-.2 2.3-.8.2-1 .9-1 2h-.1l-.7 2.8 1.3 1.2c.8 1-.1 2.9-.1 3.9-.6-.4-.4 0-.4-1h-.3c-.1 1.4-.2-.2-.6 1.2.5.2-.1-.1.8-.2l.2 1.2c-.8 0-1.6-.9-1.9 2-.5 4.4.5 2.4 1.3 4.7l.1.5c1.1 3.6.4 1.5.7 5.5h-.6c.3.4.4.4.5.9v.4c0 .1-.1.2-.1.3l-.3.6z"/><path class="st0" d="M14.1 206.5c0-.8.1-.9.2-1.8.1-2.4.3.4.4-1.4h-.4c-.1-3.1.5.1-.2-3.5-.1-.6-.3-1.2-.3-1.8 0-.8.6-1-.3-1.6-.1.9-.3.7-.1 1.8 0 .6 0 1.1.1 1.6h.4c-.2.7-.2.3-.4.9v1.1c-.3.2-.3 0-.4.5v1.1c.1 0 .1-.1.8 0l.2 3.1zM7.6 396.1c.5-1.1.4-2.5-.3-3.5l-.4-.6c-.2.8-.3 1.6-.4 2.5-.1 1 .4 1.3 1.1 1.6zM7.6 113.8c.6-1.3.4-1.3-.1-2.9l-.7-1.3c-.2.8-.3 1.6-.4 2.5 0 1.1.5 1.4 1.2 1.7zM7.2 379.8c1.5-.4-.3-1 1.2-1.4v-.8l-.8.1c-1.1.2-.2 1.1-.4 2.1zM7.2 97.5c1.5-.4-.3-1 1.2-1.4v-.8c-.3 0-1.4-.1-1.4.8s.4.2.2 1.4zM13.4 252.6c0-.9.2-.7.2-1.4-.1-.5-.1-1.1-.2-1.6H13c-.2 2.4-.5 2.4.4 3zM11.2 358.5c.4-1.3 0 .7.4-.6-.5-.2-.3.1-.4-.4v-1h-.4c-.2.7-.2 1.3-.2 2 .5.3.1.3.6 0zM9.4 406.3c.3-.5.2-.7.2-1.6 0-.6-.1-.4-.4-.6-.2.4-.5 2.2.2 2.2zM9.4 124.1c.3-.5.2-.7.2-1.6 0-.6-.1-.4-.4-.6-.2.3-.5 2 .2 2.2zM6.4 106.9h.2l.2-1.6c-.8-.3-.3.1-.2-1.2h-.4c0 1.1.2 1.5.2 2.8zM6.4 389.1h.2l.2-1.6c-.8-.3-.3.1-.2-1.2h-.4c0 1.2.2 1.6.2 2.8zM6.6 103.7v-2.5c-.6.4-.4 0-.4 1v1.4h.4zM6.6 386v-2.5c-.6.4-.4 0-.4 1v1.4h.4zM7 281.9c-1 .7-1 1.1-1.6 2.3.7-.2.6-.2.9-.9.3-.5.5-1 .7-1.4zM7-1.3C6-.6 6-.2 5.4.9c.7-.2.6-.2.9-.9.3-.4.5-.9.7-1.3zM15.1 189.7h-.4l-.4-.2c-.3 1.1-.6.9.4 1.4.2-.7.3-.6.4-1.2zM10.6 103.9c.2-.9.5-1.1-.4-1.4-.1.4-.6 1.4.4 1.4zM10.6 386.2c.2-.9.5-1.2-.4-1.4-.1.4-.6 1.4.4 1.4zM9.4 84.7l.2-2h-.4c0 1.1-.2 1.1-.2 2h.4zM8.2 88.5l-.1.1-.5.6c-.3.5-.2 1.1.1 1.5.3-.6.5-1.4.5-2.2zM8.2 370.8l-.2.1-.4.8c-.2 1 .2 1.1.2 1.2.2-.5.4-1.3.4-2.1zM6.6 99.6c0-2.9.4-3-.4-3.9l.4 3.9zM6.6 381.8c0-1.5.2-3-.1-3.6-.4-.6-.1-.1-.3-.3l.4 3.9zM12.6 163.5c0-1.2-.2-1.5-.2-2.7h-.2c0 1.1-.2 2.2.4 2.7zM11.8 162.1c0-.9-.2-1.1-.2-2.3h-.2v2.3h.4zM16.1 175.8c0-.8.1-.8-.2-1.4-.3.2-.4 0-.4.6s.3.7.6.8zM12.8 179.3c0-.8.2-.5.2-1.4 0-.6-.1-.4-.4-.6v2h.2zM7.8 376.7c.1-.4.2-.8.2-1.2-.6.4-.6.3-.6 1.2h.4zM7.8 94.4c.1-.4.2-.9.2-1.3-.6.4-.6.3-.6 1.2h.4zM8.6 99.2c.1-.4-.1-.9-.4-1.2-.3.2-.2.1-.6.2l1 1zM8.6 381.4c.1-.4-.1-.9-.4-1.2-.2.1-.4.2-.6.2l1 1zM10.2 370v-1.6c-.1.2-.1.1-.3.3-.2.2-.2 1.2.3 1.3zM10.2 87.7v-1.6c-.1.1-.1 0-.3.3-.2.3-.2 1.3.3 1.3zM13.6 211.4c0-1.3.4-1.4-.2-1.8v1.8h.2zM8.2 88.5l.4.3v-1.3h-.4zM8.2 370.8l.4.2v-1.2h-.4zM13.4 277.3c0-1 .2-.8-.4-1.2v1.2h.4zM11.4 9.2c-.1-.7-.1-.7-.8-.8.2.7.1.6.8.8zM11.4 291.5c-.1-.7-.1-.7-.8-.8.2.6.1.5.8.8zM7.8 101.2c-.1-.8.1-.6-.6-.8v.8h.6zM7.8 383.5c-.1-.8.1-.6-.6-.8v.8h.6zM10.2 361.4c0-.6-.1-.4-.4-.6v1.5c.4-.6.4-.4.4-.9zM10.2 79.2c0-.6-.1-.4-.4-.6V80c.1-.2.1-.1.3-.3s.1.3.1-.5zM11.4 67l-.2-1h-.8l1 1zM11.4 349.2l-.2-1h-.8l1 1zM12 .7c.6-.5.6-.5.4-1.2l-.3.4-.1.1c0 .1-.2.5 0 .7zM8.8 56.5v-.9h-.4l-.2.9zM8 349.4l.2-.4c0-.6-.1-.4-.4-.6-.1.4-.4.9.2 1zM8 67.2l.2-.4c0-.6-.1-.4-.4-.6-.1.3-.4.9.2 1zM8 385.2h.4v1H8zM8 102.9h.4v1H8z"/><path class="st0" d="M14.7 187.7h.2v2h-.2zM9.2 365h.4v1h-.4zM12 284.1c.6-.4.6-.5.4-1.2l-.1.1-.4.7c0 .1 0 .3.1.4zM11.4 154.6l.2-1.2h-.4v1.2zM11.4 337.8c-.1-.8.1-.6-.6-.8v.8c.4-.2.2-.3.6 0zM7.2 95c-.6-.8-.6.1-.6-1h-.2v1h.8zM7.2 377.3c-.6-.8-.6.1-.6-1h-.2v1h.8zM13.2 201.3l-.1-1.1c-.1-.3-.1-.2-.3-.3 0 .6-.1 1.3.4 1.4zM11 125.2h.2v1.8H11zM13.2 319.1v-1.2c-.1.1-.9 1.1 0 1.2zM9.6 93.6v-1h-.4c0 .6-.1 1 .4 1zM9.6 376.1v-1h-.4c0 .5-.1.9.4 1zM8.2 182.4v-1c-.6.4-.4 0-.4 1h.4zM14.7 304.4c0-.4.1-.3-.4-.8v1.2c.2-.1.4-.1.4-.4zM14.7 22c0-.5.1-.3-.4-.8v1.2c.2 0 .4 0 .4-.4zM11.4 55.4c-.1-.9.2-.4-.4-.8-.1.2-.2.5-.2.8.4-.1.2-.2.6 0zM6.4 374h.2v1.6h-.2zM6.4 91.7h.2v1.6h-.2zM8.4 355.3h.4v.8h-.4zM8.4 73h.4v.8h-.4zM9 366.2h.4v.8H9zM14.9 176.4h.4v.8h-.4zM8.4 83.1v-1c-.2.1-.4.1-.4.4 0 .3.1.6.4.6zM13.2 36.8v-1c-.2.1-.4.1-.4.4 0 .3.1.5.4.6zM8.4 365.4v-1c-.2.1-.4.2-.4.4s.1.6.4.6zM7.2 76.2v-1c-.1.1-.1 0-.3.3-.2.5-.1.1-.1.7h.4zM7.2 358.5v-1c-.1.2-.1 0-.3.3-.2.5-.1.1-.1.7h.4zM12.4 393.1v-1c-.1.2-.1 0-.3.3-.1.5 0 .2-.1.7h.4zM14.7 180.5h-.4v1c.1-.1.1 0 .3-.3.2-.5.1-.1.1-.7zM8.8 338c-.5.2-.4 0-.6.8.9-.4.5.2.6-.8zM13.4 274.1h.2v1.4h-.2zM12.8 198h.2v1.4h-.2zM12.4 110.8v-1h-.2c0 .3-.1.7-.2 1h.4zM11.4 320.5v-.8H11c.1.5 0 .7.4.8zM4.4 120.2c-.1-.9.2-.4-.4-.8v.8h.4zM4.4 402.5c-.1-.9.2-.3-.4-.8v.8h.4zM8.8 57h-.4v.8c.6-.4.3.2.4-.8zM8.8 339.3h-.4v.8c.6-.5.3.1.4-.8zM8.6 148.3v-.6c-.6.2-.1-.3-.6.6h.6zM11 37.5c.1.9-.2.4.4.8 0-1.2.1-.6-.4-.8zM9.6 362.7h.4v.6h-.4zM7.8 41h.4v.6h-.4zM9.6 80.4h.4v.6h-.4zM14.5 178.5h.2v1.2h-.2zM11.2 340.9c.1-.7.4-.6-.4-.8l.2.4c.2.4 0 .1.2.4zM11.2 58.7c.1-.7.4-.6-.4-.8 0 .1.1.4.2.4.2.4 0 .1.2.4zM9 351.3c-.6.4-.3-.1-.4.8.6-.5.3.1.4-.8zM10.2 173.4c-.6.5-.3-.1-.4.8.6-.3.3.2.4-.8zM9 69.1c-.6.5-.3-.1-.4.8.6-.5.3.1.4-.8zM10.4 386.6v.8c.6-.4.6-.4 0-.8zM10.4 104.3v.8c.6-.4.6-.4 0-.8zM11.6 57.4c0-.3.1-.2-.1-.5-.3-.7-.1-.3-.3-.5.1.6.1.8.4 1zM14.1 196.2h.2v1h-.2zM12.6 320.1v-.6h-.4c.1.3.1.5.4.6zM12.6 37.9v-.6h-.4c.1.3.1.5.4.6zM8.2 323.9v-.6h-.4c.1.4 0 .5.4.6zM12.8 185.1c-.6.2-.4 0-.6.6.8-.4.4.1.6-.6zM13.9 207.6h-.5v.8c.1-.2 0 .1.2-.4l.3-.4zM9.2 368.1c-.1-.6 0-.3-.4-.6v.6h.4zM13.6 206.5c-.1-.6 0-.3-.4-.6v.6h.4zM9.2 85.8c-.1-.6 0-.3-.4-.6v.6h.4zM14.9 297.3v-.6c-.4.3-.3 0-.4.6h.4zM14.9 15v-.6c-.4.3-.3 0-.4.6h.4zM11.6 339.5c-.1-.4.1 0-.1-.5l-.3-.3c.1.4 0 .7.4.8zM12.4 29.2c-.1-.4.1 0-.1-.5-.1-.3-.1-.2-.3-.3.1.4 0 .7.4.8zM12.4 311.4c-.1-.4.1 0-.1-.5l-.3-.3c.1.4 0 .7.4.8zM4.6 417.3h.2v1.8h-.2zM12.4 124.1h.2v.8h-.2zM4.6 135.1h.2v.8h-.2zM12.4 406.4h.2v.8h-.2zM12.6 169.1h.2v.8h-.2zM7.2 89h.2v.8h-.2zM12 73h.2v.8H12zM12 355.3h.2v.8H12zM7.2 371.4h.2v.8h-.2zM13.2 174.6h.2v.8h-.2zM10.6 287.6c-.5-.6.1-.3-.8-.4.1.1 0 .1.3.3.5.2.2 0 .5.1zM10.6 5.2c-.5-.6.1-.3-.8-.4.1.1 0 .1.3.3.5.2.2 0 .5.1zM11 37.5c-.1-.6 0-.3-.4-.6.1 1-.2.3.4.6z"/><path class="st0" d="M13.4 208.4c0 .1-.4-.2-.1.4.3.6-.2 0 .3.2-.1-.5 0-.1-.2-.6zM10.6 319.1v.6c.6-.5.6-.2 0-.6zM11.2 36.6v.6c.6-.5.6-.1 0-.6zM11.2 318.9v.6c.6-.5.6-.2 0-.6zM11.2 84.1l-.4-.4c0 1.1 0 .3.2.6l.2-.2zM11.2 366.4l-.3-.4c0 1.1 0 .3.2.6l.1-.2zM8.2 391.1c-.1-.6 0-.3-.4-.6.1.4 0 .6.4.6zM10.8 74c-.1-.6 0-.3-.4-.6.1.4 0 .5.4.6zM10.8 356.3c-.1-.6 0-.3-.4-.6.1.4 0 .5.4.6zM8.2 108.9c-.1-.6 0-.3-.4-.6.1.4 0 .6.4.6zM15.9 176.8h.2v.6h-.2zM6.4 370.8h.2v.6h-.2zM13 187.3h.2v.6H13zM11.6 337.1h.2v.6h-.2zM9.2 411.8h.2v.6h-.2zM9.2 129.5h.2v.6h-.2zM6.4 88.6h.2v.6h-.2zM11.6 54.8h.2v.6h-.2zM14.7 298.5h.2v.6h-.2zM7.4 102.3h.2v.6h-.2zM7.4 384.6h.2v.6h-.2zM14.7 16.2h.2v.6h-.2zM4.2 2h.2v1.6h-.2zM12 164.3h.2v.6H12zM4.2 285.3h.2v.6h-.2zM10.8 350.2h.2v.6h-.2zM13.2 253h.2v.6h-.2zM10.8 68h.2v.6h-.2zM13.6 121.4l-.4.6c.6-.2.4.4.4-.6zM9-4.1c-.6.2-.3-.4-.4.6 0 0 0-.1.1-.1s.1-.1.1-.1.1-.3.2-.4zM8.8 233.1c-.4.3-.3 0-.4.6.5-.3.2 0 .4-.6zM9 279.3c-.6.2-.3-.4-.4.6 0 0 0-.1.1-.1l.3-.5zM8.4 106.2c.2 0 .4-.4 0-.3-.1 0-.5.4 0 .3zM8.4 388.5c.2 0 .4-.4 0-.3-.1.1-.5.4 0 .3zM10.6 76.2c-.5.1-.3-.1-.4.4.5 0 .2.2.4-.4zM10.6 358.5c-.5.1-.3-.1-.4.4.5 0 .2.2.4-.4zM11.8 332.3c.2-.2-.3-.7-.1-.2 0 0-.2.7.1.2zM13.6 184.4c.2-.2-.3-.7-.1-.2 0 0-.2.7.1.2zM13.6 205.1c.2-.2-.3-.7-.1-.2 0 0-.2.6.1.2zM11.8 33.5c.2-.2-.3-.7-.1-.2 0-.1-.2.5.1.2zM11.4 307.2c.2-.2-.3-.7-.1-.2 0 0-.2.6.1.2zM12 347.4c.2-.2-.3-.7-.1-.2 0-.1-.2.5.1.2zM10.2 405.2c.2-.2-.3-.7-.1-.2 0-.2-.2.5.1.2zM12.6 189.5c.2-.2-.3-.7-.1-.2 0-.1-.2.5.1.2zM12 65.1c.2-.2-.3-.7-.1-.2 0-.1-.2.5.1.2zM11.4 24.9c.2-.2-.3-.7-.1-.2 0 0-.2.6.1.2zM10.8 110.1c.2-.2-.3-.7-.1-.2 0 0-.2.6.1.2zM10.8 392.5c.2-.2-.3-.7-.1-.2 0-.1-.2.6.1.2zM10.2 71.1c.2-.2-.3-.7-.1-.2 0 0-.2.5.1.2zM12.4 177.2c.2-.2-.3-.7-.1-.2 0 0-.2.5.1.2zM11.8 344.5c.2-.2-.3-.8-.1-.3 0 0-.2.6.1.3zM11.8 50.1c.2-.2-.3-.7-.1-.2 0 0-.2.6.1.2zM14.9 186c.2-.2-.3-.7-.1-.2 0-.1-.2.6.1.2zM11.8 315.8c.2-.2-.3-.7-.1-.2 0-.1-.2.5.1.2zM11.8 62.2c.2-.2-.3-.7-.1-.2 0-.1-.2.5.1.2zM12.4 160.4c.2-.2-.3-.7-.1-.2 0 0-.2.5.1.2zM13.9 212.9c.2-.2-.3-.7-.1-.2 0 0-.3.6.1.2zM10.2 353.4c.2-.2-.3-.7-.1-.2 0 0-.2.5.1.2zM10.2 122.8c.2-.2-.3-.7-.1-.2 0-.1-.2.5.1.2zM11.4 150.4c.2-.2-.3-.7-.1-.2 0 0-.2.6.1.2zM12.8 175.8c.2-.2-.3-.7-.1-.2 0 0-.2.6.1.2zM12.2 29.8c.2-.2-.3-.7-.1-.2 0-.1-.2.5.1.2zM16.5 177.2c.2-.2-.3-.7-.1-.2 0 0-.2.5.1.2zM12.2 145.2c.2-.2-.3-.7-.1-.2 0 0-.2.7.1.2zM12.2 312c.2-.2-.3-.7-.1-.2 0-.1-.2.5.1.2zM11.8 151.9c.2 0 .5-.4 0-.3-.5.1 0-.5-.1.1 0 .2-.3.2.1.2zM10.8 31.6c.2 0 .5-.4 0-.3s0-.5-.1.1c0 .3-.3.2.1.2zM10.8 314c.2 0 .5-.4 0-.3s0-.5-.1.1c0 .2-.3.2.1.2zM12.6 407.8c.2 0 .5-.4 0-.3s0-.5-.1.1c0 .2-.3.2.1.2zM11.6 91.9c.1 0 0-.2 0-.2s.5-.4 0-.1c0-.1-.4.3 0 .3zM11.4 96.7c.1 0 0-.2 0-.2s.5-.4 0-.1c0 0-.4.3 0 .3zM12.2 43.7l-.4-.2c.1.3-.1.2.1.3.2.1 0 0 .3-.1zM12.2 326l-.4-.2c.1.3-.1.2.1.3.3 0 0 .1.3-.1zM10.2 232c.1 0 0-.2 0-.2s.5-.4-.1-.1c0 .3-.2.3.1.3zM11.8 219.6c.1 0 0-.2 0-.2s.5-.4 0-.1v.1c0 .1-.4.2 0 .2zM11.6 374.2c.1 0 0-.2 0-.2s.5-.3 0-.1v.1c0 .1-.4.2 0 .2zM11.4 378.9c.1 0 0-.2 0-.2s.5-.3 0-.1v.1c0 .1-.4.2 0 .2zM12 351.7v-.2l-.2.2zM12 69.5v-.2l-.2.2zM15.1 189.7h.2l-.1-.3zM6.4 372.2c.1-.3.5.2 0 0 0-.2 0-.2 0 0zM13.2 416.1s-.1-.1 0 0c0-.1 0 0 0 0zM13.6 187.1c0-.1 0 0 0 0zM10.6 142.9zM14.7 181.9s0 .1 0 0zM11.2 124.1c0-.1 0 0 0 0zM10.8 186.5c0-.1 0 0 0 0zM13.2 162.5c-.1-.1 0 0 0 0zM11.4 151.4c-.1 0 0 .1 0 0zM10.8 151.4c-.1 0 0 .1 0 0zM10.8 370.1s0 .1 0 0zM13.6 181.7s0 .1 0 0zM13.6 190.1l.2-.4-.2.4zM13.6 190.1l-.2.4.2-.4zM11.4 27.3l-.4.2.4-.2z"/></svg>