<svg version="1.1" id="Layer_1" xmlns="http://www.w3.org/2000/svg" x="0" y="0" viewBox="0 0 256.6 133" xml:space="preserve"><style>.st0{enable-background:new}.st1{fill:#f0d8b4}.st2{fill:#d6a354}</style><g class="st0"><g class="st0"><path class="st1" d="M214.1 103.8c1-.7 2.2-1.2 3.1-1.8 3.6-2.2 6.8-4.8 9.4-7.9 6.4-7.7 8.2-19.2 3.2-28-9.3-16.4-22.8-5-16.5 2.9 2.6 3.3 6.2 2.6 9.5 10 2.7 5.8 1.5 10.9-1.7 15.2-2.1 2.9-6.6 7.1-10.9 8.6 0 0 0 .1-.1.1 0 0 0 .1-.1.1v1.1c0 4-.1 17.7-.1 28.5h4.1c.1-11.6.1-26.6.1-28.8z"/><path class="st1" d="M219.3 106.2c.2-.6 2-1.1 2.5-1.4 5.4-2.7 11.3-8.6 14.8-13.2 2.7-3.6 12.1-16.5 5.6-21.7-2-1.6-9.5-2.7-8.8 4.9 1.2 13.9-6.4 22.9-18 29.3v28.7h3.9v-26.6z"/><path class="st1" d="M224.7 107.3c4-1 17.7-11.4 20.3-14.5.6-.7 1-1 1.8-1.7.7-.6 1-1.2 1.6-1.8 7-7.4-.5-12.4-4.1-8.2-.6.7-1.8 3.4-2.4 4.5-.9 1.5-1.8 2.8-2.7 4.2-1.6 2.3-4.4 5.6-6.4 7.6-3.1 3.1-8 7.4-11.9 8.8v26.7h3.9v-25.6z"/><path class="st1" d="M230.6 109c4.5-.6 12.5-5.9 15.5-8 2.1-1.5 8.5-6.2 9.2-8.7.4-1.6-.9-3.1-2-3.6-3-1.4-4.8 2.4-6.9 4.3-4.6 4.1-11.3 9.4-16.6 12.6-.6.3-3.4 1.7-3.6 2.3v24.8h4.5V109zM205.5 78.3c-3.8.6-7 4.1-6.3 8.6 1.6 9.6 16.4 7.4 14.8-2.6-.6-3.5-4.1-6.7-8.5-6z"/><g><path d="M150.5 62.5c2.3 4.8 16.9 4.2 19.8 3.3l3.2 3.9-2.5 4c-10 1.1-15.8-2.3-24.8-3.7-5.4-.9-45.2 24.7-52.6 28.8-13.9 7.6-65 35.5-79.2 32.8-10.6-3.6-7.9-15-2.5-18.5l57.9-21.2c8.3-3.4 48.8-19.6 55.1-27.9l-30.8-3.2L94 74 0 61.3l1.1-23.7 142.3 23.1c-.7 0-1.8.1-3.5.3 4.8 9.8-1.2-1.4 10.6 1.5zm-18.2 2c1.9 0 3.4 1.6 3.4 3.4 0 1.9-1.5 3.4-3.4 3.4s-3.4-1.6-3.4-3.4c0-2 1.6-3.5 3.4-3.4zM19.4 118c1.9 0 3.4 1.6 3.4 3.4 0 1.9-1.5 3.4-3.4 3.4s-3.4-1.6-3.4-3.4c0-2 1.6-3.5 3.4-3.4zM2.4 30.2c0-8 2.2-14.8 6.6-20.3 4.4-5.6 10.3-8.3 17.6-8.3C34.7 1.5 40.9 4 45.1 9c4.3 5 6.4 12.1 6.4 21.1 0 4.1-.4 7.8-1.4 11.1L40 39.8c.8-2.7 1.2-5.9 1.2-9.6 0-13.2-4.9-19.8-14.6-19.8-4.5 0-7.9 1.8-10.3 5.4-2.4 3.6-3.6 8.4-3.6 14.4 0 2.1.1 4 .3 5.8L2.5 34.5c-.1-1.4-.1-2.8-.1-4.3zM58.7 2.3L68.3 0v43.8l-9.6-1.4V2.3zM76.2 45c-.4-1.9-.5-3.9-.5-6.1 0-6.5 1.9-11.8 5.7-15.9 3.8-4.1 8.5-6.1 14.2-6.1 3.1 0 6 .6 8.5 1.9V2.3l9.6-2.3v50.3l-9.6-1.4V27.5c-2.1-1.6-4.2-2.4-6.4-2.4-3.9 0-6.8 1.2-8.9 3.5-2.1 2.3-3.1 5.7-3.1 10.1 0 3.3.6 5.9 1.8 7.9L76.2 45zm44.8 6.3V2.5c7.6-.4 12.9-.5 16-.5 5.8 0 10.4 1.2 13.7 3.8 3.3 2.5 5 6.1 5 10.7 0 4.5-2.4 8-7.1 10.6 7 2.4 10.5 7.5 10.5 15.1 0 5.1-1.9 9.2-5.8 12.2-1 .8-2 1.4-3.1 2L121 51.3zm10-40.8V24c1.5.1 3.2.2 4.8.2 6.5 0 9.8-2.5 9.8-7.4 0-4.3-3-6.5-8.9-6.5-1.6 0-3.5.1-5.7.2zm0 21.3v18.6c2 .2 3.7.3 4.9.3 4.4 0 7.7-.8 9.7-2.3 2-1.5 3-4 3-7.5 0-3.2-.9-5.5-2.8-7s-5.1-2.2-9.8-2.2c-1 0-2.6.1-5 .1zm30.8 6.3c0-6.3 1.8-11.4 5.4-15.4 3.6-3.9 8.4-5.9 14.4-5.9 6.2 0 11.1 1.9 14.5 5.7 3.4 3.8 5.2 9 5.2 15.6 0 6.5-1.8 11.8-5.3 15.6-3.5 3.9-8.3 5.8-14.4 5.8-6.3 0-11.1-2-14.6-5.9-3.5-3.8-5.2-9-5.2-15.5zm10 0c0 9.1 3.3 13.6 9.8 13.6 3 0 5.4-1.2 7.1-3.5 1.7-2.3 2.6-5.7 2.6-10.1 0-8.9-3.2-13.4-9.7-13.4-3 0-5.4 1.2-7.1 3.5-1.8 2.4-2.7 5.7-2.7 9.9zm52.5 27.3c-1 2.7-3.2 5-6.6 6.8-2.7 1.5-5.8 2.3-9.2 2.6-.8.1-1.7.1-2.5.1l-3.7-4.3 3.7-4.2c.9 0 1.8 0 2.5-.1 5.7-.4 8.6-2.2 8.6-5.5 0-2.5-1-6.2-3.1-11.3l-12.9-31.9h10l11.3 28.5 10.2-28.5h10l-18.3 47.8zM161.9 9.1c.8-.6 1.1-1.2 1.1-2.1 0-1.8-1.3-2.9-3.3-2.9h-4.3v5.1c.9 1.5 1.5 3.3 1.8 5.3h2.8c2 0 3.2-1.2 3.2-3.1 0-1.1-.4-1.7-1.3-2.3zM158 8V6.3h1.6c.6 0 .9.3.9.9 0 .5-.3.8-.9.8H158zm0 4.1v-1.8h1.7c.6 0 .9.3.9.9 0 .6-.3.9-.9.9H158zm15.4 2.3L169.6 4h-2l-3.8 10.4h2.7l.5-1.6h3.2l.5 1.6h2.7zm-3.9-3.7h-1.8l.9-2.8.9 2.8zm13.1 3.7l-2.2-4.3c.5-.3.7-.4.9-.7.5-.6.8-1.2.8-2 0-1.9-1.5-3.3-3.6-3.3h-4.1v10.4h2.5v-3.9h.9l1.8 3.9h3zm-5.7-6V6.3h1.5c.6 0 1.1.5 1.1 1.1s-.5 1.1-1.1 1.1h-1.5zm13.4.7c.8-.6 1.1-1.2 1.1-2.1 0-1.8-1.3-2.9-3.3-2.9h-4.3v10.4h4.5c2 0 3.2-1.2 3.2-3.1.1-1.1-.3-1.7-1.2-2.3zm-4-1.1V6.3h1.6c.6 0 .9.3.9.9 0 .5-.3.8-.9.8h-1.6zm0 4.1v-1.8h1.7c.6 0 .9.3.9.9 0 .6-.4.9-.9.9h-1.7zm14 2.3v-2.3h-4.5v-1.8h3.9V8h-3.9V6.3h4.5V4h-7.1v10.4h7.1zm10 0l-2.2-4.3c.5-.3.7-.4.9-.7.5-.6.8-1.2.8-2 0-1.9-1.5-3.3-3.6-3.3H202v10.4h2.6v-3.9h.9l1.8 3.9h3zm-5.7-6V6.3h1.4c.6 0 1.1.5 1.1 1.1s-.5 1.1-1.1 1.1h-1.4zm12.1-1.6l1.6-1.6c-.6-.5-.8-.6-1.3-.9-.6-.2-1.3-.4-2.1-.4-2.4 0-3.9 1.3-3.9 3.3 0 1.7.9 2.7 2.8 3l1.3.2c.6.1.9.3.9.9 0 .6-.5.9-1.5.9-.6 0-1.2-.1-1.6-.3-.3-.1-.4-.2-.7-.4l-1.6 1.6c.6.5.9.7 1.4.9.7.3 1.5.4 2.4.4 2.6 0 4.2-1.3 4.2-3.3 0-1.9-.9-2.8-2.8-3.1l-1.3-.2c-.6-.1-.9-.4-.9-.8 0-.6.5-.9 1.4-.9.4 0 .8 0 1.1.2.2.1.3.2.6.5zm11.2 7.6V4h-2.5v4h-2.7V4h-2.5v10.4h2.5v-4.1h2.7v4.1h2.5zm9.6-5.2v-.9c0-1.5-.3-2.4-1-3.2-.8-.8-1.7-1.2-2.9-1.2s-2.1.4-2.9 1.2c-.8.8-1.1 1.7-1.1 3.8v.7c0 1.3 0 2.7 1.1 3.8.8.8 1.7 1.2 2.9 1.2s2.1-.4 2.9-1.2c1.1-1.2 1-2.7 1-4.2zm-5-2.5c.2-.3.6-.5 1-.5s.8.2 1 .5c.3.4.4 1.1.4 2.1v.7c0 1.3-.1 1.9-.4 2.3-.2.3-.6.5-1 .5s-.8-.2-1-.5c-.3-.3-.4-.9-.4-2.3v-.7c.1-1 .2-1.8.4-2.1zm6.7-2.7v10.4h2.5v-3.7h1.6c2.1 0 3.5-1.4 3.5-3.3S245.4 4 243.3 4h-4.1zm2.6 4.4V6.3h1.5c.6 0 1.1.5 1.1 1.1s-.5 1.1-1.1 1.1h-1.5z"/></g><g><path class="st2" d="M215.4 102.6c1-.7 2.2-1.2 3.1-1.8 3.6-2.2 6.8-4.8 9.4-7.9 6.4-7.7 8.2-19.1 3.2-28-9.3-16.4-22.8-5-16.5 2.9 2.6 3.3 6.2 2.6 9.5 10 2.7 5.8 1.5 10.9-1.7 15.2-2.1 2.9-6.6 7.1-10.9 8.6l-.1.1s0 .1-.1.1v1.1c0 4-.1 17.7-.1 28.5h4.1c.1-11.6 0-26.7.1-28.8z"/><path class="st2" d="M220.6 104.9c.2-.6 2-1.1 2.5-1.4 5.4-2.7 11.3-8.6 14.7-13.2 2.7-3.6 12.2-16.5 5.6-21.7-2.1-1.6-9.5-2.7-8.8 5 1.2 13.9-6.4 22.9-18 29.3v28.7h3.9v-26.7z"/><path class="st2" d="M225.9 106c4-1 17.7-11.4 20.3-14.5.6-.7 1-1 1.8-1.7.7-.6 1-1.2 1.6-1.9 7-7.4-.5-12.4-4.1-8.1-.6.7-1.8 3.4-2.4 4.5-.9 1.5-1.8 2.8-2.7 4.2-1.6 2.3-4.4 5.6-6.4 7.6-3.1 3.1-7.9 7.4-11.9 8.8v26.7h3.9V106z"/><path class="st2" d="M231.9 107.7c4.4-.6 12.5-5.9 15.5-8 2.1-1.5 8.5-6.2 9.1-8.7.4-1.6-.9-3.1-2-3.6-3-1.4-4.8 2.4-6.9 4.3-4.6 4.1-11.3 9.4-16.7 12.6-.6.3-3.4 1.7-3.6 2.3v24.8h4.5v-23.7zM206.8 77c-3.8.6-7 4.1-6.2 8.6 1.6 9.6 16.4 7.4 14.7-2.5-.6-3.6-4.1-6.8-8.5-6.1z"/></g></g></g></svg>