<svg version="1.1" id="Layer_1" xmlns="http://www.w3.org/2000/svg" x="0" y="0" viewBox="0 0 286 133.1" xml:space="preserve"><style>.st0{fill:#f0d8b4}.st1{fill:#d6a354}</style><g id="Слой_x0020_1"><g id="_960351104"><path class="st0" d="M230.9 22.5l2.1 6.4h6.8l-5.5 4 2.1 6.5-5.5-4-5.5 4 2.2-6.5-5.5-4h6.7zM252.9 29.4l2.1 6.5h6.7l-5.5 4 2.1 6.4-5.4-4-5.5 4 2.1-6.4-5.5-4h6.7zM270 45.5l2 6.4h6.8l-5.4 4 2 6.5-5.4-4-5.6 4 2.2-6.5-5.5-4h6.8zM275.9 67.9l2 6.4h6.8l-5.5 4 2.1 6.5-5.4-4-5.5 4 2-6.5-5.5-4h6.8zM270 90.9l2 6.4h6.8l-5.4 4 2 6.5-5.4-4-5.6 4 2.2-6.5-5.5-4h6.8zM253.4 107.4l2.1 6.5h6.8l-5.5 4 2.1 6.4-5.5-4-5.5 4 2.1-6.4-5.5-4h6.8z"/><g><path d="M150.7 62.6c2.4 4.8 16.9 4.2 19.8 3.3l3.2 3.9-2.5 4c-10 1-15.8-2.3-24.8-3.7-5.4-.8-45.2 24.8-52.6 28.8-13.9 7.6-65.1 35.5-79.3 32.8-10.6-3.6-7.9-15-2.5-18.5L70 92c8.3-3.4 48.9-19.6 55.1-27.9l-30.8-3.3-.1 13.2L0 61.4l1.1-23.8 142.4 23.2c-.7.1-1.8.1-3.4.3 4.7 9.8-1.2-1.5 10.6 1.5zm-18.2 1.9c1.9 0 3.4 1.5 3.4 3.4s-1.5 3.4-3.4 3.4-3.4-1.6-3.4-3.4 1.5-3.4 3.4-3.4zM19.4 118.1c1.9 0 3.4 1.6 3.4 3.4s-1.6 3.4-3.4 3.4c-1.9-.1-3.4-1.6-3.4-3.4.1-1.9 1.6-3.4 3.4-3.4zM2.4 30.2c0-8 2.2-14.8 6.6-20.3 4.4-5.6 10.3-8.3 17.7-8.3 8.1 0 14.3 2.5 18.6 7.5 4.2 5 6.4 12.1 6.4 21.1 0 4.1-.5 7.8-1.4 11.1L40 39.9c.8-2.7 1.2-6 1.2-9.7 0-13.2-4.9-19.8-14.6-19.8-4.5 0-7.9 1.8-10.3 5.4-2.4 3.6-3.6 8.4-3.6 14.4 0 2.1.1 4 .4 5.8L2.5 34.5c-.1-1.3-.1-2.8-.1-4.3zM58.8 2.3L68.4 0v43.9l-9.6-1.4V2.3zM76.3 45c-.4-1.8-.5-3.9-.5-6 0-6.5 1.9-11.8 5.7-15.9s8.5-6.2 14.2-6.2c3.1 0 6 .7 8.6 1.9V2.3l9.6-2.3v50.4l-9.6-1.4V27.5c-2.1-1.6-4.2-2.5-6.4-2.5-3.9 0-6.8 1.1-8.9 3.5-2.1 2.4-3.1 5.7-3.1 10.1 0 3.3.6 5.9 1.8 7.9L76.3 45zm44.8 6.4V2.5c7.6-.4 12.9-.5 16-.5 5.9 0 10.4 1.2 13.7 3.7 3.3 2.5 5 6.1 5 10.7 0 4.5-2.4 8-7.1 10.6 7 2.5 10.4 7.5 10.4 15.1 0 5.1-1.9 9.2-5.8 12.2-1 .8-2 1.4-3.1 2l-29.1-4.9zm10-40.9V24c1.5.1 3.1.2 4.8.2 6.5 0 9.8-2.5 9.8-7.4 0-4.3-3-6.5-8.9-6.5-1.5 0-3.4.1-5.7.2zm0 21.4v18.6c2 .2 3.7.3 4.9.3 4.5 0 7.7-.8 9.7-2.3s3-4 3-7.5c0-3.2-.9-5.6-2.8-7s-5.1-2.2-9.8-2.2c-.9 0-2.6 0-5 .1zm30.9 6.3c0-6.3 1.8-11.4 5.4-15.3 3.6-4 8.5-6 14.4-6 6.3 0 11.1 1.9 14.6 5.7 3.4 3.8 5.2 9 5.2 15.6s-1.8 11.8-5.3 15.7c-3.5 3.9-8.3 5.8-14.5 5.8-6.2 0-11.1-1.9-14.6-5.9-3.5-3.9-5.2-9.1-5.2-15.6zm10 0c0 9.1 3.3 13.6 9.8 13.6 3 0 5.4-1.2 7.1-3.6 1.8-2.4 2.7-5.7 2.7-10.1 0-8.9-3.3-13.4-9.8-13.4-3 0-5.4 1.1-7.1 3.5-1.8 2.5-2.7 5.7-2.7 10zm52.5 27.3c-1 2.8-3.2 5.1-6.6 6.9-2.7 1.4-5.8 2.3-9.2 2.6-.8.1-1.6.1-2.5.1l-3.7-4.3 3.7-4.2c.9 0 1.8-.1 2.5-.1 5.7-.4 8.6-2.2 8.6-5.5 0-2.5-1-6.2-3.1-11.3l-12.9-32h10l11.3 28.5 10.2-28.5h10l-18.3 47.8zM162.1 9.1c.8-.6 1.1-1.3 1.1-2.2 0-1.8-1.3-2.9-3.3-2.9h-4.3v5.1c1 1.6 1.5 3.3 1.8 5.3h2.8c2 0 3.3-1.2 3.3-3.1-.1-1-.5-1.6-1.4-2.2zM158.2 8V6.3h1.6c.6 0 .9.3.9.8s-.3.8-.9.8h-1.6zm0 4.1v-1.8h1.7c.6 0 1 .3 1 .9 0 .5-.4.9-1 .9h-1.7zm15.4 2.3L169.8 4h-2L164 14.4h2.7l.5-1.6h3.2l.5 1.6h2.7zm-3.9-3.6h-1.8l1-2.8.8 2.8zm13.1 3.6l-2.2-4.3c.5-.3.7-.4 1-.7.5-.5.7-1.2.7-2 0-1.9-1.4-3.3-3.6-3.3h-4.1v10.4h2.5v-3.9h.9l1.8 3.9h3zm-5.7-6V6.3h1.4c.7 0 1.1.4 1.1 1s-.5 1-1.1 1h-1.4zm13.4.7c.8-.6 1.1-1.3 1.1-2.2 0-1.8-1.3-2.9-3.3-2.9H184v10.4h4.5c1.9 0 3.3-1.2 3.3-3.1 0-1-.4-1.6-1.3-2.2zM186.6 8V6.3h1.6c.6 0 1 .3 1 .8s-.4.8-1 .8h-1.6zm0 4.1v-1.8h1.8c.5 0 .9.3.9.9 0 .5-.4.9-.9.9h-1.8zm14 2.3v-2.3H196v-1.8h3.9V8H196V6.3h4.5V4h-7.1v10.4h7.2zm9.9 0l-2.2-4.3c.5-.3.7-.4.9-.7.5-.5.8-1.2.8-2 0-1.9-1.5-3.3-3.6-3.3h-4.1v10.4h2.5v-3.9h.8l1.9 3.9h3zm-5.6-6V6.3h1.4c.7 0 1.1.4 1.1 1s-.4 1-1.1 1h-1.4zM217 6.8l1.6-1.6c-.5-.5-.8-.7-1.3-.9-.6-.2-1.3-.4-2.1-.4-2.4 0-3.9 1.3-3.9 3.3 0 1.8 1 2.7 2.8 3l1.3.2c.6.1.8.4.8.9 0 .6-.5 1-1.4 1-.7 0-1.1-.1-1.6-.3-.3-.1-.4-.2-.7-.4l-1.6 1.6c.6.5.9.7 1.4.9.7.3 1.5.4 2.4.4 2.7 0 4.2-1.2 4.2-3.3 0-1.8-.9-2.8-2.8-3.1l-1.3-.2c-.5-.1-.9-.4-.9-.8 0-.6.5-1 1.4-1 .5 0 .8.1 1.1.2.2.2.3.2.6.5zm11.2 7.6V4h-2.5v4H223V4h-2.5v10.4h2.5v-4.1h2.7v4.1h2.5zm9.6-5.2v-.9c0-1.5-.4-2.5-1.1-3.3-.7-.8-1.7-1.1-2.9-1.1s-2.2.4-2.9 1.1c-.8.9-1.1 1.8-1.1 3.8v.7c0 1.3 0 2.7 1.1 3.8.8.8 1.7 1.1 2.9 1.1s2.2-.4 2.9-1.1c1.2-1.1 1.1-2.5 1.1-4.1zm-5-2.6c.2-.2.6-.4 1-.4s.8.2 1 .4c.3.4.4 1.1.4 2.2v.7c0 1.3-.1 1.9-.4 2.3-.2.3-.6.5-1 .5s-.8-.2-1-.5c-.2-.4-.4-1-.4-2.3v-.7c0-1 .2-1.8.4-2.2zm6.7-2.6v10.4h2.5v-3.7h1.6c2.1 0 3.6-1.4 3.6-3.3S245.7 4 243.6 4h-4.1zm2.5 4.4V6.3h1.4c.7 0 1.1.4 1.1 1s-.5 1-1.1 1H242z"/></g><g><path class="st1" d="M232.3 21.2l2 6.5h6.8l-5.5 3.9 2.1 6.5-5.4-4-5.6 4 2.1-6.5-5.5-3.9h6.8zM254.1 28.1l2.1 6.5h6.9l-5.6 4 2.1 6.4-5.5-3.9-5.5 3.9 2.1-6.4-5.5-4h6.9zM271.3 44.1l2.1 6.5h6.7l-5.5 4 2.1 6.4-5.4-3.9-5.5 3.9 2-6.4-5.5-4h6.9zM277.1 66.6l2.1 6.5h6.8l-5.5 3.9 2.1 6.5-5.5-4-5.5 4 2.1-6.5-5.5-3.9h6.8zM271.3 89.6l2.1 6.4h6.7l-5.5 4 2.1 6.5-5.4-4-5.5 4 2-6.5-5.5-4h6.9zM254.7 106.1l2.1 6.5h6.7l-5.4 4 2.1 6.4-5.5-3.9-5.5 3.9 2.1-6.4-5.5-4h6.7z"/></g></g></g></svg>